<?xml version="1.0" encoding="utf-8"?>
<!-- Generator: Adobe Illustrator 24.0.1, SVG Export Plug-In . SVG Version: 6.00 Build 0)  -->
<svg version="1.1"
	 id="svg1895" inkscape:output_extension="org.inkscape.output.svg.inkscape" inkscape:version="0.48.3.1 r9886" sodipodi:docname="BD_Districts.svg" sodipodi:version="0.32" xmlns:cc="http://creativecommons.org/ns#" xmlns:dc="http://purl.org/dc/elements/1.1/" xmlns:inkscape="http://www.inkscape.org/namespaces/inkscape" xmlns:rdf="http://www.w3.org/1999/02/22-rdf-syntax-ns#" xmlns:sodipodi="http://sodipodi.sourceforge.net/DTD/sodipodi-0.dtd" xmlns:svg="http://www.w3.org/2000/svg"
	 xmlns="http://www.w3.org/2000/svg" xmlns:xlink="http://www.w3.org/1999/xlink" x="0px" y="0px" viewBox="0 0 1530.7 2138"
	 style="enable-background:new 0 0 1530.7 2138;" xml:space="preserve">
<style type="text/css">
	.st0{fill-rule:evenodd;clip-rule:evenodd;fill:#00962A;stroke:#FFFFFF;stroke-width:1;}
	.st1{fill:#FFFFFF;}
	.st2{font-family:'Calibri';}
	.st3{font-size:20px;}
	.st4{font-size:12px;}
	.st5{fill-rule:evenodd;clip-rule:evenodd;fill:#00962A;stroke:#FFFFFF;}
	.st6{font-size:14px;}
	
		.st7{fill-rule:evenodd;clip-rule:evenodd;fill:#00962A;stroke:#FFFFFF;stroke-width:1;stroke-linecap:round;stroke-linejoin:round;}
</style>
<g>
	<path id="bandarban" inkscape:connector-curvature="0" class="st0" d="M1373.4,1696l-9.9,12.3l-17.4-7.4l-5-9.9l-14.9-22.2l7.5-9.9
		h12.4l5,9.9l17.4,2.5v-9.9l7.5-19.7l-7.5-12.3l-5-24.6l-2.5-12.3l-5-24.6l-5-17.2l5-24.6l14.9,4.9l14.9-7.4h24.9l14.9,9.9
		l22.4,12.3l12.4,27.1l12.4,34.5l-5,9.9l14.9,32l14.9,41.9l2.5,12.3l-2.5,27.1v17.2l-2.5,19.7l2.5,24.6l7.5,27.1l2.5,27.1l2.5,22.2
		l12.4,22.2l-12.4,4.9l-12.4,14.8l-7.5-4.9l-2.5-12.3l-7.5-17.2l2.5-9.9l-7.5-2.5l-7.5,4.9l-12.4,2.5l-14.9-4.9l-2.5-9.9l-9.9-24.6
		l-7.5-4.9l-9.9,12.3l-5,9.9l-9.9-2.5l-12.4,22.2l-7.5,2.5l-7.5,9.9l2.5,19.7l-7.5,17.2l-2.5-24.6l-7.5-19.7l-2.5-9.9l14.9-17.2
		l9.9,9.9l7.5-14.8l-9.9-19.7l-9.9-17.2l5-9.9l-12.4-12.3l-5-14.8l-7.5-19.7l12.4-12.3h19.9v-14.8h12.4v-7.4L1373.4,1696
		L1373.4,1696z"/>
	<text transform="matrix(1 0 0 1 1397.0618 1725.6246)" class="st1 st2 st3">Bandarban</text>
</g>
<g>
	<path id="rangamati" inkscape:connector-curvature="0" class="st0" d="M1288.9,1427.5l-5-24.6l12.4-14.8l9.9-17.2l2.5-29.6
		l37.3-27.1l-2.5-14.8l-5-27.1l22.4-17.2l-5-19.7l-7.5-32v-17.2l-17.4-24.6l22.4-29.6l-9.9-24.6l-17.4-44.3l5-7.4l19.9-19.7h12.4
		l7.5,12.3l5,19.7l5-17.2l5-9.9l12.4,4.9l-7.5,17.2l5,17.2l5,12.3l5,44.3l12.4,17.2l7.5,14.8l-5,9.9l7.5,7.4l2.5,9.9l-17.4,12.3
		l2.5,19.7l2.5,17.2l2.5,12.3l9.9,12.3l-7.5,39.4l9.9,19.7l19.9,9.9l-5,12.3l7.5,29.6l14.9,14.8l2.5,19.7l5,24.6l-7.5,4.9l7.5,24.6
		l5,29.6l5,24.6v14.8l5,19.7l5,19.7v22.2l-12.4-4.9l7.5,27.1l9.9,39.4l7.5,24.6l-9.9,17.2l-5-12.3l-7.5-22.2l-7.5-24.6l-12.4-24.6
		l2.5-7.4l-5-19.7l-9.9-34.5l-9.9-9.9l-24.9-17.2l-32.3-7.4l-22.4,9.9l-14.9-12.3l-9.9-14.8l7.5-19.7l-2.5-19.7l-12.4-24.6
		l-14.9-22.2l-7.5,2.5l-9.9,14.8l7.5,19.7l-5,9.9l-9.9-12.3L1288.9,1427.5L1288.9,1427.5z"/>
	<g>
		<text transform="matrix(1 0 0 1 1333.6812 1374.6522)" class="st1 st2 st3">Rangamati</text>
	</g>
</g>
<g>
	
		<path id="khagrachari" inkscape:connector-curvature="0" sodipodi:nodetypes="cccccccccccccccccccccccccccccccccccccccc" class="st0" d="
		M1286.5,1402.9l17.4-22.2v-17.2l7.5-24.6l34.8-24.6l-9.9-46.8l24.9-12.3l-5-22.2l-12.4-32l5-19.7l-17.4-17.2l24.9-29.6l-29.8-66.5
		l-14.9,2.5l-17.4-29.6h-7.5l-9.9,9.9l9.9,41.9l5,27.1l-7.5,9.9v14.8l-14.9-4.9l-17.4,14.8l-17.4,29.6l-7.5,22.2l12.4,22.2l2.2,31.1
		l-3.1,8l-9.1,0.3v7.4l-19.9,24.6l14.9,12.3l-5,9.9l2.5,9.9l14.9,32l14.9,19.7l2.5-9.9l17.4,2.5l2.5,14.8L1286.5,1402.9
		L1286.5,1402.9z"/>
	<g>
		<text transform="matrix(1 0 0 1 1241.2296 1230.7168)" class="st1 st2 st3">Khagrachhari</text>
	</g>
</g>
<g>
	<path id="coxs_bazar" inkscape:connector-curvature="0" class="st0" d="M1274,1696l27.3-14.8l12.4-9.9l12.4-2.5l17.4,29.6l19.9,9.9
		l7.5-2.5l5-12.3l12.4,17.2v7.4h-12.4l-2.5,17.2h-22.4l-9.9,12.3l9.9,24.6l19.9,19.7l-7.5,12.3l12.4,19.7l9.9,12.3l-5,17.2h-9.9
		l-2.5-9.9l-17.4,19.7l5,22.2l9.9,17.2l2.5,17.2l-5,12.3l5,19.7l17.4,22.2v14.8l2.5,19.7l12.4,39.4l9.9,24.6l-2.5,12.3l-7.5-7.4
		l-9.9-27.1l-12.4-14.8l-9.9-17.2l-7.5-17.2v-14.8l-42.3-49.3l-5-39.4v-17.2l-7.5-17.2l-14.9-19.7l-2.5-9.9l12.4-14.8l2.5-17.2
		l5-14.8l5-22.2l-2.5-27.1l-9.9,22.2l-12.4-7.4l9.9,17.2l7.5,19.7l-12.4,24.6l2.5,2.5l-24.9-2.5l2.5,12.3h-14.9l-2.5-12.3l7.5-22.2
		l5-19.7l-12.4-9.9L1274,1696L1274,1696z M1239.2,1673.8l24.9-4.9l5,24.6l-7.5,22.2l-14.9,24.6l2.5-17.2l2.5-34.5L1239.2,1673.8
		L1239.2,1673.8z M1394.6,2120.4c-1.3-5.2,0.6-7.2-3.9-11.8c-6.1-6.2,1-6.9,5.9-6.9C1398.3,2101.7,1394.7,2120.1,1394.6,2120.4z"/>
	<g>
		<text transform="matrix(1 0 0 1 1276.9691 1729.3436)" class="st1 st2 st3">Cox&apos;s Bazar         </text>
	</g>
</g>
<g>
	<path id="chittagong" inkscape:connector-curvature="0" class="st0" d="M1240.2,1565.8l-10.5-7l-3.5-20.9l-1.8-19.2v-7l-12.3-19.2
		l-8.8-24.4l-14.1-12.2l-10.5-15.7l-7-13.9v-5.2l-7-8.7l-8.8-7l-26.4-19.2l5.3-8.7l-12.3-12.2l1.8-10.4l5.3-20.9l17.6-7h7l1.8-17.4
		h14.1l12.3,3.5l7-8.7l21.1-5.2l10.5,5.2l3.5,10.4l-7,12.2l8.8,12.2l8.8,17.4l8.8,15.7l7,12.2v-13.9h14.1l7,5.2v15.7l12.3,1.7
		l3.5,17.4l1.8,19.2l5.3,13.9l-1.8,12.2l12.3,8.7l3.5-8.7l1.8-8.7l-5.3-7l1.8-15.7l14.1-5.2l14.1,15.7l12.3,29.6l3.5,20.9
		l-12.3,22.6l19.3,13.9l-3.5,13.9l-1.8,8.7l5.3,20.9l1.8,8.7v8.7l5.3,8.7l-3.5,10.4l3.5,17.4l10.5,20.9l-5.3,10.4l-5.3,7l5.3,12.2
		l-12.3,3.5l-10.5-3.5l3.5-10.4h-15.8l-10.5,10.4l-19.3,3.5l-10.5,10.4l-17.6,10.4l-3.5-13.9l8.8-12.2l-14.1-12.2v-15.7l-10.5-13.9
		l-3.5-24.4l-8.8-8.7L1240.2,1565.8L1240.2,1565.8z M1089,1410.8l10.5,19.2l7,10.4v7l-3.5,1.7l-3.5,17.4l5.3,19.2l15.8,17.4
		l10.5,5.2v10.4l1.8,3.5h14.1l8.8-10.4l3.5-10.4V1491l-3.5-10.4l-28.1-47l-1.8-10.4L1089,1410.8L1089,1410.8z M1078.5,1376l15.8,5.2
		l3.5,12.2l-5.3,1.7L1078.5,1376L1078.5,1376z"/>
	<g>
		<text transform="matrix(1 0 0 1 1233.2549 1502.811)" class="st1 st2 st3">Chittagong</text>
	</g>
</g>
<g>
	<path id="feni" inkscape:connector-curvature="0" class="st0" d="M1090.8,1363.8l-7-10.4l1.8-10.4l10.5-19.2l-12.3,1.7l-15.8-3.5
		l-5.3,5.2l3.5-13.9l-1.8-12.2l3.5-10.4l-5.3-20.9l19.3,5.2l10.5-8.7l10.5,3.5l7-7l-5.3-15.7l-3.5-10.4v-10.4l3.5-13.9l1.8-12.2
		l15.8,3.5l10.5,17.4l10.5,20.9l3.5,15.7v13.9l12.3,17.4l-1.8,12.2l14.1,5.2l-19.3,1.7l1.8,19.2H1140l-10.5,7l-5.3,15.7l-12.3,17.4
		v12.2l-7-3.5v-8.7L1090.8,1363.8L1090.8,1363.8z"/>
	<g>
		<text transform="matrix(1 0 0 1 1100.1953 1294.8351)" class="st1 st2 st3">Feni</text>
	</g>
</g>
<g>
	<path id="noakhali" inkscape:connector-curvature="0" class="st0" d="M983.2,1466.9l32.3,2.5l9.9,22.2l2.5,19.7l9.9,12.3l-2.5,27.1
		l-5,27.1l-17.4,12.3l-14.9,17.2l-7.5-2.5l2.5-24.6l2.5-27.1l2.5-24.6l-2.5-24.6L983.2,1466.9L983.2,1466.9z M1075.2,1454.6
		l-24.9-7.4v-19.7v-12.3l19.9,9.9l7.5,12.3L1075.2,1454.6z M1030.4,1380.7l32.3,2.5l14.9,12.3l-2.5,14.8l-22.4-9.9L1030.4,1380.7
		L1030.4,1380.7z M988.2,1395.5h27.3l12.4,14.8l9.9,17.2l-7.5,14.8l-17.4,7.4l-12.4-2.5l-2.5-22.2L988.2,1395.5L988.2,1395.5z
		 M963.3,1341.3l9.9-12.3l5-19.7l-9.9-12.3l-17.4-12.3l2.5-12.3l14.9-27.1l19.9,7.4l19.9,17.2l19.9-7.4l12.4,2.5l27.3,7.4l2.5,9.9
		l-2.5,12.3v9.9l-7.5,22.2l22.4-2.5h12.4l-9.9,14.8v12.3l5,17.2l-14.9-7.4l-14.9,4.9l-27.3-2.5l-14.9-9.9l-7.5,9.9
		c0,0-7.5,7.4-17.4,2.5C983.2,1361,965.8,1343.8,963.3,1341.3L963.3,1341.3z"/>
	<g>
		<text transform="matrix(1 0 0 1 987.2885 1318.1575)" class="st1 st2 st3">Noakhali</text>
	</g>
</g>
<g>
	<path id="laxmipur" inkscape:connector-curvature="0" class="st0" d="M865.2,1292l3.7,12.3l16.2,6.2l2.5,9.9l5,9.9l16.2,13.5
		l6.2,23.4L926,1393l5,19.7l22.4,22.2l7.5,13.5l17.4,6.2l19.9-14.8l-3.7-17.2l-13.7-22.2l1.2-7.4l-19.9-29.6l-1.2-19.7l12.4-6.2
		l3.7-14.8v-20.9l-12.4-8.6l-14.9-6.2l-1.2-4.9l9.9-3.7l-5-8.6l6.2,1.2l12.4-28.3l-7.5-3.7h-12.4l-5-9.9l-13.7,2.5l-7.5,24.6
		l-19.9,6.2l-2.5-2.5l-16.2,8.6l-5-7.4h-3.7l-3.7,3.7v23.4L865.2,1292L865.2,1292z"/>
	<g>
		<text transform="matrix(0.5008 0.8656 -0.8656 0.5008 903.804 1295.7289)" class="st1 st2 st3">Lakshmipur</text>
	</g>
</g>
<g>
	<path id="bhola" inkscape:connector-curvature="0" class="st0" d="M878.1,1644.2l-5.3,13.9h17.6L878.1,1644.2z M966,1515.3l-7,22.6
		l-8.8,26.1v24.4l17.6,19.2V1585v-22.6l8.8-22.6l1.8-12.2L966,1515.3L966,1515.3z M841.2,1597.2l15.8-17.4l14.1-20.9l1.8-31.3
		l-1.8-22.6l-7-19.2l-7-19.2v-19.2l-12.3-10.4l-12.3-13.9l1.8-15.7l10.5-17.4l15.8-8.7l7-8.7l24.6-1.7l5.3,19.2l10.5,38.3l17.6,20.9
		l12.3,15.7l7,10.4l-1.8,19.2l-5.3,5.2v22.6l-7,15.7l-3.5,12.2l-3.5,15.7v15.7v12.2l-12.3,8.7l-7,13.9l-21.1,7l-1.8,10.4l-10.5,5.2
		l-14.1,8.7c0,0-5.3-1.7-5.3-8.7c0-7-5.3-15.7-5.3-15.7l8.8-12.2L841.2,1597.2L841.2,1597.2z M851.8,1670.3l8.8-12.2l10.5,13.9l-7,7
		L851.8,1670.3z"/>
	<g>
		<text transform="matrix(1 0 0 1 881.6554 1518.6273)" class="st1 st2 st3">Bhola</text>
	</g>
</g>
<g>
	
		<path id="rajshahi" inkscape:connector-curvature="0" sodipodi:nodetypes="cccccccccccccccccccccccccccccccccccccccccccccccccccccccccccccccccccccccccccccccccc" class="st0" d="
		M120.7,789.6l3.7-8.6l-8.7-11.1l1.2-16l-7.5-8.6l1.2-9.9l24.9-7.4l14.9-7.4l-1.2-9.9l23.6,1.2l3.7-3.7l-3.7-6.2l-6.2,3.7l-8.7-4.9
		l16.2-8.6l18.6,6.2l1.2,9.9l7.5,2.5l7.5-8.6l6.2,4.9l-1.2,13.5l11.2,4.9l27.3-14.8l-1.2-2.5l13.7,4.9l7.5,6.2l9.9-1.2l8.7,8.6
		l9.9-3.7v12.3l1.2,6.2l9.9,4.9h6.2v7.4l-2.5,6.2l-13.7,1.2l-7.5,6.2h5l7.5,7.4l-11.2,8.6l1.2,6.2l0,0l1.2,33.2l-12.4,8.6l-2.5,3.7
		l0,0l6.2,12.3l9.9-2.5l1.2,7.4l2.5,6.2l3.7,3.7l-16.2,6.2l-5,4.9l6.2,4.9l-7.5,3.7l5,3.7l-5,3.7l13.7,2.5l2.5,4.9l-9.9,2.5
		l-1.2,4.9h-12.4l-17.4-7.4l-11.2-9.9l-5-2.5l-8.7-2.5V877l9.9-2.5l1.2-25.9l-8.7-18.5l-9.9-1.2l-5,7.4l-18.6-1.2l-11.2-6.2
		l-8.7,7.4l-11.2-6.2l-11.2-11.1l-5,1.2l-1.2-6.2l-11.2-2.5l-12.4-6.2L120.7,789.6L120.7,789.6z"/>
	<g>
		<text transform="matrix(1 0 0 1 182.8228 782.2458)" class="st1 st2 st3">Rajshahi</text>
	</g>
</g>
<g>
	
		<path id="nilphamari" inkscape:connector-curvature="0" sodipodi:nodetypes="cccccccccccccccccccccccccccccccccccccccccccccccccccccccccccccccccccc" class="st0" d="
		M256.2,140.6l6.2-6.2l6.2,1.2l6.2,4.9l-5,13.5l7.5,2.5l6.2,7.4l7.5-1.2l-1.2-8.6l-6.2-3.7l7.5-8.6l13.7,1.2l6.2,8.6l5,6.2l3.7,6.2
		l2.5-3.7h11.2l2.5,2.5l7.5-3.7v8.6l1.2,14.8l8.7,6.2l8.7,4.9l2.5,6.2l-1.2,7.4l-2.5,18.5l3.7,12.3l2.5,13.5l9.9,8.6l11.2,7.4
		l8.7,7.4l-3.7,9.9l-3.7,8.6l-3.7,4.9l-7.5-8.6l-12.4,11.1l1.2,13.5l-9.9-9.9l-6.2,12.3l-19.9-4.9l-13.7,3.7l5,12.3l-6.2,7.4
		l-3.7,6.2l-11.2-1.2l-9.9-8.6h-6.2v-13.5l-9.9-2.5v-29.6l-5-6.2l-5-8.6l-13.7-3.7l1.2-6.2l-3.7-2.5V249l-1.2-3.7l5-6.2l-3.7,6.2
		l7.5-11.1l7.5-3.7v-20.9l3.7-7.4v-4.9l-1.2-17.2l3.7-7.4l-13.7-14.8L256.2,140.6L256.2,140.6z"/>
	<g>
		<text transform="matrix(1 0 0 1 268.1582 254.6744)" class="st1 st2 st3">Nilphamari</text>
	</g>
</g>
<g>
	<path id="patuakhali" inkscape:connector-curvature="0" class="st0" d="M836,1658.1l-15.8,15.7l-5.3,15.7l14.1,7l10.5-12.2
		l-3.5-12.2L836,1658.1L836,1658.1z M816.6,1628.5l15.8-10.4l5.3,10.4l-1.8,12.2l-10.5,12.2l-8.8,8.7v-19.2L816.6,1628.5
		L816.6,1628.5z M781.5,1619.8l17.6,8.7l8.8,8.7l1.8,13.9l-5.3,15.7l-8.8,12.2l-19.3-8.7l-5.3,12.2l-5.3,17.4l-12.3,5.2l3.5-19.2
		l7-13.9v-15.7l7-13.9L781.5,1619.8L781.5,1619.8z M776.2,1611.1l3.5-17.4l-12.3-7l19.3-20.9l5.3-5.2l-3.5-13.9l-26.4,1.7l-8.8-5.2
		l-24.6,13.9l-3.5-8.7l1.8-17.4l22.8-5.2l3.5-10.4l-7-15.7l14.1-15.7l10.5-1.7l5.3-13.9l15.8,1.7l5.3-15.7l24.6-7l1.8-12.2
		l12.3,12.2l10.5,13.9l-1.8,17.4l14.1,5.2l8.8,27.9l-12.3,7v15.7l-10.5,20.9l-7,19.2l-3.5,10.4l3.5,24.4l-31.6,10.4L776.2,1611.1
		L776.2,1611.1z"/>
	<g>
		<text transform="matrix(1 0 0 1 759.9603 1527.5258)" class="st1 st2 st3">Patuakhali</text>
	</g>
</g>
<g>
	<path id="barguna" inkscape:connector-curvature="0" class="st0" d="M720,1466.6l17.6,1.7l-1.8,8.7l17.6-5.2v-3.5l10.5-7l12.3,5.2
		l-3.5,13.9l-12.3,1.7l-12.3,17.4l5.3,13.9l-3.5,10.4l-17.6,3.5l-7,12.2l-1.8,13.9l5.3,7l15.8-15.7l8.8-3.5l7,3.5l29.9,1.7l1.8,12.2
		l-17.6,17.4l-5.3,10.4l12.3,7v10.4l-12.3,20.9l-10.5,12.2v26.1l-17.6,20.9l1.8,19.2l-15.8,5.2l-14.1,8.7l-15.8-3.5l-12.3-10.4
		l-22.8-5.2l5.3-8.7l-7-8.7c0,0-7-19.2,1.8-19.2c8.8,0,21.1-7,21.1-7l-12.3-5.2l-12.3-1.7l1.8-17.4l8.8-10.4l-5.3-8.7l-5.3,12.2
		l-8.8,1.7l-1.8,12.2l5.3,5.2l-8.8,10.4l-14.1-22.6l-3.5-17.4v-24.4l0,0l17.6-8.7l8.8-10.4l7,3.5l12.3-26.1l5.3-13.9l-3.5-15.7
		l17.6,1.7l12.3-15.7l10.5-7l1.8-13.9L720,1466.6L720,1466.6z"/>
	<g>
		<text transform="matrix(1 0 0 1 681.731 1592.5525)" class="st1 st2 st3">Barguna</text>
	</g>
</g>
<g>
	<path id="barisal" inkscape:connector-curvature="0" class="st0" d="M717.3,1468.1l16.2-8.6l16.2-7.4l5-13.5h7.5l2.5-3.7l14.9,3.7
		l2.5-8.6h8.7l-1.2-7.4l-14.9-2.5l3.7-7.4l6.2,1.2l-1.2-6.2l-19.9-2.5l-5-6.2l-9.9-1.2l1.2-7.4l5-3.7l-11.2-13.5h-8.7l-5-6.2
		l-16.2,9.9l-19.9-3.7l-1.2-4.9h-5l-7.5-12.3h-8.7l1.2-12.3l-7.5-9.9v-14.8l11.2-12.3l1.2-6.2l11.2-6.2l2.5-6.2l11.2-1.2v-14.8
		l14.9,1.2l5-7.4l6.2,2.5l-1.2,29.6l17.4,7.4l9.9-2.5l6.2-3.7l7.5,4.9l3.7-8.6l14.9-7.4l17.4,3.7l17.4,9.9l12.4,11.1l14.9,6.2
		l14.9,6.2l11.2,9.9l7.5,17.2l-7.5,8.6l-12.4,6.2l-21.1,14.8l-11.2,11.1l-1.2,8.6l-14.9,2.5l8.7,13.5l-3.7,9.9l1.2,11.1l5,7.4
		l-14.9,1.2l-13.7,7.4v8.6l-2.5,8.6l-8.7-2.5l-7.5-1.2l-16.2-7.4l-8.7,4.9l-1.2,6.2l-14.9,6.2l-1.2-11.1L717.3,1468.1L717.3,1468.1z
		"/>
	<g>
		<text transform="matrix(1 0 0 1 762.0034 1354.84)" class="st1 st2 st3">Barisal</text>
	</g>
</g>
<g>
	<path id="jhalokati" inkscape:connector-curvature="0" class="st0" d="M675,1513.7l-6.2,4.9l-2.5-9.9l8.7-11.1l-3.7-18.5l7.5,7.4
		l8.7-4.9l5,4.9l14.9-9.9l1.2-7.4l-19.9-6.2l-1.2-23.4l12.4-3.7v-8.6l-8.7-9.9l13.7-7.4l1.2-9.9l11.2-6.2l-1.2-3.7l6.2-2.5l1.2-6.2
		l-8.7-4.9l8.7-7.4l5-2.5l2.5,7.4h7.5l5-2.5l9.9,11.1l-3.7,4.9l-1.2,6.2l2.5,3.7h7.5l3.7,6.2l21.1,3.7l1.2,4.9l-6.2,1.2l-3.7,6.2
		l13.7,2.5l1.2,6.2l-11.2,2.5c0,0,2.5,7.4-2.5,7.4s-9.9-4.9-9.9-4.9l-3.7,4.9l-7.5-1.2l-3.7,7.4l-2.5,7.4l-8.7,3.7l-13.7,8.6
		l-8.7,6.2l-1.2,8.6l-2.5,14.8l-9.9,6.2l-5,11.1l-6.2,7.4L675,1513.7L675,1513.7z"/>
	<g>
		<text transform="matrix(1 0 0 1 701.9012 1428.5206)" class="st1 st2 st3">Jhalokati</text>
	</g>
</g>
<g>
	
		<path id="perojpur" inkscape:connector-curvature="0" sodipodi:nodetypes="ccccccccccccccccccccccccccccccccccccccccccccccccccccccccccccccccc" class="st0" d="
		M625.3,1586.4l-2.5-18.5l-7.5-9.9l1.2-18.5l9.9-17.2l-2.5-11.1V1494l8.7-9.9h5l-6.2-6.2l-14.9-23.4l17.4,9.9l11.2,9.9l-1.2-11.1
		l-5-13.5l6.2-8.6l-6.2-17.2v-18.5l-5-4.9l-17.4-2.5l-1.2-13.5l19.9-7.4v-20.9l-1.2-4.9l2.5-3.7l1.2-8.6l18.6,2.5l6.2-8.6h1.2
		l8.7,11.1l-1.2,12.3h6.2l7.5,11.1h7.5l2.5,7.4l18.6,3.7l8.7,2.5l-1.2,6.2l-5,1.2v6.2l-8.7,6.2l-2.5,9.9l-13.7,8.6l7.5,7.4v9.9
		l-12.4,2.5v24.6l19.9,3.7l2.5,2.5l-2.5,6.2l-12.4,12.3l-7.5-6.2l-6.2,3.7l-7.5-3.7l1.2,14.8l-7.5,11.1l1.2,9.9l7.5-3.7l2.5,14.8
		l-3.7,7.4l-3.7,17.2l-8.7,16l-8.7,1.2l-14.9,16H625.3L625.3,1586.4z"/>
	<g>
		<text transform="matrix(1 0 0 1 635.6508 1395.4792)" class="st1 st2 st3">Pirojpur</text>
	</g>
</g>
<g>
	
		<path id="chandpur" inkscape:connector-curvature="0" sodipodi:nodetypes="cccccccccccccccccccccccccccccccccccccccccccccccccccccccc" class="st0" d="
		M855.2,1289.6l-12.4-20.9l-5-12.3l6.2-17.2l8.7-14.8l11.2-12.3l3.7-12.3l-5-9.9v-8.6l-8.7-4.9l-8.7-2.5v-8.6l-7.5-3.7l6.2-12.3
		l2.5-12.3l1.2-9.9l12.4-3.7l8.7-3.7l7.5-1.2l13.7,12.3l1.2,8.6l13.7,6.2l6.2-8.6l5,4.9l12.4-16l21.1,6.2l2.5,16l11.2,7.4l1.2,11.1
		l12.4,11.1l11.2,14.8l-1.2,8.6l9.9,8.6l-7.5,7.4l1.2,16l-3.7,8.6h-8.7l-5,2.5l-7.5-4.9l-13.7,1.2l-6.2-9.9h-6.2l-7.5,3.7l-3.7,12.3
		l-2.5,8.6l-17.4,6.2h-6.2l-12.4,7.4h-2.5l-3.7-7.4h-3.7l-3.7,4.9l-1.2,12.3v6.2l-7.5,8.6L855.2,1289.6L855.2,1289.6z"/>
	<g>
		<text transform="matrix(1 0 0 1 877.4724 1210.8646)" class="st1 st2 st3">Chandpur</text>
	</g>
</g>
<g>
	<path id="comilla" inkscape:connector-curvature="0" class="st0" d="M887.8,1096.9l11-20l4-6.1l-5.3-8.7l1.8-14.8l14.1,6.1l6.2-9.1
		l-3.1-5.2l-0.9-3.9l5.7-3.5l14.5,9.6l11-3l-1.3-9.1l6.6-1.7l14.5,0.4l7.9-7.4l18.9,1.3l-3.1-0.9l11,6.1l6.6,5.7l-5.3,4.4l9.2,3
		l1.8,4.4h4.8l-0.9,9.6l10.1,9.6l2.2,4.4l-0.4,11.3l3.1,7.4l10.1,10.4l-0.4,7l6.2,2.2l-3.1,2.6l0.4,5.2l12.7,10l6.6,21.3l6.6,21.3
		l11,4.4l-11.4,8.3l0.9,4.4l8.8,4.8l-3.5,3l-0.4,3.9l3.1,6.5l2.6,3.5l-0.9,4.4l1.8,33.5l4.4,5.7l4.8,9.6l-1.3,10.9l-9.7,5.7
		l-12.3-6.5l-10.5,0.4l-15.8-2.2l-7.9-5.2l-7.9-0.4l-9.2,5.2l-3.1-2.2h-8.8l-11.4-5.7l-5.7-10l-0.4,0.9l-7-0.4l-4.8-7l8.3-2.2
		l5.3-7.4l-0.9-15.2l5.7-9.6l-6.6-6.1l-1.3-9.6l-7.9-9.6l-3.5-7.8l-13.2-9.6l-1.8-8.7l-9.2-6.1l-3.5-17l-17.6-4.8l-12.7,10.9l-4.8-3
		l-4.8,10h-5.3l-11.9-6.5v-8.3h-0.4l-5.7-6.1l-8.3-8.3l7-3.9l-0.4-8.3L887.8,1096.9L887.8,1096.9z M869.4,1068.2l-1.3,11.8l7.5,9.6
		l2.2,5.7l4.8-0.9l6.6-10l7.5-12.6l-3.5-9.1l0.4-10.4l-7.1-8.4l-7.4,14.1l-11.9-3l-0.4,9.1L869.4,1068.2L869.4,1068.2z"/>
	<g>
		<text transform="matrix(1 0 0 1 977.0035 1152.679)" class="st1 st2 st3">Comilla</text>
	</g>
</g>
<g>
	<path id="munshiganj" inkscape:connector-curvature="0" class="st0" d="M837.3,1095.2l2.6,5.7l4.4,7.4l2.2,13.5l17.1-7.4l16.3-4.4
		l-7.5-13.9l-7.9-13.5l-15.8,0.9L837.3,1095.2L837.3,1095.2z M783.2,1147.9l31.6,7l-3.5,17.4L783.2,1147.9z M714.7,1118.3l5.3-19.2
		l10.5,5.2l7-8.7v-15.7l8.8-19.2l17.6,5.2l17.6,12.2l-5.3,17.4l10.5,1.7l5.3-19.2l21.1,13.9l17.6,3.5l3.5,8.7l7,5.2v12.2l-1.8,10.4
		l-8.8,13.9l-3.5,13.9l-12.3-13.9H792l-17.6-5.2h-14.1l-15.8-3.5L714.7,1118.3L714.7,1118.3z"/>
	<g>
		<text transform="matrix(1 0 0 1 735.9047 1121.549)" class="st1 st2 st3">Munshiganj</text>
	</g>
</g>
<g>
	<path id="brahmanbaria" inkscape:connector-curvature="0" class="st0" d="M913.6,1053.1l-14.9-6.2v-3.7l-12.4-9.9l3.7-9.9
		l11.2-13.5l1.2-17.2l8.7-4.9l3.7,4.9H926l3.7-3.7l21.1,2.5v-8.6l7.5-2.5l5-20.9l9.9-2.5l-6.2-11.1l11.2-16l13.7-6.2l-1.2-4.9
		l7.5-7.4l-2.5-12.3l-7.5-1.2l-7.5-13.5l9.9-12.3l17.4,2.5l6.2-9.9l21.1-7.4l21.1,6.2l11.2,7.4l13.7-19.7l9.9,2.5v7.4l-16.2,11.1
		l9.9,6.2v6.2l-12.4-3.7l-1.2,14.8l7.5,4.9l-8.7,2.5l6.2,19.7l6.2,8.6v3.7l-5,2.5v9.9v3.7l-13.7,6.2l5,12.3l-9.9,2.5l-7.5,14.8
		l7.5,8.6l1.2,6.2l-6.2,4.9l-2.5,9.9l5,9.9l-7.5,9.9l-5-3.7h-8.7l-6.2,4.9l1.2,14.8l6.2,2.5l3.7-4.9l3.7,2.5v16h-5l-8.7-7.4
		l-2.5,3.7l-9.9-9.9v-9.9h-5l-1.2-4.9l-9.9-2.5l6.2-4.9l-13.7-11.1l-19.9-1.2l-8.7,7.4h-14.9l-6.2,1.2l2.5,9.9l-11.2,2.5l-13.7-9.9
		l-7.5,4.9l1.2,3.7l3.7,3.7L913.6,1053.1L913.6,1053.1z"/>
	<g>
		<text transform="matrix(1 0 0 1 926.0667 1009.7721)" class="st1 st2 st3">Brahmanbaria</text>
	</g>
</g>
<g>
	<path id="narayanganj" inkscape:connector-curvature="0" class="st0" d="M806.7,1070.4l-11.2-17.2l28.6-9.9l-14.9-35.7l3.7-8.6
		v-11.1l8.7-23.4l7.5,2.5l1.2-6.2l14.9,18.5l17.4,7.4l-8.7,8.6l2.5,7.4l13.7-8.6l5,6.2l-8.7,8.6l12.4,3.7l14.9,4.9l-1.2,4.9
		l-3.7,11.1l-8.7,7.4l-2.5,11.1l-8.7-2.5h-6.2l-2.5,8.6v12.3l-16.2,7.4l-6.2,6.2l-6.2,7.4l-9.9-1.2v-7.4l-8.7,6.2l-7.5-6.2
		L806.7,1070.4L806.7,1070.4z"/>
	<g>
		<text transform="matrix(1 0 0 1 822.899 1024.8036)" class="st1 st2 st4">Narayanganj</text>
	</g>
</g>
<g>
	
		<path id="narshingdi" inkscape:connector-curvature="0" sodipodi:nodetypes="ccccccccccccccccccccccccccccccccccccccccccccccccccccccccccccc" class="st0" d="
		M849,980.5l12.4-11.1l5-7.4l-5-8.6h7.5l5-13.5v-13.5l-2.5-12.3l-6.2-3.7l5-3.7l6.2,7.4l11.2-2.5h3.7l-7.5-8.6l3.7-16l-3.7-8.6
		v-12.3l5-4.9l7.5,1.2l8.7-7.4l11.2,18.5l8.7,3.7l6.2,9.9l12.4,4.9l1.2,3.7l-7.5,3.7l6.2,7.4l-8.7,2.5l13.7-1.2l7.5,8.6l11.2-3.7
		l2.5,12.3l7.5,3.7l-2.5,3.7l-7.5,12.3l3.7,11.1l-6.2,2.5l-7.5,19.7l-5,3.7l-2.5,6.2l-1.2,2.5l-16.2-1.2l-8.7,3.7h-7.5v-2.5
		l-8.7-1.2l-3.7,2.5l-1.2,16l-7.5,12.3l-11.2-9.9l-1.2-6.2l-2.5,8.6l-9.9-2.5l-3.7-3.7l7.5-3.7l-3.7-8.6l-8.7,3.7l-2.5,6.2l-3.7-7.4
		l8.7-12.3L849,980.5L849,980.5z"/>
	<g>
		<text transform="matrix(1 0 0 1 886.2814 942.4029)" class="st1 st2 st3">Narsingdi</text>
	</g>
</g>
<g>
	<path id="moulovibazar" inkscape:connector-curvature="0" class="st0" d="M1188.3,864.7l8.7-23.4l-8.7-19.7l6.2-56.6l7.5-4.9
		l13.7,1.2l-9.9-4.9l-12.4-14.8l6.2-3.7l8.7,1.2l8.7,8.6l7.5-9.9l18.6,1.2l19.9-24.6l6.2,6.2l7.5-3.7l3.7,6.2l12.4,1.2l5-4.9l5,4.9
		l17.4-3.7l17.4-9.9l6.2-25.9h6.2l3.7,9.9l17.4-3.7h12.4l-2.5,8.6l-3.7,8.6l-8.7,16l-3.7,22.2l-18.6,12.3l-2.5,22.2l6.2,8.6v7.4
		l-8.7,17.2H1325l-24.9-3.7l-9.9,2.5l9.9,8.6l2.5,9.9l-6.2,2.5l-2.5-6.2l-1.2-4.9l-7.5-1.2l-8.7,8.6l5,4.9v27.1l-6.2,7.4l-2.5,24.6
		h-8.7l-6.2-13.5l-9.9-8.6l5-4.9l-9.9,2.5h-11.2l-3.7-7.4l-7.5,1.2h1.2v23.4l5,7.4l-6.2,4.9l-6.2-2.5l-3.7-6.2l-11.2-7.4
		L1188.3,864.7L1188.3,864.7z"/>
	<g>
		<text transform="matrix(1 0 0 1 1224.3163 795.2856)" class="st1 st2 st3">Moulvibazar  </text>
	</g>
</g>
<g>
	
		<path id="habiganj" inkscape:connector-curvature="0" sodipodi:nodetypes="cccccccccccccccccccccccccccccccccccccccccccccccccccccccccccccccccccccccccccccccccccccccccc" class="st0" d="
		M1040.4,856.1l7.5-2.5l-5-7.4l-5-2.5l2.5-7.4l14.9,1.2l8.7-3.7v-8.6l-5-6.2l8.7-2.5l-1.2-7.4l-8.7-9.9l5-6.2l1.2-8.6l-2.5-4.9
		l-6.2-3.7l-7.5,3.7l-8.7-3.7l17.4-6.2l6.2-17.2l12.4-8.6l8.7-8.6l8.7,9.9l3.7-7.4l-3.7-8.6l8.7-12.3l16.2-4.9h6.2l8.7,7.4l9.9,14.8
		l6.2-9.9v-3.7l6.2-4.9l5,2.5l19.9-2.5l5,11.1l6.2-2.5l-5-6.2V712l16.2,2.5l14.9,3.7l-7.5,11.1l12.4,1.2l2.5,6.2l-8.7,9.9l-8.7-6.2
		l-7.5-1.2l-3.7,2.5l7.5,12.3l7.5,4.9h-7.5l-8.7,6.2l-2.5,19.7l-2.5,35.7l7.5,20.9l-7.5,20.9l-5,3.7v3.7l6.2,4.9v4.9l-5,2.5v25.9
		l-16.2,9.9l-17.4,2.5l-11.2-8.6h-13.7l-12.4-6.2h-11.2l-2.5,7.4l7.5,9.9l-2.5,8.6l-6.2,8.6l-3.7,12.3l-18.6-4.9v-8.6l3.7-2.5
		l-2.5-9.9l-9.9-20.9l12.4-3.7l-9.9-4.9V882l13.7,3.7v-7.4l-11.2-4.9l17.4-12.3v-7.4l-11.2-2.5l-11.2,19.7l-9.9-7.4L1040.4,856.1
		L1040.4,856.1z"/>
	<g>
		<text transform="matrix(1 0 0 1 1095.5806 837.1112)" class="st1 st2 st3">Habiganj</text>
	</g>
</g>
<g>
	<path id="sylhet" inkscape:connector-curvature="0" class="st0" d="M1204.4,714.5l13.7-23.4l-8.7-11.1l7.5-1.2l-6.2-17.2l8.7-7.4
		h9.9l-9.9-12.3l8.7-14.8l1.2-12.3l-9.9-6.2l6.2-6.2l-12.4-14.8v-4.9l5-4.9v-12.3l-9.9-8.6l1.2-6.2l-7.5-6.2l3.7-6.2h3.7l11.2,3.7
		l7.5-8.6l37.3,1.2l22.4-3.7l8.7,7.4l7.5-9.9h19.9l13.7,4.9l11.2,13.5l5-1.2l5,3.7l5-2.5l8.7,4.9v6.2l6.2,1.2l14.9,7.4l9.9,2.5
		l3.7-3.7h5v9.9l13.7,3.7l12.4,7.4l-2.5,7.4l5,11.1l11.2,3.7l-5,6.2l11.2,1.2l5,7.4l-1.2,18.5h-5l-5-2.5l-7.5,7.4l-14.9-1.2
		l-21.1-3.7l-12.4,3.7l-9.9,6.2l8.7,9.9l-1.2,8.6l-11.2,20.9h-8.7l-18.6,2.5l-5-9.9h-6.2l-1.2,8.6l-5,16l-12.4,9.9l-6.2,2.5
		l-14.9,3.7l-6.2-4.9l-7.5,4.9l-8.7-1.2l-3.7-6.2l-8.7,4.9l-6.2-6.2l-7.5,8.6l-9.9,13.5l-19.9,1.2l-3.7-8.6l-12.4-1.2l5-7.4
		L1204.4,714.5L1204.4,714.5z"/>
	<g>
		<text transform="matrix(1 0 0 1 1307.6187 638.8428)" class="st1 st2 st3">Sylhet</text>
	</g>
</g>
<g>
	<path id="sunamganj" inkscape:connector-curvature="0" class="st0" d="M1052.8,736.6v-9.9l17.4-14.8l-7.5-12.3l-16.2-4.9l-8.7-4.9
		l2.5-11.1l7.5-3.7l3.7-8.6l-5-8.6l-3.7-2.5l-8.7,12.3l-5-8.6l1.2-9.9l-7.5-11.1l-21.1-2.5l-8.7-11.1l-17.4-2.5v-16l-5-11.1v-13.5
		l6.2-6.2l-12.4-3.7l2.5-4.9l12.4-1.2l-6.2-7.4l2.5-23.4l2.5-6.2l19.9-3.7h13.7l17.4,3.7l33.6-6.2l31.1,16l5-6.2l14.9,4.9l16.2,9.9
		h11.2l5-4.9l8.7,2.5l18.6-9.9v9.9l6.2,1.2l3.7,7.4l18.6-4.9l7.5,1.2l-2.5,7.4l9.9,8.6l1.2,11.1l-6.2,7.4v3.7l13.7,13.5l-1.2,4.9
		l-3.7,1.2v3.7l7.5,3.7v9.9l-7.5,14.8v3.7l7.5,9.9l-12.4,2.5l-6.2,7.4l7.5,16l-7.5,2.5l7.5,11.1l-11.2,22.2L1187,712l-1.2,6.2
		l3.7,3.7l-5,3.7l-5-6.2h-9.9l-16.2-3.7l-5,4.9l5,4.9l-8.7,7.4l-17.4-13.5l-1.2-7.4l-9.9-1.2l-11.2,9.9l-11.2,6.2l1.2,9.9l-2.5,6.2
		l-7.5-4.9l-11.2,9.9l-9.9,2.5L1052.8,736.6L1052.8,736.6z"/>
	<g>
		<text transform="matrix(1 0 0 1 1070.2119 641.306)" class="st1 st2 st3">Sunamganj</text>
	</g>
</g>
<g>
	<path id="netrokona" inkscape:connector-curvature="0" class="st0" d="M933.5,746.5l-9.9-3.7l-1.2-8.6l-8.7,3.7l-2.5-12.3
		l-11.2-6.2l-6.2-8.6l-1.2-12.3l8.7-8.6l-11.2-6.2v-7.4l5,1.2l5-7.4l-13.7-4.9l-2.5,4.9h-12.4l-8.7-8.6h-11.2l5-6.2l-5-4.9v-12.3
		l-8.7-1.2l-5-13.5h-3.7l1.2-4.9l-1.2-11.1l-11.2-7.4h13.7l2.5-6.2l5,14.8h6.2l2.5-11.1l3.7-6.2h6.2l5-9.9l-11.2-11.1l7.5-3.7
		l-2.5-7.4l5-8.6l6.2-14.8l9.9,1.2l3.7,3.7l21.1-13.5l7.5,11.1l32.3,1.2l3.7-3.7l9.9,4.9l16.2-13.5l1.2,6.2l-3.7,1.2l-1.2,23.4
		l5,4.9l-2.5,2.5l-7.5,1.2l-2.5,6.2l9.9,2.5l-5,6.2l-1.2,12.3l6.2,11.1v17.2l14.9,3.7l9.9,9.9l23.6,1.2l6.2,9.9v11.1l5,9.9l5-9.9
		l6.2-1.2l5,8.6l-3.7,9.9l-8.7,2.5v12.3l6.2,3.7l7.5,1.2l9.9,3.7l5,6.2l3.7,4.9l-7.5,8.6l-9.9,7.4l-13.7,1.2l-21.1,13.5l-3.7-6.2
		l-14.9-3.7l-11.2,7.4l-8.7-1.2l-17.4,1.2h-14.9L933.5,746.5L933.5,746.5z"/>
	<g>
		<text transform="matrix(1 0 0 1 903.8042 654.6597)" class="st1 st2 st3">Netrokona</text>
	</g>
</g>
<g>
	
		<path id="kishoreganj" inkscape:connector-curvature="0" sodipodi:nodetypes="cccccccccccccccccccccccccccccccccccccccccccccccccccccccccccccccccccscccccccccccccccc" class="st0" d="
		M887.5,862.2l-13.7-12.3l-3.7-13.5l-2.5-7.4l-1.2-9.9l8.7-4.9l1.2-16L851.5,781l3.7-4.9v-6.2l9.9,1.2l9.9,8.6l8.7-1.2l8.7-12.3
		l6.2,6.2l5-12.3l9.9,8.6l11.2-4.9l8.7-12.3l6.2-9.9l27.3-4.9l-17.4,2.5l13.7-2.5h16.2l8.7,2.5l12.4-8.6l12.4,2.5l5,8.6l13.7-8.6
		l7.5-6.2h13.7l-2.5,9.9l11.2,12.3v8.6l-3.7,6.2l-1.2,3.7l-17.4,9.9l9.9,2.5l2.5-3.7l8.7,2.5l5,9.9l-1.2,6.2l-8.7,4.9l12.4,8.6
		l2.5,7.4l-8.7,1.2l-3.7,4.9l6.2,4.9v4.9v2.5l-8.7,2.5l-14.9,1.2l-3.7,6.2l7.5,3.7l2.5,4.9l-6.2,3.7l-14.9,3.7l-14.9,3.7l-3.7,9.9
		l-16.2-1.2l-12.4,12.3v3.7l7.5,8.6l9.9,2.5l2.5,8.6l-2.5,6.2l-6.2,4.9c0,0,7.5,3.7-1.2,6.2c-8.7,2.5-11.2,3.7-11.2,3.7l-6.2-6.2
		l-3.7-8.6l-11.2,1.2l-7.5-8.6h-9.9l-1.2-9.9l7.5-6.2l-14.9-3.7L926,877l-8.7-1.2l-6.2-12.3l-7.5-7.4l-3.7,1.2l-2.5,2.5L887.5,862.2
		L887.5,862.2z"/>
	<g>
		<text transform="matrix(1 0 0 1 913.6307 832.8011)" class="st1 st2 st3">Kishoreganj</text>
	</g>
</g>
<g>
	<path id="mymenshingh" inkscape:connector-curvature="0" class="st0" d="M755.8,847.5l-11.2-4.9l-9.9-20.9l5-4.9v-12.3l-12.4-18.5
		l2.5-8.6l8.7-2.5l-18.6-9.9l-7.5-7.4l-9.9-17.2l1.2-7.4l7.5-8.6v-6.2l-11.2-16l1.2-20.9l-11.2-1.2l-3.7-9.9l12.4-2.5l11.2,2.5
		l11.2-13.5v-12.3l6.2-3.7l8.7,2.5l8.7-11.1l-8.7-6.2v-7.4l7.5,2.5l7.5-1.2l-9.9-4.9l-5-11.1l5-7.4l-6.2-6.2l8.7-12.3l12.4,4.9
		l5-9.9l-9.9-3.7l-5-6.2v-6.2v-24.6l-1.2-4.9l6.2-1.2l6.2,4.9h11.2l3.7,7.4l26.1,4.9l12.4-4.9l14.9-6.2l16.2,2.5l6.2-3.7l9.9,4.9
		l8.7-7.4l6.2,3.7l-2.5,6.2l-6.2,17.2l-1.2,9.9l-6.2,4.9l9.9,11.1l-1.2,7.4l-8.7,1.2l-5,7.4l-2.5,9.9l-5,1.2l-5-13.5l-3.7,4.9
		l-7.5-2.5l-3.7,2.5l9.9,7.4l2.5,9.9l-2.5,7.4h2.5l6.2,12.3h8.7l-1.2,13.5l6.2,4.9l-3.7,4.9h8.7l8.7,7.4l12.4,2.5l5-3.7l11.2,3.7
		l-2.5,7.4l-6.2-1.2l2.5,8.6l5,2.5l2.5,2.5l-6.2,7.4l-1.2,12.3l9.9,8.6l8.7,4.9l2.5,16l7.5-4.9l1.2,4.9l9.9,6.2l2.5,4.9l-7.5,12.3
		l-8.7,8.6l-8.7-3.7l-5-8.6l-7.5,14.8l-5-9.9l-7.5,13.5l-9.9,1.2l-8.7-7.4h-11.2l-3.7,9.9l11.2,8.6l12.4,7.4l-1.2,16l-6.2,4.9
		l-1.2,11.1l6.2,13.5l3.7,7.4l-8.7-2.5l-11.2,4.9H844l-9.9-7.4l1.2-7.4l-17.4-6.2l-1.2-4.9l-12.4-1.2l-5,19.7l-5-2.5l-6.2,2.5
		l-7.5-8.6l-3.7,7.4L755.8,847.5L755.8,847.5z"/>
	<g>
		<text transform="matrix(1 0 0 1 747.1693 718.3436)" class="st1 st2 st3">Mymensingh</text>
	</g>
</g>
<g>
	<path id="sherpur" inkscape:connector-curvature="0" class="st0" d="M681.2,644.3l-1.2-8.6l-19.9-4.9l-17.4-6.2l2.5-7.4l-6.2-7.4
		l-6.2,1.2l-1.2-7.4l-6.2-8.6l-3.7-9.9l8.7,1.2v-6.2l7.5-4.9l1.2-6.2l-8.7-7.4l-2.5-8.6l6.2-7.4l1.2-9.9l-9.9,1.2l-3.7-7.4l9.9-7.4
		l2.5-17.2l5,6.2l5-4.9v-18.5l8.7,7.4l12.4,7.4l6.2,3.7l16.2,6.2l13.7,3.7l18.6,2.5l13.7,6.2h8.7l3.7,6.2v11.1l1.2,13.5l-2.5,8.6
		l14.9,7.4l-5,8.6l-12.4-2.5l-8.7,12.3l7.5,6.2l-5,7.4l3.7,9.9l8.7,4.9l-5,2.5l-7.5-2.5l1.2,6.2l6.2,4.9l-6.2,12.3l-16.2-1.2
		l-9.9-4.9l-13.7-6.2L681.2,644.3L681.2,644.3z"/>
	<g>
		<text transform="matrix(1 0 0 1 657.61 572.8501)" class="st1 st2 st3">Sherpur</text>
	</g>
</g>
<g>
	<path id="gazipur" inkscape:connector-curvature="0" class="st0" d="M697.4,937.4l19.9-17.2l-2.5-9.9h5v-7.4l7.5,7.4l7.5-1.2
		l-1.2-20.9l3.7-13.5l17.4-7.4l-2.5-11.1l11.2-4.9l-3.7-3.7l7.5-2.5l8.7-1.2l3.7-7.4l7.5,8.6l7.5-1.2l5,3.7l3.7-20.9l12.4-1.2
		l3.7,4.9l14.9,6.2v6.2l9.9,9.9h11.2l2.5-3.7h9.9l13.7,8.6l7.5,3.7l-7.5,4.9l1.2,11.1l5,9.9l-3.7,8.6l-1.2,7.4l7.5,7.4l-13.7,2.5
		l-5-4.9l-3.7,3.7l5,2.5l2.5,23.4l-6.2,14.8l-6.2,1.2l3.7,6.2l-7.5,12.3l-9.9,7.4l-6.2-4.9l-12.4-14.8l-1.2,6.2l-7.5-1.2l-9.9,20.9
		l-6.2-4.9l-5,3.7l-9.9,2.5l-7.5-7.4l-9.9,2.5v-24.6h-17.4l-9.9-3.7l8.7-9.9l-6.2-9.9l-3.7-1.2l-7.5,13.5l-3.7-7.4l-9.9,4.9
		l-8.7,4.9L697.4,937.4L697.4,937.4z"/>
	<g>
		<text transform="matrix(1 0 0 1 777.9601 917.6649)" class="st1 st2 st3">Gazipur</text>
	</g>
</g>
<g>
	<path id="shariatpur" inkscape:connector-curvature="0" class="st5" d="M821.7,1262.5l-9.9,1.4l-6.2,11.6l5,10.1l13.7-1.4l9.9,11.6
		l5-7.2l-2.5-13l-5-8.7L821.7,1262.5z M800.8,1283.7l-17.6,5.2l-10.5,7l-3.5,8.7l-12-9l-9.1-11.9l5.3-10.4l7-10.4l-10.5-10.4
		l-8.8-15.7l-12.3-8.7l-5.3-22.6l15.8-12.2l12.3-22.6l10.5-15.7l17.6,1.7l15.8,12.2l7,12.2h14.1h12.3l5.3,12.2l1.8,12.2l5.3,19.2
		l-7,15.7l-10.3,7.9l6.7,10.5l-22.8,5.9L800.8,1283.7L800.8,1283.7z"/>
	<g>
		<text transform="matrix(1 0 0 1 741.4977 1224.4865)" class="st1 st2 st3">Shariatpur</text>
	</g>
</g>
<g>
	
		<path id="madaripur" inkscape:connector-curvature="0" sodipodi:nodetypes="cccccccccccccccccccccccccccccccccccccccccccc" class="st0" d="
		M699.9,1134.4l16.2,1.2l9.9,8.6l11.2,4.9l24.9,7.4l-5,8.6l-17.4,28.3l-16.2,11.1l3.7,22.2l14.9,11.1l7.5,17.2l12.4,8.6l-13.7,18.5
		l9.9,8.6l3.7,7.4l-6.2,4.9h-13.7l-14.9-3.7l1.2-16l1.2-14.8l-6.2-2.5l-3.7,6.2h-16.2l-9.9-6.2v-4.9l6.2-2.5l-11.2-7.4l-9.9,8.6
		l-12.4-9.9h-7.5l-7.5,9.9l-11.2-7.4l7.5-18.5l14.9,1.2l-2.5-7.4l11.2-6.2l3.7-16l-6.2-11.1l6.2-12.3l17.4,7.4l6.2-25.9l-5-9.9
		l6.2-4.9L699.9,1134.4L699.9,1134.4z"/>
	<g>
		<text transform="matrix(1 0 0 1 668.795 1242.381)" class="st1 st2 st6">Madaripur</text>
	</g>
</g>
<g>
	
		<path id="dhaka" inkscape:connector-curvature="0" sodipodi:nodetypes="cccccccccccccccccccccccccccccccccccccccccccccccccccccccccccccccccc" class="st0" d="
		M667.6,1071.6l6.2-7.4v-12.3l21.1-2.5l7.5-4.9l27.3,6.2l-6.2-22.2l12.4-11.1l-21.1-6.2l-6.2-1.2l-12.4-23.4l-9.9-4.9l-3.7-16
		l-13.7-8.6l9.9-7.4l-21.1-2.5l1.2-6.2v-7.4l9.9,7.4l11.2-8.6l14.9,7.4l11.2-4.9l7.5,12.3l9.9-4.9l9.9-2.5l3.7,6.2l6.2-18.5
		l11.2,17.2l-9.9,8.6l8.7,2.5l18.6,2.5l1.2,23.4l9.9-2.5l6.2,6.2h8.7l6.2-4.9h6.2l1.2,9.9v8.6l-2.5,7.4l11.2,32l5,4.9l-5,2.5
		l-21.1,9.9l8.7,14.8l-3.7,13.5l-11.2-9.9l-3.7,6.2l-3.7,16l-8.7-2.5l5-14.8l-11.2-6.2l-6.2-7.4l-18.6-3.7l-7.5,11.1l-1.2,6.2
		l-1.2,17.2l-6.2,7.4l-8.7-4.9l-1.2,9.9l-3.7,6.2l-12.4-6.2l-1.2-11.1l-3.7-12.3l-9.9-6.2L667.6,1071.6L667.6,1071.6z"/>
	<g>
		<text transform="matrix(1 0 0 1 744.8835 1019.8777)" class="st1 st2 st3">Dhaka</text>
	</g>
</g>
<g>
	
		<path id="manikganj" inkscape:connector-curvature="0" sodipodi:nodetypes="ccccccccccccccccccccccccccccccccccccccccccccc" class="st0" d="
		M586.8,934.9l-19.9,6.2l-12.4,1.2l1.2,12.3l11.2,13.5l14.9,13.5l1.2,7.4l5,6.2l-1.2,12.3l13.7,18.5l14.9,9.9l14.9,3.7l6.2,7.4
		h-13.7l9.9,9.9l6.2-3.7l6.2,12.3l22.4,6.2l7.5-6.2v-13.5l16.2-2.5l11.2-4.9l28.6,4.9l-7.5-20.9l12.4-13.5L711,1010l-8.7-11.1
		l-6.2-13.5l-8.7-4.9l-6.2-16l-12.4-6.2l9.9-8.6l-23.6-1.2l-2.5-9.9l-6.2-2.5L634,948.5l-3.7-2.5l-8.7,9.9l-3.7-6.2l-5,11.1
		l-7.5-2.5l-6.2-4.9l-3.7,4.9l-5-7.4L586.8,934.9L586.8,934.9z"/>
	<g>
		<text transform="matrix(1 0 0 1 613.5486 1013.6294)" class="st1 st2 st3">Manikganj</text>
	</g>
</g>
<g>
	
		<path id="tangail" inkscape:connector-curvature="0" sodipodi:nodetypes="ccccccccccccccccccccccccccccccccccccccccccccccccccccccccccccccccccccccccccccccccccccccccc" class="st0" d="
		M588,933.7l9.9-16l-1.2-14.8l-5-11.1l-7.5-2.5v-4.9l3.7-3.7l-3.7-4.9l2.5-14.8l1.2-22.2l-17.4-18.5l8.7-11.1l-17.4-16l11.2-12.3
		l2.5-14.8l-8.7-7.4l8.7-6.2l3.7,2.5l6.2-9.9l11.2,3.7l1.2-6.2l5-8.6l3.7-6.2l2.5-6.2l5-3.7l6.2-8.6l6.2,1.2v-4.9l-8.7-7.4l-1.2-6.2
		l1.2-6.2l3.7,4.9l12.4-7.4l1.2-7.4l7.5,3.7l9.9,13.5l14.9-22.2l12.4-4.9l7.5,3.7l1.2,11.1h11.2v20.9l9.9,14.8v6.2l-6.2,8.6
		l-1.2,7.4l8.7,19.7l26.1,16l-6.2,2.5l-3.7,8.6l11.2,19.7l1.2,8.6l-3.7,6.2l8.7,22.2l8.7,3.7l6.2,2.5l2.5,3.7l-9.9,4.9v11.1
		l-7.5,2.5l-6.2,4.9l-5,13.5l1.2,18.5L726,909l-5-4.9l-1.2,6.2H716l1.2,8.6l-13.7,13.5l-9.9,6.2h-3.7l-11.2-7.4l-7.5,7.4h-3.7
		l-7.5-4.9v8.6l-6.2,6.2l-2.5-9.9l-5-2.5l-11.2,12.3l-7.5,2.5l-6.2,6.2l-3.7-7.4l-5,8.6h-7.5l-7.5-6.2l-2.5,3.7l-5-7.4L588,933.7
		L588,933.7z"/>
	<g>
		<text transform="matrix(1 0 0 1 635.6512 828.9986)" class="st1 st2 st3">Tangail</text>
	</g>
</g>
<g>
	
		<path id="jamalpur" inkscape:connector-curvature="0" sodipodi:nodetypes="cccccccccccccccccccccccccccccccccccccccccccccccccccccccccccccccccccccccccccccccccccccccccccccccccccc" class="st0" d="
		M544.5,556.8l17.4-18.5l-1.2-11.1l8.7-9.9l8.7,1.2l7.5-9.9l-1.2-12.3l-6.2-11.1v-20.9l12.4-8.6l-6.2-3.7v-8.6l13.7,9.9l-3.7,19.7
		l7.5,7.4l-1.2,9.9l8.7,6.2h8.7l6.2-8.6l11.2,2.5l7.5-1.2v18.5l-2.5,2.5l-7.5-4.9l-3.7,17.2l-7.5,7.4l3.7,8.6l9.9-1.2l-1.2,6.2
		l-5,6.2l-1.2,9.9l11.2,8.6l-1.2,7.4l-8.7,4.9l1.2,4.9h-6.2v6.2l6.2,12.3l1.2,7.4l7.5-1.2l6.2,7.4l-2.5,7.4l8.7,3.7l28.6,7.4
		l2.5,8.6l16.2-13.5l23.6,11.1l-1.2,14.8l-11.2,12.3l-8.7-1.2h-19.9l-11.2,2.5l-18.6,22.2l-6.2-8.6l-2.5-3.7l-8.7-3.7v7.4l-9.9,6.2
		l-5-3.7l-3.7,7.4l3.7,7.4l7.5,4.9l-2.5,4.9l-3.7-1.2l-5,11.1h-6.2v8.6l-7.5,2.5v13.5l-6.2,2.5l-9.9-1.2v-11.1l-7.5-6.2l9.9-1.2
		l3.7-25.9l-9.9-11.1l7.5-1.2l1.2-8.6l-11.2-7.4l-5-1.2l-2.5,4.9l-7.5-8.6h3.7l2.5-6.2l-1.2-6.2l-8.7,1.2l-9.9-11.1l-1.2-9.9
		l6.2-1.2l-1.2-11.1l-5-6.2l1.2-6.2l-5-4.9l5-4.9v-11.1H542l7.5-8.6l-6.2-3.7l3.7-8.6L544.5,556.8L544.5,556.8z"/>
	<g>
		<text transform="matrix(1 0 0 1 561.916 629.0581)" class="st1 st2 st3">Jamalpur</text>
	</g>
</g>
<g>
	<path id="bagerhat" inkscape:connector-curvature="0" class="st0" d="M577.6,1306.3l14.1-5.2l-1.8,15.7l14.1,5.2l-8.8,8.7l1.8,8.7
		l12.3,8.7l15.8-5.2l10.5,12.2l1.8,24.4l-12.3,5.2l-7,3.5l-1.8,12.2h17.6l3.5,3.5v19.2l7,17.4l-5.3,8.7l7,22.6l-14.1-7l-10.5-5.2
		l-3.5,3.5l19.3,13.9v5.2h-5.3l-8.8,10.4v22.6l-10.5,17.4l-3.5,10.4l-1.8,20.9l10.5,15.7l3.5,19.2l-14.1,19.2l5.3,12.2l-1.8,22.6
		l7,19.2v10.4h-7v10.4l-24.6,15.7l-8.8-7l-21.1-1.7l-12.3,3.5l22.8,17.4l-5.3,10.4h-19.3l-14.1-3.5l8.8,17.4l-12.3,3.5l-14.1-5.2
		l5.3-12.2l-10.5-15.7v-13.9l-1.8-13.9l3.5-27.9l-3.5-15.7l8.8-24.4l1.8-29.6l-7-26.1l21.1-17.4l12.3-8.7l3.5-27.9l-14.1-27.9
		l-5.3-5.2v-12.2l-8.8-17.4l-3.5-22.6l15.8-26.1l7-20.9H546l12.3-13.9v-12.2l-7-5.2V1336l19.3,1.7l5.3-13.9L577.6,1306.3
		L577.6,1306.3z"/>
	<g>
		<text transform="matrix(1 0 0 1 545.075 1492.5579)" class="st1 st2 st3">Bagerhat</text>
	</g>
</g>
<g>
	<path id="gopalganj" inkscape:connector-curvature="0" class="st0" d="M591.7,1302l0.9-5.2l-12.3-7l-6.2-15.7l-17.6-17.4l12.3,0.9
		l7-17.4l1.8-9.6l-8.8-3.5l-10.5,7.8l-1.8-1.7l2.6-7.8v-4.4h5.3l15.8-10.4l1.8-7.8l-8.8-5.2l1.8-6.1l16.7,0.9l16.7-13.9l7.9,0.9
		l6.2,5.2l5.3-4.4l6.2,0.9l1.8,9.6l7.9-5.2l9.7-0.9l-5.3-9.6l5.3,0.9l7,10.4h4.4l2.6,7h3.5l3.5,13.1l-4.4,14.8l-11.4,6.1
		c0,0,3.5,7.8,0,7.8c-3.5,0-11.4,0-11.4,0l-5.3,19.2l10.5,6.1l4.4-7.8l6.2-3.5l11.4,7l4.4,4.4l9.7-8.7l11.4,6.1l-4.4,3.5l-0.9,8.7
		l11.4,3.5l-4.4,1.7v11.3h-9.7l-3.5,7.8l-10.5,4.4v7.8l-3.5,0.9v4.4l-7,5.2l-3.5,13.9l-3.5,5.2l-0.9,3.5l-8.8,1.7h-12.3l-1.8,9.6
		h-2.6l-9.7-6.1l-14.1,0.9l-12.3-7l-1.8-6.1l7.9-7l-13.2-8.7L591.7,1302L591.7,1302z"/>
	<g>
		<text transform="matrix(1 0 0 1 588.1223 1284.646)" class="st1 st2 st3">Gopalganj</text>
	</g>
</g>
<g>
	<path id="faridpur" inkscape:connector-curvature="0" class="st0" d="M491.5,1083.4l7.9,1.7l0.9,6.1l5.3,2.6l7.9-4.4l-8.8-5.2
		l3.5-4.4l13.2,5.2l1.8-5.2l4.4,0.9l2.6,10.4l7,0.9l14.1-13.9l2.6,14.8l12.3,1.7l2.6-7l3.5,6.1l7.9,0.9l3.5-6.1l-10.5-5.2v-20
		l8.8,3.5l1.8-6.1h12.3l0.9-6.1h2.6l7,1.7l2.6,7l25.5,5.2l8.8,10.4h7l4.4,10.4l27.2,4.4l15.8,11.3l7.9,13.9l0.9,16.5h-7l-0.9,13.1
		l-7,6.1l9.7,6.1l-4.4,11.3l-5.3,16.5l-6.2-2.6l-9.7-6.1l-4.4,12.2l-4.4-0.9l-0.9-6.1h-5.3l-6.2-9.6l-7.9-0.9l6.2,7.8l-7,0.9
		l-9.7,6.1l-0.9-9.6h-7.9l-5.3,4.4l-4.4-7l-7.9-0.9l-14.9,14.8l-20.2,0.9l-1.8,5.2l7.9,4.4l-0.9,4.4l-2.6,4.4l-11.4,9.6h-8.8
		l-4.4-5.2h-13.2l-4.4-7.8l8.8-9.6l-11.4-2.6l-2.6-9.6v-16.5l-6.2-4.4l5.3-5.2l14.1,10.4l-5.3-9.6l-9.7-14.8l0.9-12.2h-2.6l-4.4-7.8
		l-7-6.1l-21.1-0.9l-0.9-3.5l5.3-4.4h6.2l0.9-3.5l-9.7-8.7L491.5,1083.4L491.5,1083.4z"/>
	<g>
		<text transform="matrix(1 0 0 1 564.9837 1142.4471)" class="st1 st2 st3">Faridpur</text>
	</g>
</g>
<g>
	<path id="khulna" inkscape:connector-curvature="0" class="st0" d="M432.7,1719.4l-2.5,22.2l13.7,8.6l3.7-13.5L432.7,1719.4
		L432.7,1719.4z M444.5,1394.9l-4.3,1.8l-1.9,9.2l-6.2-3.1l-2.5-6.8l-6.8,11.1l5,5.5l8.1,0.6l3.1,7.4l-7.5,9.9l-6.2-10.5l-8.1,7.4
		l-0.6,26.5l11.8,23.4l-11.8,6.2l-1.2,22.8l11.8,9.2l-6.8,4.3l-0.6,6.8l13,20.9l-5.6,29.6l-17.4,31.4l20.5-0.6l-8.1,8.6l21.7,46.2
		l5,12.3l8.1,2.5l0.6,8l-13,2.5l-9.9,16.6l5.6,4.9l3.7,11.1h5.6l1.9,9.9l3.7,12.3l15.5,1.2l9.3-14.2l5-3.1l5-9.2l-2.5-5.5l-3.1-7.4
		l-11.8-7.4l9.3-4.9l16.8-17.2l1.2-13.5l0.6-15.4h5l8.7-32l0.6-25.2l-5.6-23.4l16.8-16.6l3.7-8l5.6-1.2l7.5-12.3v-15.4l-11.2-32.6
		l-6.2-3.1v-14.8l-8.7-18.5l-2.5-20.9l5-11.7l9.9-9.9l6.2-21.6l5-4.3l4.3,3.1l9.3-9.2l4.3-8.6l-1.9-9.9l-3.7-3.7v-8l13-0.6l8.1-6.8
		l5-25.9l-28.6-9.9l-12.4,11.1l-14.3-8.6l-6.2,8l-6.2,3.7l-14.3-1.8l-5.6-3.7l-9.9-19.1l-9.3,3.7l3.1,9.9l-9.3,11.1l-15.5,7.4
		l-1.9,4.9l5,5.5l-1.2,24l-14.3-6.8l1.2-6.2l-5.6-2.5l-0.6,4.3l-11.2,9.9l-8.1-1.2l8.7,14.8l12.4,5.5l9.3,16L444.5,1394.9
		L444.5,1394.9z"/>
	<g>
		<text transform="matrix(1 0 0 1 448.8239 1522.4299)" class="st1 st2 st3">Khulna</text>
	</g>
</g>
<g>
	<path id="satkhira" inkscape:connector-curvature="0" class="st0" d="M354.4,1667.6l-11.2,4.9l2.5,9.9l7.5,11.1l-6.2,20.9l1.2,7.4
		l9.9,2.5l11.2,16l9.9,1.2l3.7-7.4l-1.2-7.4l-5-6.2l-8.7-1.2l-8.7-7.4l1.2-20.9L354.4,1667.6L354.4,1667.6z M333.2,1306.8l8.7,11.1
		l-6.2,7.4l-7.5-4.9l-9.9,1.2l-5-4.9l-11.2,6.2l2.5,9.9l7.5,8.6l3.7-6.2l5,2.5l-1.2,6.2l5,2.5l-1.2,7.4l-7.5,7.4l5,4.9l-5,1.2
		l-1.2,11.1l-7.5-3.7l2.5,11.1l9.9,13.5l-11.2,20.9l12.4,8.6l-2.5,7.4l-2.5,9.9l11.2,8.6l-2.5,11.1l7.5,12.3l1.2,13.5l5,3.7
		l-11.2,3.7l1.2,7.4l5,3.7l-5,20.9l12.4,1.2l2.5,9.9l-9.9-2.5v6.2l7.5,8.6l7.5,1.2v11.1l8.7,7.4l1.2,16l11.2-2.5l-8.7,12.3h-11.2
		l-1.2,9.9l3.7,12.3l11.2,19.7l-3.7,2.5l-1.2,29.6l8.7,11.1l1.2,16l1.2,8.6l14.9,7.4l11.2-4.9l7.5,14.8l-2.5,6.2l7.5,7.4l-5,11.1
		l-11.2,12.3l14.9,6.2l14.9-3.7l-2.5-6.2h8.7l1.2-7.4l-6.2-3.7l5-7.4v-24.6l-5-2.5l10.6-8.6l8.1-23.4l7.5-7.4l-3.7-11.1l-9.9-18.5
		l-9.9-19.7l-3.7-8.6l8.7-8.6h-21.1l12.4-17.2l6.2-13.5l5-30.8l-12.4-19.7v-6.2l7.5-6.2l-12.4-8.6l1.2-23.4l11.2-6.2l-11.2-20.9
		l1.2-28.3l7.5-8.6l6.2,11.1l7.5-9.9l-2.5-6.2l-7.5-1.2l-5-4.9l5-9.9l2.5,4.9l6.2,2.5l2.5-8.6l6.2-3.7l-1.2-6.2l-11.2-18.5
		l-12.4-6.2l-6.2-11.1l-2.5-3.7l-9.9,7.4l-8.7,1.2l-7.5-7.4l-3.7,2.5l-5-11.1l7.5-2.5l-11.2-11.1l9.9,2.5l-5-14.8l-7.5-4.9l-1.2,8.6
		h-19.9L333.2,1306.8L333.2,1306.8z"/>
	<g>
		<text transform="matrix(1 0 0 1 343.1876 1459.5166)" class="st1 st2 st3">Satkhira</text>
	</g>
</g>
<g>
	<path id="narail" inkscape:connector-curvature="0" class="st0" d="M476.2,1209.5l-6.2-8.6l9.9-1.2l9.9-9.9l3.7-3.7l7.5,11.1
		l8.7-3.7l6.2-8.6h13.7l3.7,9.9h9.9l1.2,2.5l-8.7,9.9l3.7,7.4h13.7l6.2,7.4v4.9l-3.7,6.2l3.7,1.2l8.7-6.2l9.9,1.2l-1.2,8.6l-3.7,8.6
		l-5,9.9h-6.2l-9.9-2.5l16.2,13.5l5,7.4l5,12.3l13.7,8.6v6.2l-3.7,1.2l-11.2,2.5l-28.6-11.1l-9.9,11.1l-16.2-8.6l-5,7.4h-3.7
		l-13.7-16l5-7.4l-3.7-7.4l-12.4-1.2l-6.2-6.2l2.5-9.9l-5-1.2l-11.2,11.1l2.5-9.9l-1.2-7.4l-7.5-2.5l13.7-2.5l-2.5-11.1l5-4.9
		L476.2,1209.5L476.2,1209.5z"/>
	<g>
		<text transform="matrix(1 0 0 1 494.1852 1253.2007)" class="st1 st2 st3">Narail</text>
	</g>
</g>
<g>
	
		<path id="jessore" inkscape:connector-curvature="0" sodipodi:nodetypes="ccccccccccccccccccccccccccccccccccccccccccccccccccccccsccccccccccccccccccccccccccccccccccccccccccccccccccccccccccccc" class="st0" d="
		M307.1,1209.5l9.9-17.2l-9.9-8.6h7.5l12.4,6.2h13.7l-16.2-12.3l6.2-4.9l17.4,1.2l-8.7-9.9l3.7-6.2l2.5,4.9l14.9,4.9l-6.2,4.9
		l3.7,9.9l11.2,1.2l5,14.8l14.9-2.5l16.2-3.7l-5-9.9l1.2-4.9l6.2,4.9l7.5-6.2l-2.5-7.4l5-2.5l16.2,11.1l6.2-1.2l1.2,6.2l7.5,7.4
		l6.2,1.2l3.7-4.9l6.2,8.6l11.2,3.7l-3.7,6.2l6.2,3.7l-3.7,3.7l1.2,14.8l-3.7,4.9l2.5,11.1l-11.2,1.2v3.7l6.2,2.5l1.2,4.9l-3.7,1.2
		l1.2,8.6l11.2-7.4h3.7l-1.2,12.3l7.5,2.5v2.5H501l2.5,3.7l-2.5,8.6l7.5,12.3c0,0,6.2,8.6,1.2,8.6c-5,0-7.5,0-7.5,0l-8.7-2.5
		l-3.7-3.7l-6.2-14.8l-3.7-3.7l-8.7,6.2l2.5,8.6l-7.5,11.1l-16.2,7.4l-1.2,6.2l5,6.2l-1.2,16l-1.2,4.9l-13.7-6.2v-6.2l-5-1.2
		l-1.2,3.7l-11.2,9.9l-7.5-1.2l-11.2,6.2h-7.5l0,0l-8.7-6.2l-1.2,1.2l-5-3.7l-1.2-6.2l7.5-1.2l-8.7-11.1l7.5,1.2l1.2-3.7l-5-8.6
		l-9.9-6.2l-1.2,7.4H350l-8.1-6.2l-6.2-3.7l0,0l5,11.7l-5,4.9l-18.6-2.5l-5-5.5l-6.2,3.7h-5l3.7-7.4l-14.9-6.2l2.5-22.2l7.5-2.5
		l-3.7-6.2v-6.2l-5-3.7l9.9-16l12.4-4.9l-1.2-9.9l12.4-8.6l5,3.7l3.7-7.4l-5-2.5l-1.2-6.2l-11.2,8.6l-6.2-3.7L307.1,1209.5
		L307.1,1209.5z"/>
	<g>
		<text transform="matrix(1 0 0 1 371.1078 1261.3557)" class="st1 st2 st3">Jessore</text>
	</g>
</g>
<g>
	<path id="magura" inkscape:connector-curvature="0" class="st0" d="M420.2,1167.7l-6.2-3.7v-6.2l8.7-14.8l6.2,1.2l9.9-12.3v-14.8
		l-1.2-12.3l3.7-9.9h8.7l2.5-3.7l-6.2-1.2v-8.6h3.7v-4.9l-5-4.9l1.2-4.9l6.2,2.5l2.5-4.9l-1.2-7.4l1.2-3.7l16.2,1.2l2.5,6.2
		l12.4,9.9l3.7,12.3l5,6.2v8.6l5,6.2l5,2.5v4.9h-6.2l-5,3.7l1.2,3.7h18.6l9.9,6.2l2.5,8.6h3.7v13.5l8.7,13.5l2.5,7.4l-11.2-7.4
		l-5,4.9l6.2,2.5v16h-14.9l-6.2,11.1l-6.2,2.5l-8.7-11.1l-5,2.5l-7.5,9.9l-5,2.5h-2.5l-6.2-7.4l-3.7,1.2l-7.5-8.6h-1.2l-2.5,2.5
		h-6.2l-6.2-4.9l-1.2-7.4l-7.5,1.2L420.2,1167.7L420.2,1167.7z"/>
	<g>
		<text transform="matrix(1 0 0 1 446.0355 1147.6455)" class="st1 st2 st3">Magura</text>
	</g>
</g>
<g>
	
		<path id="jhenaidah" inkscape:connector-curvature="0" sodipodi:nodetypes="ccccccccccccccccccccccccccccccccccccccccccccccccccccccccccccccccccccccccccccccccccccccccccccccccccccccc" class="st0" d="
		M256.2,1162.7l14.9,3.7l7.5-4.9l5,6.2l9.9,1.2l1.2-13.5l8.7,1.2l16.2-9.9l-1.2-6.2l-9.9-6.2l5-2.5l2.5-17.2l-3.7-6.2l-6.2-3.7
		l7.5-3.7l14.9,6.2l1.2-6.2l-5-6.2l-1.2-3.7h7.5l9.9-17.2l-1.2-19.7l8.7-3.7l3.7-8.6h6.2v-4.9l-6.2-7.4l1.2-4.9l7.5,3.7v6.2l7.5,2.5
		l1.2,7.4h5l5-7.4l8.7,3.7l6.2-8.6h11.2l3.7-7.4l14.9,10.5l9.9,1.8l1.2,4.9l17.4,14.8l1.2,7.4l-2.5,3.7h-3.7l-2.5,4.9l3.7,3.7
		l1.2,4.9l-3.7,1.2v7.4l5,2.5l-1.2,2.5h-6.2l-6.2,9.9l1.2,13.5l-1.2,13.5l-3.7,6.2l-5,4.9l-6.2-1.2l-7.5,14.8l-1.2,8.6l5,1.2l-5,3.7
		v6.2l-6.2,6.2l-5-4.9l-2.5,3.7l3.7,9.9l-8.7,3.7l-21.1,3.7l-6.2-14.8h-9.9l-5-11.1l7.5-4.9l-12.4-4.9l-5-3.7l-3.7,3.7l7.5,9.9
		h-12.4l-9.9,4.9l7.5,7.4l7.5,3.7l-9.9,1.2l-16.2-4.9l-3.7,1.2l7.5,4.9l-3.7,8.6l-3.7,6.2l-1.2,6.2h-21.1l-12.4-6.2v8.6l-12.4-1.2
		l-2.5-6.2l-9.9-1.2l-6.2-3.7v-6.2l-7.5-4.9v-6.2l2.5-4.9l9.9-2.5l-1.2-6.2L256.2,1162.7L256.2,1162.7z"/>
	<g>
		<text transform="matrix(1 0 0 1 339.6101 1124.6616)" class="st1 st2 st3">Jhenaidah</text>
	</g>
</g>
<g>
	
		<path id="chuadanga" inkscape:connector-curvature="0" sodipodi:nodetypes="ccccccccccccccccccccccccccccccccccccccccccccccccccccccccccccc" class="st0" d="
		M216.4,1082.7l21.1-16l6.2,1.2l5-6.2l10.4-2.3l8.6-10.2l0.9-23.2l9.9-1.4l-2.4-10.9l7.5-6.2l6.2,4.9l2.6-11.2l6.1,6.2l14.3,1.2
		l-8.1,7.4l9.9,3.7l2.6,5.7l7.3,9.1l2.5-6.2l6.2-6.2l5,6.2l1.4,28l-0.2,16.4l-3.7,13.5l-3.2,4.3l-8,1.9v3.7l5,3.7l-1.2,6.2
		l-13.7-2.5l-7.5,2.5l5.8,1.4l4.1,8.4l-1.2,17.2l-6.2,2.5l7.2,4.1l2.7,5.7l-13.4,10.4l-11.5,0.4l-1.2,11.4h-8.7l-7.1-5.6l-7.8,3.1
		h-11.2l-3.7-3.7v-14.8l3.7-11.1l7.5,2.5l-1-8.2l2.9-7.3l-3.2-3.3l-6.2-0.9l5.4,5.3l-9.1,7l-5-4.9l1.2-4.9l-4.3-4l-9.4-4.7
		l-16.1-12.3l3.7-8.6L216.4,1082.7L216.4,1082.7z"/>
	<g>
		<text transform="matrix(1 0 0 1 232.7782 1089.5276)" class="st1 st2 st3">Chuadanga</text>
	</g>
</g>
<g>
	
		<path id="meherpur" inkscape:connector-curvature="0" sodipodi:nodetypes="cccccccccccccccccccccccccccccccccccccccccccccccccccc" class="st0" d="
		M250,950.9l14.9,16l1.2-12.3l7.5,7.4v7.4l3.7,4.9l7.5-7.4l8.7,13.5l-11.2,7.4l7.5,6.2l7.5-2.5l2.5,4.9l-8.7,3.7v2.5l-1.2,7.4
		l-6.2-3.7l-5,7.4l1.2,11.1l-11.2,1.2l0.3,23.4l-10.3,10.8l-9.6,1.5l-6.5,4.9l-5-1.2l-16.2,13.5l-2.5,3.7l-18,0.9l1.9-13.2l-8.7-2.5
		l-2.5-4.9l6.2-3.7l2.5-8.6l-6.2-2.5l1.2-13.5l6.2-6.2l-8.7-12.3l6.2,2.5l7.5-7.4v-2.5l-3.7-3.7l1.2-13.5l-2.5-2.5l7.5-3.7l6.2,2.5
		v7.4l4.3-5.4l7.5-0.4l13-13.9l8.1-0.9l2.8-7.4l-2.2-10.2L250,950.9L250,950.9z"/>
	<g>
		<text transform="matrix(1 0 0 1 211.2515 1022.2947)" class="st1 st2 st6">Meherpur</text>
	</g>
</g>
<g>
	
		<path id="rajbari" inkscape:connector-curvature="0" sodipodi:nodetypes="ccccccccccccccccccccccccccccccccccccccccccccccccccccccccccccccccccc" class="st0" d="
		M440.1,1007.6v-16l-6.2-4.9l7.5-3.7l17.4,1.2l9.9,1.2l6.2,7.4v8.6l2.5,8.6l18.6,11.1l-5-13.5l9.9-1.2l2.5,6.2l6.2,3.7l17.4-11.1
		l6.2,3.7l-1.2,6.2l6.2,7.4v-9.9l27.3-1.2l13.7,2.5l8.7,11.1l1.2,13.5l-11.2-8.6l-8.7-11.1h-29.8l-1.2,4.9h24.9l12.4,8.6l16.2,12.3
		l6.2,4.9l5,2.5l-6.2,2.5l-1.2,6.2H583l-1.2,6.2l-8.7-2.5v17.2l9.9,6.2l-2.5,6.2h-8.7l-2.5-6.2l-2.5,6.2l-12.4-1.2l-2.5-14.8
		l-14.9,13.5h-6.2l-2.5-11.1h-5l-2.5,4.9l-12.4-6.2l-2.5,4.9l7.5,4.9l-7.5,3.7l-5-1.2v-6.2l-9.9-1.2l-5-13.5l-12.4-8.6l-1.2-7.4
		l-17.4-1.2l-2.5,3.7l-14.9-13.5l-2.5-7.4l-3.7-7.4l8.7-8.6L440.1,1007.6L440.1,1007.6z"/>
	<g>
		<text transform="matrix(1 0 0 1 488.7386 1043.3843)" class="st1 st2 st3">Rajbari</text>
	</g>
</g>
<g>
	
		<path id="kushtia" inkscape:connector-curvature="0" sodipodi:nodetypes="ccccccccccccccccccccccccccccccccccccccccccccccccccccccccccccccccccccccccccccccccccccc" class="st0" d="
		M231.3,883.2H245l12.4,11.1l17.4,9.9l13.7,1.2l13.7,2.5l5-8.6l9.9,6.2h16.2l7.5,13.5l-2.5,11.1l3.7,11.1l5,1.2l6.2,1.2v7.4
		l11.2,4.9l3.7,9.9l5-6.2l6.2,3.7l7.5,8.6l17.4-1.2l-12.4-11.1l14.9-3.7l13.7,9.9l-9.9,3.7l1.2,7.4l11.2,8.6l7.5,4.9l7.5-1.2l5,2.5
		l-1.2,11.1l-1.2,17.2l-8.7,9.9l2.5,6.2h-8.7l-14.9-9.9l-3.7-1.2l-2.5,7.4h-11.2l-6.2,8.6l-7.5-2.5l-9.9,8.6l-1.2-11.1h-7.5l1.2-7.4
		l-8.7-2.5l-1.2,4.9l6.2,8.6l-8.7,2.5l-0.7,8.3l-9.2,4v-16l-1.2-11.1l-5-6.2l-5,3.7l-6.2,8.6l-6.2-14.8l-9.9-2.5l6.2-7.4l-11.2-2.5
		l-8.7-6.2l5-4.9v-4.9l-7.5,1.2l-5-3.7l8.7-4.9l-3.7-9.9l-5-6.2l-8.7,4.9l-3.7-12.3l-3.7-4.9h-3.7v9.9l-13.7-14.8h7.5l5-2.5
		l-7.5-7.4l-6.2,1.2l-3.7,2.5l-1.2-7.4l8.7-2.5l-11.2-6.2l7.5-3.7l-14.9-11.1L231.3,883.2L231.3,883.2z"/>
	<g>
		<text transform="matrix(1 0 0 1 304.8844 982.9334)" class="st1 st2 st3">Kushtia</text>
	</g>
</g>
<g>
	<path id="pabna" inkscape:connector-curvature="0" class="st0" d="M333.2,906.6V898l5-8.6l6.2,6.2l24.9-4.9l12.4-9.9l2.5-9.9
		l7.5,2.5l11.2-6.2l7.5-22.2l7.5,3.7l1.2-9.9l9.9-9.9l26.1,6.2l8.7,3.7v12.3l3.7,7.4l8.7-4.9l7.5,2.5l-5,3.7v9.9l5,3.7h11.2l5-6.2
		l5,8.6l-7.5,6.2h6.2v7.4L496,893l2.5,8.6l11.2,1.2l16.2,13.5l11.2-1.2l16.2,13.5l8.7,12.3l-12.4,2.5v7.4l-5,1.2l1.2,11.1l6.2,7.4
		l9.9-2.5l5,14.8h-5l-9.9-11.1l3.7,14.8l14.9,2.5l11.2,7.4l-11.2,3.7l-6.2,3.7l-14.9-1.2l-14.9-6.2l-17.4,4.9l-11.2,4.9l-29.8-18.5
		l-5-12.3l-14.9-16h-6.2l5,12.3l-6.2,7.4l-13.7-2.5l-8.7-12.3L414,950.9l-5-2.5h-17.4l-7.5-4.9h-13.7l-7.5-1.2l-9.9,8.6v-6.2
		l-9.9-3.7l-5-9.9l2.5-16L333.2,906.6L333.2,906.6z"/>
	<g>
		<text transform="matrix(1 0 0 1 432.4841 922.6994)" class="st1 st2 st3">Pabna</text>
	</g>
</g>
<g>
	<path id="sirajganj" inkscape:connector-curvature="0" class="st0" d="M426.5,826.5v-18.5l-6.2-4.9v-4.9l-8.7-7.4l33.6-40.6
		l-2.5-4.9H465l8.7,7.4h8.7l11.2-6.2l9.9,4.9l2.5-8.6l5,9.9l8.7,2.5V749h6.2l6.2-4.9l-9.9-6.2l5-4.9l-8.7-7.4l-7.5,1.2l-2.5-1.2
		l6.2-6.2l-6.2-3.7l3.7-13.5v-8.6l6.2,6.2l7.5-2.5l7.5,7.4l16.2-17.2L547,680l2.5-12.3l14.9,1.2l5,6.2l3.7,3.7l2.5-4.9h3.7l6.2,6.2
		l3.7,1.2l1.2,7.4l-7.5,1.2l-1.2,3.7l7.5,6.2v18.5l-2.5,9.9h-7.5l6.2,7.4l1.2,8.6l-6.2,3.7l-1.2,7.4l-5-1.2l-6.2,7.4l6.2,8.6v9.9
		l-8.7,6.2l-3.7,6.2l17.4,18.5l-7.5,7.4l1.2,4.9l8.7,6.2l6.2,9.9l-2.5,35.7l3.7,4.9l-3.7,3.7v4.9l3.7,1.2l5,4.9v3.7l3.7,3.7
		l-1.2,14.8l-8.7,17.2l-16.2,6.2h-8.7l-9.9-12.3l-14.9-11.1h-11.2L511,902.9l-12.4-2.5l-1.2-6.2l6.2-2.5l1.2-8.6l-5-2.5l3.7-2.5
		v-4.9l-5-6.2l-3.7,2.5l-11.2,2.5l-3.7-2.5V861l5-2.5c0,0,0-7.4-5-7.4s-6.2,0-6.2,0l-3.7,6.2h-2.5l-2.5-7.4v-9.9l-11.2-7.4l-9.9-2.5
		L426.5,826.5L426.5,826.5z"/>
	<g>
		<text transform="matrix(1 0 0 1 470.4369 818.2007)" class="st1 st2 st3">Sirajganj</text>
	</g>
</g>
<g>
	<path id="natore" inkscape:connector-curvature="0" class="st0" d="M289.7,904.1V898l12.4-1.2l-2.5-6.2l-16.2-2.5l5-4.9l-5-2.5
		l7.5-3.7l-5-7.4l19.9-7.4l-6.2-9.9V845l-12.4,1.2l-5-12.3l16.2-11.1l-2.5-39.4l12.4-8.6l-8.7-8.6h-7.5l11.2-7.4l12.4,2.5l5-9.9
		l-1.2-4.9h8.7l-1.2,6.2l7.5,6.2l9.9,1.2l8.7,1.2l11.2-7.4l1.2-13.5h-5v-11.1l9.9-12.3l8.7,14.8l5-12.3l5,2.5l7.5-7.4l3.7,4.9
		l-7.5,8.6l14.9,11.1l1.2-4.9l-5-6.2l6.2-6.2l11.2,2.5l7.5,6.2l7.5,6.2l3.7,8.6l3.7,3.7l-21.1,28.3l-12.4,14.8l7.5,3.7l2.5,7.4
		l6.2,3.7l1.2,23.4l-9.9,9.9v6.2l-6.2-1.2l-11.2,22.2l-8.7,4.9h-7.5l-3.7,8.6l-11.2,8.6l-22.4,4.9l-5-4.9l-3.7-1.2l-5,8.6v8.6
		l-14.9-1.2l-12.4-3.7l-5,6.2L289.7,904.1L289.7,904.1z"/>
	<g>
		<text transform="matrix(1 0 0 1 335.0641 815.5607)" class="st1 st2 st3">Natore</text>
	</g>
</g>
<g>
	<path id="bogra" inkscape:connector-curvature="0" class="st0" d="M322.1,683.7l-1.2-25.9l-5-3.7l9.9-8.6h7.5l3.7,8.6l1.2-8.6h3.7
		v7.4l8.7-11.1l6.2,6.2l14.9-12.3l-12.4-12.3l6.2,2.5l1.2-18.5l7.5,3.7l1.2,7.4l13.7,1.2v4.9h9.9l-1.2-7.4l-6.2-3.7v-7.4l6.2,1.2
		l7.5-19.7l8.7,4.9l-3.7-7.4h8.7l-6.2-8.6l12.4-7.4l1.2-8.6l-5-1.2l5-4.9l13.7,2.5l8.7,4.9l2.5,11.1l11.2,2.5l2.5-6.2l11.2,6.2
		l3.7-7.4l9.9,9.9l14.9,2.5l6.2,6.2h5l3.7-8.6l21.1-2.5l3.7,6.2l3.7,1.2l-3.7,9.9h5l2.5,8.6l-5,7.4l5,3.7l-2.5,6.2l5,7.4l1.2,8.6
		l-6.2,1.2v11.1l9.9,11.1h8.7l3.7,6.2l-2.5,3.7H552l-2.5,3.7v7.4H547v8.6l-12.4,17.2l-8.7-8.6l-6.2,3.7l-5-4.9v6.2l-5,4.9l-1.2,9.9
		l5,2.5l-2.5,6.2l1.2,2.5l7.5-1.2l7.5,6.2l-5,6.2l8.7,4.9l-5,6.2h-7.5l-1.2,4.9l-7.5-2.5l-5-7.4l-1.2,6.2H496l-3.7-4.9l-9.9,4.9
		l-8.7,1.2l-9.9-6.2l-24.9,1.2v-6.2l-6.2-8.6h-3.7l-7.5-7.4l-9.9-1.2l-5,3.7l2.5,9.9l-1.2,3.7l-13.7-11.1v-4.9l5-3.7l-2.5-6.2
		l-7.5,6.2l-3.7-3.7l-6.2,13.5l-8.7-17.2l6.2-7.4l-1.2-18.5l-6.2,6.2l-12.4-1.2l1.2-6.2l-11.2-18.5l-8.7,9.9l-3.7-4.9L322.1,683.7
		L322.1,683.7z"/>
	<g>
		<text transform="matrix(1 0 0 1 420.3614 659.1622)" class="st1 st2 st3">Bogra</text>
	</g>
</g>
<g>
	<path id="nawabganj" inkscape:connector-curvature="0" class="st0" d="M174.2,689.8l-7.5-6.2l-8.7-2.5l1.2-4.9l17.4,3.7l-3.7-7.4
		h-11.2l-11.2-4.9l6.2-7.4l-11.2-2.5l-5,4.9l-9.9-4.9l2.5-8.6l9.9,3.7l2.5-4.9l13.7,1.2l3.7-4.9l9.9-16L160.5,616l-3.7,11.1
		l-7.5,1.2l2.5-12.3l-7.5-8.6l-7.5-1.2l-3.7,8.6l-14.9-1.2l-2.5,9.9H112l-1.2,4.9h8.7v6.2l-5,7.4l-2.5-7.4l0,0l-6.2,6.2l-2.5-6.2
		l-7.5-4.9l-3.7,7.4l3.7-12.3L83.4,616l1.2-7.4l-8.7-1.2l-1.2,3.7h-9.9l-9.9,6.2l-1.2,6.2l6.2,6.2l2.5,17.2L40,661.5l2.5,9.9
		l-7.5-1.2l-3.7,3.7l-1.2,9.9l-1.2,8.6l-1.2,6.2l-6.2-1.2l-6.2,3.7l3.7,3.7l6.2,4.9l-1.2,4.9l13.7,8.6l-1.2,7.4l7.5,7.4L40,749
		l5,9.9l6.2,7.4h8.7l7.5,7.4l5,6.2l8.7-1.2l31.1,9.9h12.4v-6.2h-1.2l-6.2-9.9v-17.2l-6.2-7.4v-11.1l14.9-7.4l9.9-1.2l0,0l13.7-8.6
		l-1.2-9.9h26.1l2.5-2.5l-5-3.7l-5,2.5l-8.7-4.9L174.2,689.8L174.2,689.8z"/>
	<g>
		<text transform="matrix(1 0 0 1 50.66 702.2645)" class="st1 st2 st3">Nawabganj</text>
	</g>
</g>
<g>
	
		<path id="naogaon" inkscape:connector-curvature="0" sodipodi:nodetypes="ccccccccccccccccccccccccccccccccccccccccc" class="st0" d="
		M323.3,646.7v-8.6l12.4-1.2l-2.5-22.2l5-1.2l-1.2-25.9l-7.5-12.3H327l-5,6.2l-6.2,1.2l-6.2-11.1v-4.9h5l3.7-19.7h-13.7l7.5-2.5
		l-7.5-9.9l5-6.2l-9.9-1.2h-5l-16.2-9.9l-3.7,8.6l-8.7,6.2h-2.5l-6.2-7.4l-6.2,3.7l-14.9-8.6l-8.7-2.5l-2.5,4.9l-23.6-1.2l-6.2,12.3
		h-6.2v-7.4l-3.7-3.7l-3.7,4.9l-5-6.2h-7.5l-6.2-4.9l-2.5,4.9l-8.7,3.7l0,0l-1.2,9.9l9.9,4.9v3.7l-8.7,3.7v17.2l2.5,3.7l-6.2-1.2
		l-1.2,11.1l6.2,4.9l-5,6.2l-6.2,3.7v7.4l-6.2,1.2v4.9h8.7l7.5,7.4L153,627h3.7v-4.9l1.2-4.9h5l8.7,8.6v4.9l-8.7,14.8l-6.2,2.5
		l-9.9,1.2l-1.2,3.7l-11.2-2.5l-3.7,7.4l8.7,4.9l5-2.5h14.9l-5,7.4l6.2,2.5l12.4,1.2l3.7,7.4l-6.2,1.2l-6.2-2.5h-5l-1.2,3.7l8.7,2.5
		l7.5,3.7l1.2,3.7l6.2,3.7l13.7,3.7v8.6l6.2,2.5l7.5-9.9l6.2,8.6l-1.2,13.5l5,4.9l1.2-2.5h6.2l7.5-3.7l17.4-12.3h5l1.2,4.9l8.7-1.2
		l0,0l6.2,7.4l2.5-2.5h8.7l7.5,8.6l1.2-2.5l7.5-1.2l3.7,4.9v12.3l6.2,4.9l6.2,1.2l13.7,1.2v7.4l2.5,2.5h5l1.2-3.7v4.9h7.5l2.5,7.4
		l5-6.2l3.7,1.2l8.7-7.4v-12.3l-3.7-2.5v-8.6l9.9-14.8l3.7-6.2l-1.2-11.1l2.5-9.9l-6.2,4.9l-13.7,1.2l1.2-11.1l-8.7-14.8h-2.5
		l-9.9,9.9l-3.7-1.2l-11.2,9.9l-1.2-27.1l-5-2.5L323.3,646.7L323.3,646.7z"/>
	<g>
		<text transform="matrix(1 0 0 1 217.3503 645.6161)" class="st1 st2 st3">Naogaon</text>
	</g>
</g>
<g>
	
		<path id="joypurhat" inkscape:connector-curvature="0" sodipodi:nodetypes="cccccccccccccccccccccccccccccccccccccccccccccccccccccccccccccccc" class="st0" d="
		M335.7,636.9l-1.2-22.2l2.5-2.5l1.2-27.1l-7.5-7.4h-6.2l-2.5,4.9h-5l-5-9.9v-6.2l3.7-1.2l1.2-18.5l-7.5-1.2l3.7-2.5l-5-9.9l6.2-6.2
		l-1.2-8.6l2.5-17.2l14.9-4.9l5,1.2l11.2,8.6l13.7-2.5l6.2,8.6l17.4-2.5l13.7,4.9l-5,9.9l6.2,9.9l6.2,4.9l8.7,12.3l-1.2,3.7L424,563
		v4.9l-7.5,6.2l-5,2.5l5,7.4l-7.5,2.5l2.5,4.9l-7.5-3.7l-6.2,17.2h-5v9.9l3.7,3.7l-1.2,4.9l-6.2-1.2v-3.7h-13.7l-1.2-8.6l-8.7-3.7
		l-1.2,17.2h-3.7l1.2,4.9l7.5,4.9v3.7l-11.2,7.4l-3.7,2.5l-6.2-4.9l-6.2,7.4v-4.9h-6.2v4.9l-2.5-3.7h-8.7v-7.4L335.7,636.9
		L335.7,636.9z"/>
	<g>
		<text transform="matrix(1 0 0 1 324.0602 567.0776)" class="st1 st2 st3">Joypurhat</text>
	</g>
</g>
<g>
	
		<path id="gaibandha" inkscape:connector-curvature="0" sodipodi:nodetypes="cccccccccccccccccccccccccccccccccccccccccccccccccccccccccccccccccccccccccccccccccc" class="st0" d="
		M399.1,512.5l21.1,7.4l9.9-4.9l2.5-8.6l-9.9-13.5l28.6,1.2L440.1,483l8.7-1.2l-6.2-9.9l17.4-27.1l6.2-7.4l6.2,2.5l9.9-13.5
		l-8.7-4.9l1.2-11.1l-11.2-8.6l3.7-6.2l9.9-3.7l9.9,2.5l1.2,9.9l9.9-4.9l-6.2-8.6l14.9-8.6l9.9,13.5l8.7,6.2l5,11.1l3.7-7.4h7.5
		l9.9,8.6v4.9l6.2,6.2l-12.4,6.2l18.6,3.7l-3.7,3.7v11.1l2.5,2.5l-3.7,1.2v6.2l9.9,1.2l5-4.9v6.2l3.7,2.5v19.7l6.2,13.5l1.2,8.6
		l-8.7,12.3l-6.2-1.2l-8.7,7.4l-1.2,11.1l-8.7,12.3l-7.5,8.6v6.2l3.7,6.2l5,1.2l-6.2,3.7l-2.5,7.4l-2.5-4.9l-13.7-1.2l-11.2,3.7
		l-2.5,6.2h-6.2l-2.5-4.9l-18.6-3.7l-5-6.2l-3.7-1.2l-3.7,4.9l-6.2-3.7l-3.7-1.2l-2.5,4.9l-9.9-1.2l-3.7-12.3h-5l-3.7-3.7l-13.7-1.2
		l-5,6.2l-7.5-6.2v-3.7l-9.9-13.5h-3.7l-5-6.2l-2.5-6.2L399.1,512.5L399.1,512.5z"/>
	<g>
		<text transform="matrix(1 0 0 1 465.2246 488.6021)" class="st1 st2 st3">Gaibandha</text>
	</g>
</g>
<g>
	
		<path id="kurigram" inkscape:connector-curvature="0" sodipodi:nodetypes="ccccccccccccccccccccccccccccccccccccccccccccccccccccccccccccccccccccccccccccccccccccccccccccccccccccccccccccc" class="st0" d="
		M501,363.5v-8.6l-11.2-9.9l11.2-1.2l-7.5-7.4h-8.7l-3.7-11.1l8.7-7.4v8.6l6.2,4.9l11.2-9.9l1.2-16l16.2-13.5l-1.2-4.9l-11.2-1.2
		v-8.6l-5,3.7l-12.4-17.2h-9.9l3.7-22.2H506l2.5,4.9l-1.2,6.2l7.5,7.4l2.5-4.9l6.2-2.5v-6.2l-6.2-1.2l-1.2-11.1l13.7-9.9h11.2v-6.2
		l-3.7-2.5l-1.2-9.9l-3.7,1.2l-2.5,4.9l-2.5,3.7l-5-2.5l5-8.6l-2.5-4.9l-2.5-4.9v-6.2h5l7.5-8.6l2.5-6.2l-1.2-7.4l3.7-3.7h11.2
		l7.5,6.2l-5,4.9L552,180l-1.2,2.5l3.7,7.4l5-3.7h13.7l3.7,11.1l12.4,20.9l-5,2.5v7.4l7.5,2.5L598,249h12.4L598,260.1l12.4,3.7
		l8.7,3.7v3.7l-6.2,6.2l-11.2,9.9l1.2,13.5l-6.2,8.6l5,8.6l5,8.6l-7.5,7.4v7.4l6.2,1.2l-2.5,9.9l11.2,8.6v32l-6.2,12.3l-1.2,19.7
		l-2.5,11.1l-3.7,3.7l-1.2,13.5l-6.2-3.7l-8.7-4.9v7.4l5,3.7l-11.2,8.6l-5-1.2v-4.9l-2.5,2.5l-9.9-1.2v-6.2l5-2.5l-5-1.2v-6.2
		l3.7-9.9l-14.9-3.7l8.7-3.7l-5-7.4V414l-11.2-9.9h-8.7l-2.5,6.2l-3.7-9.9l-14.9-7.4l-5-13.5l-6.2-6.2V363.5L501,363.5z"/>
	<g>
		<text transform="matrix(1 0 0 1 517.6328 341.3323)" class="st1 st2 st3">Kurigram</text>
	</g>
</g>
<g>
	
		<path id="rangpur" inkscape:connector-curvature="0" sodipodi:nodetypes="cccccccccccccccccccccccccccccccccccccccccccccccccccccccccccccccccc" class="st0" d="
		M421.5,492.8V483l-16.2-11.1l3.7-6.2l-9.9-2.5v-4.9l-12.4-1.2l-9.9-8.6l6.2-1.2l-16.2-8.6l-9.9-45.6l-19.9-4.9l-8.7-19.7l-14.9-8.6
		l-5-19.7l12.4-12.3l-3.7-12.3l13.7-3.7l21.1,3.7l3.7-9.9l12.4,9.9l-1.2-14.8l12.4-12.3l5,9.9l14.9-22.2l18.6,12.3h8.7v8.6l13.7,4.9
		l5,11.1l19.9,12.3l2.5-4.9l14.9,7.4l3.7,3.7l-1.2,3.7l11.2,2.5l3.7,4.9l-11.2,4.9l9.9,3.7l3.7,4.9v8.6l-3.7,2.5v6.2l7.5,3.7
		l1.2,3.7l-5,3.7l-9.9,7.4l3.7,6.2l-6.2,3.7l-3.7-6.2l-7.5-2.5l-1.2,3.7l-9.9-1.2l-5,6.2l12.4,11.1l-1.2,8.6l7.5,4.9l-8.7,11.1
		l-8.7,1.2l-8.7,9.9l-12.4,23.4v2.5l3.7,6.2l-6.2,2.5l13.7,9.9L421.5,492.8L421.5,492.8z"/>
	<g>
		<text transform="matrix(1 0 0 1 373.6374 389.4684)" class="st1 st2 st3">Rangpur</text>
	</g>
</g>
<g>
	
		<path id="dinajpur" inkscape:connector-curvature="0" sodipodi:nodetypes="cccccccccccccccccccccccccccccccccccccccccccsccccccccccccccccccccccccccccccccccccccccccccccccccccc" class="st0" d="
		M218.9,231.7l-6.2,6.2l-2.5,9.9l-8.7,2.5l-7.5-11.1l-2.5,8.6h-8.7l-3.7,13.5l6.2,3.7v3.7l-7.5-1.2l-11.2,24.6l3.7,6.2l-2.5,3.7
		l-9.9,1.2l-1.2-7.4l-3.7,2.5l-13.7-2.5l2.5,12.3l-6.2-2.5l-1.2,11.1l6.2,3.7l-3.7,8.6l1.2,8.6l12.4,9.9v9.9l5,3.7l-1.2,11.1l-5,2.5
		v9.9l7.5,4.9H168v9.9l8.7,6.2l3.7,8.6l14.9,1.2l8.7-2.5l2.5,6.2l11.2,1.2v4.9l17.4,2.5l5-4.9l6.2-3.7c0,0,14.9,6.2,11.2,1.2
		s-3.7-13.5-3.7-13.5l7.5,7.4l7.5-7.4v12.3l6.2,2.5l5,11.1l-5,12.3l-6.2,3.7l7.5,3.7l1.2,9.9l16.2,16l3.7-6.2l3.7,4.9v4.9l31.1,2.5
		l3.7,4.9l-1.2,8.6l13.7,7.4l12.4-2.5l6.2,9.9l17.4-2.5l37.3,8.6l9.9-4.9v-8.6l-9.9-11.1l-1.2-11.1l-13.7-11.1l2.5-4.9l-3.7-2.5
		h-6.2l-1.2-7.4h-11.2l-7.5-8.6l3.7-2.5l-12.4-7.4l-8.7-34.5l-5-12.3l-18.6-3.7l-8.7-19.7l-17.4-11.1l-2.5-17.2l-13.7-3.7l-5-4.9
		l-7.5-1.2l3.7-13.5h-12.4l-1.2-29.6l-9.9-17.2l-11.2-2.5l-3.7-9.9v-11.1l-21.1-3.7L218.9,231.7L218.9,231.7z"/>
	<g>
		<text transform="matrix(1 0 0 1 217.3503 380.2323)" class="st1 st2 st3">Dinajpur</text>
	</g>
</g>
<g>
	
		<path id="lalmonirhat" inkscape:connector-curvature="0" sodipodi:nodetypes="ccccccccccccccccccccccccccccccccccccccccccccccccccccccccccccccccccscccccccccccccccc" class="st0" d="
		M340.7,144.3l-3.7-9.9l-9.9,7.4l-5-7.4l7.5-6.2l-3.7-6.2l-6.2-1.2l-3.7,3.7l-12.4-6.2l-2.5-11.1l12.4-18.5l11.2-3.7v7.4l3.7,2.5
		l11.2,3.7l7.5,7.4l16.2-1.2l3.7,8.6l-7.5,1.2l6.2,7.4l-6.2,7.4h14.9l5,8.6l-1.2,3.7h-7.5l-7.5-7.4v11.1l6.2,7.4l9.9,11.1l1.2,7.4
		l-3.7,3.7l11.2,22.2l19.9,3.7l9.9,9.9l1.2,7.4l-5,2.5l1.2,2.5l8.7,1.2l9.9,4.9l8.7,9.9l16.2,3.7l7.5-13.5l5,1.2l1.2,6.2l6.2,2.5
		l5,4.9l5-3.7l-2.5,23.4l9.9,1.2l13.7,14.8l2.5-1.2v7.4h11.2l1.2,3.7l-11.2,14.8l-6.2,1.2l1.2,14.8l-13.7,9.9l-3.7-1.2l-1.2-11.1
		l-3.7,1.2l-2.5,6.2l-9.9-1.2l-7.5-2.5l-1.2,2.5l-24.9-14.8c0,0,6.2-7.4,0-8.6c-6.2-1.2-12.4-4.9-12.4-4.9v-8.6l-7.5,1.2l-11.2-8.6
		l-12.4-4.9l-7.5-8.6l-15.9-5.2l-7.7-12l-6.2-28.3l3.7-18.5v-7.4l-19.9-12.3l1.2-24.6l9.9-3.7l-6.2-8.6L340.7,144.3z"/>
	<g>
		<text transform="matrix(1 0 0 1 381.8163 258.5176)" class="st1 st2 st3">Lalmonirhat </text>
	</g>
</g>
<g>
	
		<path id="thakurgaon" inkscape:connector-curvature="0" sodipodi:nodetypes="ccccccccccccccccccccccccccccccccccccccccccccccccccccccccccccccccccccc" class="st0" d="
		M54.9,322.9l-6.2-11.1l-7.5-9.9l5-11.1l-12.4-2.5l3.7-19.7l8.7-6.2l-1.2-7.4l5-9.9l14.9-9.9l5-13.5l-11.2-6.2l6.2-11.1l2.5-11.1
		l13.7-4.9v-12.3l18.6,2.5l13.7-3.7l18.6,12.3l3.7-9.9l12.7-2.6l10.9,3.9l9.9-1.2l24.9,6.2l9.9,11.1l8.7,3.7l12.4,14.8l-8.7,12.3
		l2.5,8.6l-6.2,6.2l-2.5,9.9h-8.7l-6.2-9.9l-3.7,7.4h-7.5l-3.7,13.5l5,4.9l-6.2,1.2l-7.5,12.3l-2.5,7.4l-3.7,7.4l5,6.2l-7.5,1.2h-5
		v-6.2l-16.2,1.2v9.9h-6.2l-1.2,12.3l7.5,3.7l-5,4.9v11.1l6.2,3.7l7.5,6.2l-1.2,8.6l-8.7,1.2l-7.5-7.4l-6.2-3.7v-4.9l-8.7-8.6h-7.5
		l-2.5-8.6l-13.7-7.4l1.2-6.2l-1.2-3.7l-11.2,3.7l-7.5,6.2l-6.2-7.4L54.9,322.9L54.9,322.9z"/>
	<g>
		<text transform="matrix(1 0 0 1 74.2658 266.7391)" class="st1 st2 st3">Thakurgaon</text>
	</g>
</g>
<path id="panchagarh" inkscape:connector-curvature="0" sodipodi:nodetypes="ccccccccccccccccccccccccccccccccccccccccccccccccccccccccccccscccccccsccccccccccccccccccccccc" class="st7" d="
	M120.7,87.6l-2.5-8.6l-2.5-6.2l6.2-8.6l5-11.1l5-14.8l9.9-14.8l2.5,16l1.2,8.6l9.9,9.9l9.9-2.5l2.5,8.6l9.9,2.5l1.2,7.4l9.9,3.7
	l1.2,4.9l9.9,2.5l6.2-7.4l3.7,9.9l5,6.2l7.5,4.9l2.5,4.9l6.2-2.5l3.7,3.7l-3.7,8.6l3.7,3.7l5,3.7v2.5l9.9-1.2v4.9l2.5,4.9h-16.2
	l1.2,11.1l-11.2,2.5l-1.2,4.9l9.9-1.2l8.7-3.7l8.7-7.4l6.2,4.9l-1.2,11.1l5,8.6l6.2,8.6l-2.5,8.6v12.3v11.1l-3.7,9.9l2.5,12.3
	l-6.2,8.6l-8.7,12.3L240,244l-13.7-1.2l-5-9.9l-6.2-4.9l7.5-13.5l-5-9.9l-6.2-7.4l-9.9-3.7l-5-4.9l-3.7-7.4l-6.2,2.5
	c0,0-1.6-1.2-5-2.5c-3.4-1.2-8.7-2.5-8.7-2.5l-6.2-2.5l-6.2,4.9l-9.9-2.5l-8.7-3.7l-7.5,4.9l-1.2,6.2c0,0-4-0.6-8.7-2.5
	c-4.7-1.8-9.9-4.9-9.9-4.9l-2.5-3.7l8.7-4.9l5-6.2l-3.7-7.4v-17.2l13.7-1.2l5-4.9l5-7.4l11.2-3.7l2.5-8.6l6.2,9.9l6.2-3.7l5-8.6
	l-5-6.2l-5-7.4v-8.6l-8.7-7.4L146.8,84l-6.2-9.9l-6.2,4.9l-7.5-1.2L120.7,87.6L120.7,87.6z"/>
<g>
	<text transform="matrix(1 0 0 1 143.0067 166.665)" class="st1 st2 st3">Panchagarh</text>
</g>
</svg>
