<?xml version="1.0" encoding="utf-8"?>
<!-- Generator: Adobe Illustrator 24.0.1, SVG Export Plug-In . SVG Version: 6.00 Build 0)  -->
<svg version="1.1"
	 id="svg1895" inkscape:output_extension="org.inkscape.output.svg.inkscape" inkscape:version="0.48.3.1 r9886" sodipodi:docname="BD_Districts.svg" sodipodi:version="0.32" xmlns:cc="http://creativecommons.org/ns#" xmlns:dc="http://purl.org/dc/elements/1.1/" xmlns:inkscape="http://www.inkscape.org/namespaces/inkscape" xmlns:rdf="http://www.w3.org/1999/02/22-rdf-syntax-ns#" xmlns:sodipodi="http://sodipodi.sourceforge.net/DTD/sodipodi-0.dtd" xmlns:svg="http://www.w3.org/2000/svg"
	 xmlns="http://www.w3.org/2000/svg" xmlns:xlink="http://www.w3.org/1999/xlink" x="0px" y="0px" width="807.6px"
	 height="1123.8px" viewBox="0 0 807.6 1123.8" style="enable-background:new 0 0 807.6 1123.8;" xml:space="preserve">
<style type="text/css">
	.st0{fill-rule:evenodd;clip-rule:evenodd;fill:#00962A;stroke:#FFFFFF;}
	.st1{fill:#FFFFFF;}
	.st2{font-family:'Calibri';}
	.st3{font-size:10.697px;}
	.st4{font-size:10.6974px;}
	.st5{font-size:6.4182px;}
	.st6{font-size:7.4879px;}
	.st7{fill-rule:evenodd;clip-rule:evenodd;fill:#00962A;stroke:#FFFFFF;stroke-linecap:round;stroke-linejoin:round;}
</style>
<path id="bandarban" inkscape:connector-curvature="0" class="st0" d="M727.2,895l-5.3,6.6l-9.3-4l-2.7-5.3l-8-11.9l4-5.3h6.6
	l2.7,5.3l9.3,1.3v-5.3l4-10.5l-4-6.6l-2.7-13.2l-1.3-6.6l-2.7-13.2l-2.7-9.2l2.7-13.2l8,2.6l8-4h13.3l8,5.3l12,6.6l6.6,14.5
	l6.6,18.5l-2.7,5.3l8,17.1l8,22.4l1.3,6.6l-1.3,14.5v9.2l-1.3,10.5l1.3,13.2l4,14.5l1.3,14.5l1.3,11.9l6.6,11.9l-6.6,2.6l-6.6,7.9
	l-4-2.6l-1.3-6.6l-4-9.2l1.3-5.3l-4-1.3l-4,2.6l-6.6,1.3l-8-2.6l-1.3-5.3l-5.3-13.2l-4-2.6l-5.3,6.6l-2.7,5.3l-5.3-1.3l-6.6,11.9
	l-4,1.3l-4,5.3l1.3,10.5l-4,9.2l-1.3-13.2l-4-10.5l-1.3-5.3l8-9.2l5.3,5.3l4-7.9l-5.3-10.5l-5.3-9.2l2.7-5.3l-6.6-6.6l-2.7-7.9
	l-4-10.5l6.6-6.6h10.6v-7.9h6.6v-4L727.2,895L727.2,895z"/>
<text transform="matrix(1 0 0 1 739.845 910.8837)" class="st1 st2 st3">Bandarban</text>
<path id="rangamati" inkscape:connector-curvature="0" class="st0" d="M682,751.4l-2.7-13.2l6.6-7.9l5.3-9.2l1.3-15.8l19.9-14.5
	l-1.3-7.9l-2.7-14.5l12-9.2l-2.7-10.5l-4-17.1v-9.2l-9.3-13.2l12-15.8l-5.3-13.2l-9.3-23.7l2.7-4l10.6-10.5h6.6l4,6.6l2.7,10.5
	l2.7-9.2l2.7-5.3l6.6,2.6l-4,9.2l2.7,9.2l2.7,6.6l2.7,23.7l6.6,9.2l4,7.9l-2.7,5.3l4,4l1.3,5.3l-9.3,6.6l1.3,10.5l1.3,9.2l1.3,6.6
	l5.3,6.6l-4,21.1l5.3,10.5l10.6,5.3l-2.7,6.6l4,15.8l8,7.9l1.3,10.5l2.7,13.2l-4,2.6l4,13.2l2.7,15.8l2.7,13.2v7.9l2.7,10.5
	l2.7,10.5v11.9l-6.6-2.6l4,14.5l5.3,21.1l4,13.2l-5.3,9.2l-2.7-6.6l-4-11.9l-4-13.2l-6.6-13.2l1.3-4l-2.7-10.5l-5.3-18.5l-5.3-5.3
	l-13.3-9.2l-17.3-4l-12,5.3l-8-6.6l-5.3-7.9l4-10.5l-1.3-10.5l-6.6-13.2l-8-11.9l-4,1.3l-5.3,7.9l4,10.5l-2.7,5.3l-5.3-6.6
	L682,751.4L682,751.4z"/>
<g>
	<text transform="matrix(1 0 0 1 705.9446 723.1669)" class="st1 st2 st3">Rangamati</text>
</g>
<path id="khagrachari" inkscape:connector-curvature="0" sodipodi:nodetypes="cccccccccccccccccccccccccccccccccccccccc" class="st0" d="
	M680.7,738.3l9.3-11.9v-9.2l4-13.2l18.6-13.2l-5.3-25l13.3-6.6l-2.7-11.9l-6.6-17.1l2.7-10.5l-9.3-9.2l13.3-15.8l-15.9-35.6l-8,1.3
	l-9.3-15.8h-4l-5.3,5.3l5.3,22.4l2.7,14.5l-4,5.3v7.9l-8-2.6l-9.3,7.9l-9.3,15.8l-4,11.9l6.6,11.9l1.2,16.6l-1.7,4.3l-4.9,0.2v4
	l-10.6,13.2l8,6.6l-2.7,5.3l1.3,5.3l8,17.1l8,10.5l1.3-5.3l9.3,1.3l1.3,7.9L680.7,738.3L680.7,738.3z"/>
<g>
	<text transform="matrix(1 0 0 1 656.4974 646.1826)" class="st1 st2 st3">Khagrachhari</text>
</g>
<path id="coxs_bazar" inkscape:connector-curvature="0" class="st0" d="M674,895l14.6-7.9l6.6-5.3l6.6-1.3l9.3,15.8l10.6,5.3l4-1.3
	l2.7-6.6l6.6,9.2v4h-6.6l-1.3,9.2h-12l-5.3,6.6l5.3,13.2l10.6,10.5l-4,6.6l6.6,10.5l5.3,6.6l-2.7,9.2h-5.3l-1.3-5.3l-9.3,10.5
	l2.7,11.9l5.3,9.2l1.3,9.2l-2.7,6.6l2.7,10.5l9.3,11.9v7.9l1.3,10.5l6.6,21.1l5.3,13.2l-1.3,6.6l-4-4l-5.3-14.5l-6.6-7.9l-5.3-9.2
	l-4-9.2v-7.9l-22.6-26.4l-2.7-21.1v-9.2l-4-9.2l-8-10.5l-1.3-5.3l6.6-7.9l1.3-9.2l2.7-7.9l2.7-11.9l-1.3-14.5l-5.3,11.9l-6.6-4
	l5.3,9.2l4,10.5l-6.6,13.2l1.3,1.3l-13.3-1.3l1.3,6.6h-8l-1.3-6.6l4-11.9l2.7-10.5l-6.6-5.3L674,895L674,895z M655.4,883.2l13.3-2.6
	l2.7,13.2l-4,11.9l-8,13.2l1.3-9.2l1.3-18.5L655.4,883.2L655.4,883.2z M738.5,1122c-0.7-2.8,0.3-3.9-2.1-6.3
	c-3.3-3.3,0.5-3.7,3.2-3.7C740.5,1112,738.6,1121.9,738.5,1122z"/>
<g>
	<text transform="matrix(1 0 0 1 675.6126 912.872)" class="st1 st2 st3">Cox&apos;s Bazar         </text>
</g>
<path id="chittagong" inkscape:connector-curvature="0" class="st0" d="M655.9,825.4l-5.6-3.7l-1.9-11.2l-1-10.3v-3.7l-6.6-10.3
	l-4.7-13.1l-7.5-6.5l-5.6-8.4l-3.7-7.4V748l-3.7-4.7l-4.7-3.7l-14.1-10.3l2.8-4.7l-6.6-6.5l1-5.6l2.8-11.2l9.4-3.7h3.7l1-9.3h7.5
	l6.6,1.9l3.7-4.7l11.3-2.8l5.6,2.8l1.9,5.6l-3.7,6.5l4.7,6.5l4.7,9.3l4.7,8.4l3.7,6.5V721h7.5l3.7,2.8v8.4l6.6,0.9l1.9,9.3l1,10.3
	l2.8,7.4l-1,6.5l6.6,4.7l1.9-4.7l1-4.7l-2.8-3.7l1-8.4l7.5-2.8l7.5,8.4l6.6,15.8l1.9,11.2l-6.6,12.1l10.3,7.4l-1.9,7.4l-1,4.7
	l2.8,11.2l1,4.7v4.7l2.8,4.7l-1.9,5.6l1.9,9.3l5.6,11.2l-2.8,5.6l-2.8,3.7l2.8,6.5l-6.6,1.9l-5.6-1.9l1.9-5.6h-8.5l-5.6,5.6
	l-10.3,1.9l-5.6,5.6l-9.4,5.6l-1.9-7.4l4.7-6.5l-7.5-6.5v-8.4l-5.6-7.4l-1.9-13.1l-4.7-4.7L655.9,825.4L655.9,825.4z M575.1,742.5
	l5.6,10.3l3.7,5.6v3.7l-1.9,0.9l-1.9,9.3l2.8,10.3l8.5,9.3l5.6,2.8v5.6l1,1.9h7.5l4.7-5.6l1.9-5.6v-5.6l-1.9-5.6l-15-25.1l-1-5.6
	L575.1,742.5L575.1,742.5z M569.5,723.9l8.5,2.8l1.9,6.5l-2.8,0.9L569.5,723.9L569.5,723.9z"/>
<g>
	<text transform="matrix(1 0 0 1 652.2318 791.7099)" class="st1 st2 st3">Chittagong</text>
</g>
<path id="feni" inkscape:connector-curvature="0" class="st0" d="M576,717.4l-3.7-5.6l1-5.6l5.6-10.3l-6.6,0.9l-8.5-1.9l-2.8,2.8
	l1.9-7.4l-1-6.5l1.9-5.6l-2.8-11.2l10.3,2.8l5.6-4.7l5.6,1.9l3.7-3.7l-2.8-8.4l-1.9-5.6v-5.6l1.9-7.4l1-6.5l8.5,1.9l5.6,9.3
	l5.6,11.2l1.9,8.4v7.4l6.6,9.3l-1,6.5l7.5,2.8l-10.3,0.9l1,10.3h-7.4l-5.6,3.7l-2.8,8.4l-6.6,9.3v6.5l-3.7-1.9v-4.7L576,717.4
	L576,717.4z"/>
<g>
	<text transform="matrix(1 0 0 1 581.0657 680.4755)" class="st1 st2 st3">Feni</text>
</g>
<path id="noakhali" inkscape:connector-curvature="0" class="st0" d="M518.5,772.5l17.3,1.3l5.3,11.9l1.3,10.5l5.3,6.6l-1.3,14.5
	l-2.7,14.5l-9.3,6.6l-8,9.2l-4-1.3l1.3-13.2l1.3-14.5l1.3-13.2l-1.3-13.2L518.5,772.5L518.5,772.5z M567.7,765.9l-13.3-4v-10.5v-6.6
	l10.6,5.3l4,6.6L567.7,765.9z M543.7,726.4l17.3,1.3l8,6.6l-1.3,7.9l-12-5.3L543.7,726.4L543.7,726.4z M521.2,734.3h14.6l6.6,7.9
	l5.3,9.2l-4,7.9l-9.3,4l-6.6-1.3l-1.3-11.9L521.2,734.3L521.2,734.3z M507.8,705.3l5.3-6.6l2.7-10.5l-5.3-6.6l-9.3-6.6l1.3-6.6
	l8-14.5l10.6,4l10.6,9.2l10.6-4l6.6,1.3l14.6,4l1.3,5.3l-1.3,6.6v5.3l-4,11.9l12-1.3h6.6l-5.3,7.9v6.6l2.7,9.2l-8-4l-8,2.6
	l-14.6-1.3l-8-5.3l-4,5.3c0,0-4,4-9.3,1.3C518.5,715.9,509.2,706.7,507.8,705.3L507.8,705.3z"/>
<g>
	<text transform="matrix(1 0 0 1 520.6771 692.9501)" class="st1 st2 st3">Noakhali</text>
</g>
<path id="laxmipur" inkscape:connector-curvature="0" class="st0" d="M455.4,679l2,6.6l8.7,3.3l1.3,5.3l2.7,5.3l8.7,7.2l3.3,12.5
	l5.9,13.8l2.7,10.5l12,11.9l4,7.2l9.3,3.3l10.6-7.9l-2-9.2l-7.3-11.9l0.6-4l-10.6-15.8l-0.6-10.5l6.6-3.3l2-7.9v-11.2l-6.6-4.6
	l-8-3.3l-0.6-2.6l5.3-2l-2.7-4.6l3.3,0.6l6.6-15.1l-4-2h-6.6l-2.7-5.3l-7.3,1.3l-4,13.2l-10.6,3.3l-1.3-1.3l-8.7,4.6l-2.7-4h-2l-2,2
	v12.5L455.4,679L455.4,679z"/>
<g>
	<text transform="matrix(0.5008 0.8656 -0.8656 0.5008 476.0228 680.9501)" class="st1 st2 st4">Lakshmipur</text>
</g>
<path id="bhola" inkscape:connector-curvature="0" class="st0" d="M462.3,867.3l-2.8,7.4h9.4L462.3,867.3z M509.3,798.4l-3.7,12.1
	l-4.7,14v13.1l9.4,10.3v-12.1v-12.1l4.7-12.1l1-6.5L509.3,798.4L509.3,798.4z M442.5,842.2l8.5-9.3l7.5-11.2l1-16.7l-1-12.1
	l-3.7-10.3l-3.7-10.3v-10.3l-6.6-5.6l-6.6-7.4l1-8.4l5.6-9.3l8.5-4.7l3.7-4.7l13.2-0.9l2.8,10.3l5.6,20.5l9.4,11.2l6.6,8.4l3.7,5.6
	l-1,10.3l-2.8,2.8v12.1l-3.7,8.4l-1.9,6.5l-1.9,8.4v8.4v6.5l-6.6,4.7l-3.7,7.4l-11.3,3.7l-1,5.6l-5.6,2.8l-7.5,4.7
	c0,0-2.8-0.9-2.8-4.7s-2.8-8.4-2.8-8.4l4.7-6.5L442.5,842.2L442.5,842.2z M448.2,881.3l4.7-6.5l5.6,7.4l-3.7,3.7L448.2,881.3z"/>
<g>
	<text transform="matrix(1 0 0 1 464.179 800.1708)" class="st1 st2 st3">Bhola</text>
</g>
<path id="rajshahi" inkscape:connector-curvature="0" sodipodi:nodetypes="cccccccccccccccccccccccccccccccccccccccccccccccccccccccccccccccccccccccccccccccccc" class="st0" d="
	M57.2,410.2l2-4.6l-4.7-5.9l0.6-8.6l-4-4.6l0.6-5.3l13.3-4l8-4l-0.6-5.3l12.6,0.6l2-2l-2-3.3l-3.3,2l-4.7-2.6l8.7-4.6l9.9,3.3
	l0.6,5.3l4,1.3l4-4.6l3.3,2.6l-0.6,7.2l6,2.6l14.6-7.9l-0.6-1.3l7.3,2.6l4,3.3l5.3-0.6l4.7,4.6l5.3-2v6.6l0.6,3.3l5.3,2.6h3.3v4
	l-1.3,3.3l-7.3,0.6l-4,3.3h2.7l4,4l-6,4.6l0.6,3.3l0,0l0.6,17.8l-6.6,4.6l-1.3,2l0,0l3.3,6.6l5.3-1.3l0.6,4l1.3,3.3l2,2l-8.7,3.3
	l-2.7,2.6l3.3,2.6l-4,2l2.7,2l-2.7,2l7.3,1.3l1.3,2.6l-5.3,1.3l-0.6,2.6h-6.6l-9.3-4l-6-5.3l-2.7-1.3l-4.7-1.3V457l5.3-1.3l0.6-13.9
	l-4.7-9.9l-5.3-0.6l-2.7,4l-9.9-0.6l-6-3.3l-4.7,4l-6-3.3l-6-5.9l-2.7,0.6l-0.6-3.3l-6-1.3l-6.6-3.3L57.2,410.2L57.2,410.2z"/>
<g>
	<text transform="matrix(1 0 0 1 90.4075 406.3153)" class="st1 st2 st3">Rajshahi</text>
</g>
<path id="nilphamari" inkscape:connector-curvature="0" sodipodi:nodetypes="cccccccccccccccccccccccccccccccccccccccccccccccccccccccccccccccccccc" class="st0" d="
	M129.7,63.1l3.3-3.3l3.3,0.6l3.3,2.6l-2.7,7.2l4,1.3l3.3,4l4-0.6l-0.6-4.6l-3.3-2l4-4.6l7.3,0.6L159,69l2.7,3.3l2,3.3l1.3-2h6
	l1.3,1.3l4-2v4.6l0.6,7.9l4.7,3.3l4.7,2.6l1.3,3.3l-0.6,4l-1.3,9.9l2,6.6l1.3,7.2l5.3,4.6l6,4l4.7,4l-2,5.3l-2,4.6l-2,2.6l-4-4.6
	l-6.6,5.9l0.6,7.2l-5.3-5.3l-3.3,6.6l-10.6-2.6l-7.3,2l2.7,6.6l-3.3,4l-2,3.3l-6-0.6l-5.3-4.6h-3.3v-7.2l-5.3-1.3v-15.8l-2.7-3.3
	l-2.7-4.6l-7.3-2l0.6-3.3l-2-1.3v-5.2l-0.6-2l2.7-3.3l-2,3.3l4-5.9l4-2V100l2-4v-2.6l-0.6-9.2l2-4l-7.3-7.9L129.7,63.1L129.7,63.1z"
	/>
<g>
	<text transform="matrix(1 0 0 1 136.0501 124.1454)" class="st1 st2 st3">Nilphamari</text>
</g>
<path id="patuakhali" inkscape:connector-curvature="0" class="st0" d="M439.8,874.8l-8.5,8.4l-2.8,8.4l7.5,3.7l5.6-6.5l-1.9-6.5
	V874.8L439.8,874.8z M429.4,858.9l8.5-5.6l2.8,5.6l-1,6.5l-5.6,6.5l-4.7,4.7v-10.3V858.9L429.4,858.9z M410.6,854.3l9.4,4.7l4.7,4.7
	l1,7.4l-2.8,8.4l-4.7,6.5l-10.3-4.7l-2.8,6.5l-2.8,9.3l-6.6,2.8l1.9-10.3l3.7-7.4v-8.4l3.7-7.4L410.6,854.3L410.6,854.3z
	 M407.8,849.6l1.9-9.3l-6.6-3.7l10.3-11.2l2.8-2.8l-1.9-7.4l-14.1,0.9l-4.7-2.8l-13.2,7.4l-1.9-4.7l1-9.3l12.2-2.8l1.9-5.6l-3.7-8.4
	l7.5-8.4l5.6-0.9l2.8-7.4l8.5,0.9l2.8-8.4l13.2-3.7l1-6.5l6.6,6.5l5.6,7.4l-1,9.3l7.5,2.8l4.7,14.9l-6.6,3.7v8.4l-5.6,11.2
	l-3.7,10.3l-1.9,5.6l1.9,13.1l-16.9,5.6L407.8,849.6L407.8,849.6z"/>
<g>
	<text transform="matrix(1 0 0 1 399.0892 804.9326)" class="st1 st2 st3">Patuakhali</text>
</g>
<path id="barguna" inkscape:connector-curvature="0" class="st0" d="M377.7,772.3l9.4,0.9l-1,4.7l9.4-2.8v-1.9l5.6-3.7l6.6,2.8
	l-1.9,7.4l-6.6,0.9l-6.6,9.3l2.8,7.4l-1.9,5.6l-9.4,1.9l-3.7,6.5l-1,7.4l2.8,3.7l8.5-8.4l4.7-1.9l3.7,1.9l16,0.9l1,6.5l-9.4,9.3
	l-2.8,5.6l6.6,3.7v5.6l-6.6,11.2l-5.6,6.5v14l-9.4,11.2l1,10.3l-8.5,2.8l-7.5,4.7l-8.5-1.9l-6.6-5.6l-12.2-2.8l2.8-4.7l-3.7-4.7
	c0,0-3.7-10.3,1-10.3c4.7,0,11.3-3.7,11.3-3.7l-6.6-2.8l-6.6-0.9l1-9.3l4.7-5.6l-2.8-4.7l-2.8,6.5l-4.7,0.9l-1,6.5l2.8,2.8l-4.7,5.6
	l-7.5-12.1l-1.9-9.3v-13.1l0,0l9.4-4.7l4.7-5.6l3.7,1.9l6.6-14l2.8-7.4l-1.9-8.4l9.4,0.9l6.6-8.4l5.6-3.7l1-7.4L377.7,772.3
	L377.7,772.3z"/>
<g>
	<text transform="matrix(1 0 0 1 357.2493 839.7099)" class="st1 st2 st3">Barguna</text>
</g>
<path id="barisal" inkscape:connector-curvature="0" class="st0" d="M376.3,773.1l8.7-4.6l8.7-4l2.7-7.2h4l1.3-2l8,2l1.3-4.6h4.7
	l-0.6-4l-8-1.3l2-4l3.3,0.6l-0.6-3.3l-10.6-1.3l-2.7-3.3l-5.3-0.6l0.6-4l2.7-2l-6-7.2h-4.7l-2.7-3.3l-8.7,5.3l-10.6-2l-0.6-2.6h-2.7
	l-4-6.6h-4.7l0.6-6.6l-4-5.3v-7.9l6-6.6l0.6-3.3l6-3.3l1.3-3.3l6-0.6v-7.9l8,0.6l2.7-4l3.3,1.3l-0.6,15.8l9.3,4l5.3-1.3l3.3-2l4,2.6
	l2-4.6l8-4l9.3,2l9.3,5.3l6.6,5.9l8,3.3l8,3.3l6,5.3l4,9.2l-4,4.6l-6.6,3.3l-11.3,7.9l-6,5.9l-0.6,4.6l-8,1.3l4.7,7.2l-2,5.3
	l0.6,5.9l2.7,4l-8,0.6l-7.3,4v4.6l-1.3,4.6l-4.7-1.3l-4-0.6l-8.7-4l-4.7,2.6l-0.6,3.3l-8,3.3l-0.6-5.9L376.3,773.1L376.3,773.1z"/>
<g>
	<text transform="matrix(1 0 0 1 400.1829 712.5693)" class="st1 st2 st3">Barisal</text>
</g>
<path id="jhalokati" inkscape:connector-curvature="0" class="st0" d="M353.6,797.5l-3.3,2.6l-1.3-5.3l4.7-5.9l-2-9.9l4,4l4.7-2.6
	l2.7,2.6l8-5.3l0.6-4l-10.6-3.3l-0.6-12.5l6.6-2v-4.6l-4.7-5.3l7.3-4l0.6-5.3l6-3.3l-0.6-2l3.3-1.3l0.6-3.3l-4.7-2.6l4.7-4l2.7-1.3
	l1.3,4h4l2.7-1.3l5.3,5.9l-2,2.6l-0.6,3.3l1.3,2h4l2,3.3l11.3,2l0.6,2.6l-3.3,0.6l-2,3.3l7.3,1.3l0.6,3.3l-6,1.3c0,0,1.3,4-1.3,4
	s-5.3-2.6-5.3-2.6l-2,2.6l-4-0.6l-2,4l-1.3,4l-4.7,2l-7.3,4.6l-4.7,3.3l-0.6,4.6l-1.3,7.9l-5.3,3.3l-2.7,5.9l-3.3,4L353.6,797.5
	L353.6,797.5z"/>
<g>
	<text transform="matrix(1 0 0 1 368.0364 751.9775)" class="st1 st2 st3">Jhalokati</text>
</g>
<path id="perojpur" inkscape:connector-curvature="0" sodipodi:nodetypes="ccccccccccccccccccccccccccccccccccccccccccccccccccccccccccccccccc" class="st0" d="
	M327.1,836.4l-1.3-9.9l-4-5.3l0.6-9.9l5.3-9.2l-1.3-5.9V787l4.7-5.3h2.7l-3.3-3.3l-8-12.5l9.3,5.3l6,5.3l-0.6-5.9l-2.7-7.2l3.3-4.6
	l-3.3-9.2v-9.9l-2.7-2.6l-9.3-1.3l-0.6-7.2l10.6-4v-11.2l-0.6-2.6l1.3-2l0.6-4.6l9.9,1.3l3.3-4.6h0.6l4.7,5.9l-0.6,6.6h3.3l4,5.9h4
	l1.3,4l9.9,2l4.7,1.3l-0.6,3.3l-2.7,0.6v3.3l-4.7,3.3l-1.3,5.3l-7.3,4.6l4,4v5.3l-6.6,1.3v13.2l10.6,2l1.3,1.3l-1.3,3.3l-6.6,6.6
	l-4-3.3l-3.3,2l-4-2l0.6,7.9l-4,5.9l0.6,5.3l4-2l1.3,7.9l-2,4l-2,9.2l-4.7,8.6l-4.7,0.6l-8,8.6h-6.6V836.4z"/>
<g>
	<text transform="matrix(1 0 0 1 332.6028 734.3056)" class="st1 st2 st3">Pirojpur</text>
</g>
<path id="chandpur" inkscape:connector-curvature="0" sodipodi:nodetypes="cccccccccccccccccccccccccccccccccccccccccccccccccccccccc" class="st0" d="
	M450,677.7l-6.6-11.2l-2.7-6.6l3.3-9.2l4.7-7.9l6-6.6l2-6.6l-2.7-5.3v-4.6l-4.7-2.6l-4.7-1.3v-4.6l-4-2l3.3-6.6l1.3-6.6l0.6-5.3
	l6.6-2l4.7-2l4-0.6l7.3,6.6l0.6,4.6l7.3,3.3l3.3-4.6l2.7,2.6l6.6-8.6l11.3,3.3l1.3,8.6l6,4l0.6,5.9l6.6,5.9l6,7.9l-0.6,4.6l5.3,4.6
	l-4,4l0.6,8.6l-2,4.6h-4.7l-2.7,1.3l-4-2.6l-7.3,0.6l-3.3-5.3h-3.3l-4,2l-2,6.6l-1.3,4.6l-9.3,3.3h-3.3l-6.6,4h-1.3l-2-4h-2l-2,2.6
	l-0.6,6.6v3.3l-4,4.6L450,677.7L450,677.7z"/>
<g>
	<text transform="matrix(1 0 0 1 461.9407 635.5654)" class="st1 st2 st3">Chandpur</text>
</g>
<path id="comilla" inkscape:connector-curvature="0" class="st0" d="M467.5,574.6l5.9-10.7l2.1-3.3l-2.8-4.7l1-7.9l7.5,3.3l3.3-4.9
	l-1.7-2.8l-0.5-2.1l3-1.9l7.8,5.1l5.9-1.6l-0.7-4.9l3.5-0.9l7.8,0.2l4.2-4l10.1,0.7l-1.7-0.5l5.9,3.3l3.5,3l-2.8,2.4l4.9,1.6l1,2.4
	h2.6l-0.5,5.1l5.4,5.1l1.2,2.4l-0.2,6l1.7,4l5.4,5.6l-0.2,3.7l3.3,1.2l-1.7,1.4l0.2,2.8l6.8,5.3l3.5,11.4l3.5,11.4l5.9,2.4l-6.1,4.4
	l0.5,2.4l4.7,2.6l-1.9,1.6l-0.2,2.1l1.7,3.5l1.4,1.9l-0.5,2.4l1,17.9l2.4,3l2.6,5.1l-0.7,5.8l-5.2,3l-6.6-3.5l-5.6,0.2l-8.5-1.2
	l-4.2-2.8l-4.2-0.2l-4.9,2.8l-1.7-1.2h-4.7l-6.1-3l-3-5.3l-0.2,0.5l-3.7-0.2l-2.6-3.7l4.4-1.2l2.8-4l-0.5-8.1l3-5.1l-3.5-3.3
	l-0.7-5.1l-4.2-5.1l-1.9-4.2l-7.1-5.1l-1-4.7l-4.9-3.3l-1.9-9.1l-9.4-2.6l-6.8,5.8l-2.6-1.6l-2.6,5.3h-2.8l-6.4-3.5v-4.4h-0.2
	l-3-3.3l-4.4-4.4l3.7-2.1l-0.2-4.4L467.5,574.6L467.5,574.6z M457.6,559.3l-0.7,6.3l4,5.1l1.2,3l2.6-0.5l3.5-5.3l4-6.7l-1.9-4.9
	l0.2-5.6l-3.8-4.5l-4,7.5l-6.4-1.6l-0.2,4.9L457.6,559.3L457.6,559.3z"/>
<g>
	<text transform="matrix(1 0 0 1 515.1771 604.4423)" class="st1 st2 st3">Comilla</text>
</g>
<path id="munshiganj" inkscape:connector-curvature="0" class="st0" d="M440.5,573.7l1.4,3l2.4,4l1.2,7.2l9.1-4l8.7-2.4l-4-7.4
	L455,567l-8.5,0.5L440.5,573.7L440.5,573.7z M411.5,601.9l16.9,3.7l-1.9,9.3L411.5,601.9z M374.9,586.1l2.8-10.3l5.6,2.8l3.7-4.7
	v-8.4l4.7-10.3l9.4,2.8l9.4,6.5l-2.8,9.3l5.6,0.9l2.8-10.3l11.3,7.4l9.4,1.9l1.9,4.7l3.7,2.8v6.5l-1,5.6l-4.7,7.4l-1.9,7.4l-6.6-7.4
	h-12.2l-9.4-2.8h-7.5l-8.5-1.9L374.9,586.1L374.9,586.1z"/>
<g>
	<text transform="matrix(1 0 0 1 386.2239 587.7919)" class="st1 st2 st3">Munshiganj</text>
</g>
<path id="brahmanbaria" inkscape:connector-curvature="0" class="st0" d="M481.3,551.2l-8-3.3v-2l-6.6-5.3l2-5.3l6-7.2l0.6-9.2
	l4.7-2.6l2,2.6h6l2-2l11.3,1.3v-4.6l4-1.3l2.7-11.2l5.3-1.3l-3.3-5.9l6-8.6l7.3-3.3l-0.6-2.6l4-4l-1.3-6.6l-4-0.6l-4-7.2l5.3-6.6
	l9.3,1.3l3.3-5.3l11.3-4l11.3,3.3l6,4l7.3-10.5l5.3,1.3v4l-8.7,5.9l5.3,3.3v3.3l-6.6-2l-0.6,7.9l4,2.6L565,471l3.3,10.5l3.3,4.6v2
	l-2.7,1.3v5.3v2l-7.3,3.3l2.7,6.6l-5.3,1.3l-4,7.9l4,4.6l0.6,3.3l-3.3,2.6l-1.3,5.3l2.7,5.3l-4,5.3l-2.7-2h-4.7l-3.3,2.6l0.6,7.9
	l3.3,1.3l2-2.6l2,1.3v8.6h-2.7l-4.7-4l-1.3,2l-5.3-5.3v-5.3h-2.7l-0.6-2.6l-5.3-1.3l3.3-2.6l-7.3-5.9l-10.6-0.6l-4.7,4h-8l-3.3,0.6
	l1.3,5.3l-6,1.3l-7.3-5.3l-4,2.6l0.6,2l2,2L481.3,551.2L481.3,551.2z"/>
<g>
	<text transform="matrix(1 0 0 1 487.931 528.0087)" class="st1 st2 st3">Brahmanbaria</text>
</g>
<path id="narayanganj" inkscape:connector-curvature="0" class="st0" d="M424.1,560.4l-6-9.2l15.3-5.3l-8-19.1l2-4.6v-5.9l4.7-12.5
	l4,1.3l0.6-3.3l8,9.9l9.3,4l-4.7,4.6l1.3,4l7.3-4.6l2.7,3.3l-4.7,4.6l6.6,2l8,2.6l-0.6,2.6l-2,5.9l-4.7,4l-1.3,5.9l-4.7-1.3H454
	l-1.3,4.6v6.6l-8.7,4l-3.3,3.3l-3.3,4l-5.3-0.6v-4l-4.7,3.3l-4-3.3L424.1,560.4L424.1,560.4z"/>
<g>
	<text transform="matrix(1 0 0 1 432.7532 536.0478)" class="st1 st2 st5">Narayanganj</text>
</g>
<path id="narshingdi" inkscape:connector-curvature="0" sodipodi:nodetypes="ccccccccccccccccccccccccccccccccccccccccccccccccccccccccccccc" class="st0" d="
	M446.7,512.4l6.6-5.9l2.7-4l-2.7-4.6h4l2.7-7.2v-7.2l-1.3-6.6l-3.3-2l2.7-2l3.3,4l6-1.3h2l-4-4.6l2-8.6l-2-4.6v-6.6l2.7-2.6l4,0.6
	l4.7-4l6,9.9l4.7,2l3.3,5.3l6.6,2.6l0.6,2l-4,2l3.3,4l-4.7,1.3l7.3-0.6l4,4.6l6-2l1.3,6.6l4,2l-1.3,2l-4,6.6l2,5.9l-3.3,1.3l-4,10.5
	l-2.7,2l-1.3,3.3l-0.6,1.3l-8.7-0.6l-4.7,2h-4v-1.3l-4.7-0.6l-2,1.3l-0.6,8.6l-4,6.6l-6-5.3l-0.6-3.3l-1.3,4.6l-5.3-1.3l-2-2l4-2
	l-2-4.6l-4.7,2l-1.3,3.3l-2-4l4.7-6.6L446.7,512.4L446.7,512.4z"/>
<g>
	<text transform="matrix(1 0 0 1 466.6536 491.9774)" class="st1 st2 st3">Narsingdi</text>
</g>
<path id="moulovibazar" inkscape:connector-curvature="0" class="st0" d="M628.2,450.4l4.7-12.5l-4.7-10.5l3.3-30.3l4-2.6l7.3,0.6
	l-5.3-2.6l-6.6-7.9l3.3-2l4.7,0.6l4.7,4.6l4-5.3l9.9,0.6l10.6-13.2l3.3,3.3l4-2l2,3.3l6.6,0.6l2.7-2.6l2.7,2.6l9.3-2l9.3-5.3
	l3.3-13.9h3.3l2,5.3l9.3-2h6.6l-1.3,4.6l-2,4.6l-4.7,8.6l-2,11.9l-9.9,6.6l-1.3,11.9l3.3,4.6v4l-4.7,9.2h-8.7l-13.3-2l-5.3,1.3
	l5.3,4.6l1.3,5.3l-3.3,1.3l-1.3-3.3L684,428l-4-0.6l-4.7,4.6l2.7,2.6v14.5l-3.3,4l-1.3,13.2h-4.7l-3.3-7.2l-5.3-4.6l2.7-2.6
	l-5.3,1.3h-6l-2-4l-4,0.6h0.6v12.5l2.7,4l-3.3,2.6l-3.3-1.3l-2-3.3l-6-4L628.2,450.4L628.2,450.4z"/>
<g>
	<text transform="matrix(1 0 0 1 647.4525 413.2919)" class="st1 st2 st3">Moulvibazar  </text>
</g>
<path id="habiganj" inkscape:connector-curvature="0" sodipodi:nodetypes="cccccccccccccccccccccccccccccccccccccccccccccccccccccccccccccccccccccccccccccccccccccccccc" class="st0" d="
	M549.1,445.8l4-1.3l-2.7-4l-2.7-1.3l1.3-4l8,0.6l4.7-2v-4.6L559,426l4.7-1.3l-0.6-4l-4.7-5.3l2.7-3.3l0.6-4.6l-1.3-2.6l-3.3-2l-4,2
	l-4.7-2l9.3-3.3l3.3-9.2l6.6-4.6l4.7-4.6l4.7,5.3l2-4l-2-4.6l4.7-6.6l8.7-2.6h3.3l4.7,4l5.3,7.9l3.3-5.3v-2l3.3-2.6l2.7,1.3
	l10.6-1.3l2.7,5.9l3.3-1.3l-2.7-3.3v-3.2l8.7,1.3l8,2l-4,5.9l6.6,0.6l1.3,3.3l-4.7,5.3l-4.7-3.3l-4-0.6l-2,1.3l4,6.6l4,2.6h-4
	l-4.7,3.3l-1.3,10.5l-1.3,19.1l4,11.2l-4,11.2l-2.7,2v2l3.3,2.6v2.6l-2.7,1.3v13.9l-8.7,5.3l-9.3,1.3l-6-4.6h-7.3l-6.6-3.3h-6
	l-1.3,4l4,5.3l-1.3,4.6l-3.3,4.6l-2,6.6l-9.9-2.6V490l2-1.3l-1.3-5.3l-5.3-11.2l6.6-2l-5.3-2.6v-8l7.3,2v-4l-6-2.6l9.3-6.6v-4
	l-6-1.3l-6,10.5l-5.3-4L549.1,445.8L549.1,445.8z"/>
<g>
	<text transform="matrix(1 0 0 1 578.597 435.661)" class="st1 st2 st3">Habiganj</text>
</g>
<path id="sylhet" inkscape:connector-curvature="0" class="st0" d="M636.8,370.1l7.3-12.5l-4.7-5.9l4-0.6l-3.3-9.2l4.7-4h5.3
	l-5.3-6.6l4.7-7.9l0.6-6.6l-5.3-3.3l3.3-3.3l-6.6-7.9v-2.6l2.7-2.6v-6.6l-5.3-4.6l0.6-3.3l-4-3.3l2-3.3h2l6,2l4-4.6l19.9,0.6l12-2
	l4.7,4l4-5.3h10.6l7.3,2.6l6,7.2l2.7-0.6l2.7,2l2.7-1.3l4.7,2.6v3.3l3.3,0.6l8,4l5.3,1.3l2-2h2.7v5.3l7.3,2l6.6,4l-1.3,4l2.7,5.9
	l6,2l-2.7,3.3l6,0.6l2.7,4l-0.6,9.9h-2.7l-2.7-1.3l-4,4l-8-0.6l-11.3-2l-6.6,2l-5.3,3.3l4.7,5.3l-0.6,4.6l-6,11.2h-4.7l-9.9,1.3
	l-2.7-5.3h-3.3l-0.6,4.6l-2.7,8.6l-6.6,5.3l-3.3,1.3l-8,2l-3.3-2.6l-4,2.6l-4.7-0.6l-2-3.3l-4.7,2.6l-3.3-3.3l-4,4.6l-5.3,7.2
	l-10.6,0.6l-2-4.6l-6.6-0.6l2.7-4L636.8,370.1L636.8,370.1z"/>
<g>
	<text transform="matrix(1 0 0 1 692.0071 329.6161)" class="st1 st2 st3">Sylhet</text>
</g>
<path id="sunamganj" inkscape:connector-curvature="0" class="st0" d="M555.7,381.9v-5.3l9.3-7.9l-4-6.6l-8.7-2.6l-4.7-2.6l1.3-5.9
	l4-2l2-4.6l-2.7-4.6l-2-1.3l-4.7,6.6l-2.7-4.6l0.6-5.3l-4-5.9l-11.3-1.3l-4.7-5.9l-9.3-1.3V312l-2.7-5.9v-7.2l3.3-3.3l-6.6-2
	l1.3-2.6l6.6-0.6l-3.3-4l1.3-12.5l1.3-3.3l10.6-2h7.3l9.3,2l18-3.3l16.6,8.6l2.7-3.3l8,2.6l8.7,5.3h6l2.7-2.6l4.7,1.3l9.9-5.3v5.3
	l3.3,0.6l2,4l9.9-2.6l4,0.6l-1.3,4l5.3,4.6l0.6,5.9l-3.3,4v2l7.3,7.2l-0.6,2.6l-2,0.6v2l4,2v5.3l-4,7.9v2l4,5.3l-6.6,1.3l-3.3,4
	l4,8.6l-4,1.3l4,5.9l-6,11.9l-10.1-1.3l-0.6,3.3l2,2l-2.7,2l-2.7-3.3h-5.3l-8.7-2l-2.7,2.6l2.7,2.6l-4.7,4l-9.3-7.2l-0.6-4l-5.3-0.6
	l-6,5.3l-6,3.3l0.6,5.3l-1.3,3.3l-4-2.6l-6,5.3l-5.3,1.3L555.7,381.9L555.7,381.9z"/>
<g>
	<text transform="matrix(1 0 0 1 565.0286 330.9345)" class="st1 st2 st3">Sunamganj</text>
</g>
<path id="netrokona" inkscape:connector-curvature="0" class="st0" d="M491.9,387.2l-5.3-2l-0.6-4.6l-4.7,2L480,376l-6-3.3l-3.3-4.6
	l-0.6-6.6l4.7-4.6l-6-3.3v-4l2.7,0.6l2.7-4l-7.3-2.6l-1.3,2.6h-6.6l-4.7-4.6h-6l2.7-3.3l-2.7-2.6v-6.6l-4.7-0.6l-2.7-7.2h-2l0.6-2.6
	l-0.6-5.9l-6-4h7.3l1.3-3.3l2.7,7.9h3.3l1.3-5.9l2-3.3h3.3l2.7-5.3l-6-5.9l4-2l-1.3-4l2.7-4.6l3.3-7.9l5.3,0.6l2,2l11.3-7.2l4,5.9
	l17.3,0.6l2-2l5.3,2.6l8.7-7.2l0.6,3.3l-2,0.6l-0.6,12.5l2.7,2.6l-1.3,1.3l-4,0.6l-1.3,3.3l5.3,1.3l-2.7,3.3l-0.6,6.6l3.3,5.9v9.2
	l8,2l5.3,5.3l12.6,0.6l3.3,5.3v5.9l2.7,5.3l2.7-5.3l3.3-0.6l2.7,4.6l-2,5.3l-4.7,1.3v6.6l3.3,2l4,0.6l5.3,2l2.7,3.3l2,2.6l-4,4.6
	l-5.3,4l-7.3,0.6l-11.3,7.2l-2-3.3l-8-2l-6,4l-4.7-0.6l-9.3,0.6h-8L491.9,387.2L491.9,387.2z"/>
<g>
	<text transform="matrix(1 0 0 1 476.0267 338.0771)" class="st1 st2 st3">Netrokona</text>
</g>
<path id="kishoreganj" inkscape:connector-curvature="0" sodipodi:nodetypes="cccccccccccccccccccccccccccccccccccccccccccccccccccccccccccccccccccscccccccccccccccc" class="st0" d="
	M467.3,449.1l-7.3-6.6l-2-7.2l-1.3-4L456,426l4.7-2.6l0.6-8.6l-13.3-9.2l2-2.6v-3.3l5.3,0.6l5.3,4.6l4.7-0.6l4.7-6.6l3.3,3.3
	l2.7-6.6l5.3,4.6l6-2.6l4.7-6.6l3.3-5.3l14.6-2.6l-9.3,1.3l7.3-1.3h8.7l4.7,1.3l6.6-4.6l6.6,1.3l2.7,4.6l7.3-4.6l4-3.3h7.3l-1.3,5.3
	l6,6.6v4.6l-2,3.3l-0.6,2l-9.3,5.3l5.3,1.3l1.3-2l4.7,1.3l2.7,5.3l-0.6,3.3l-4.7,2.6l6.6,4.6l1.3,4l-4.7,0.6l-2,2.6l3.3,2.6v2.6v1.3
	l-4.7,1.3l-8,0.6l-2,3.3l4,2l1.3,2.6l-3.3,2l-8,2l-8,2l-2,5.3l-8.7-0.6l-6.6,6.6v2l4,4.6l5.3,1.3l1.3,4.6l-1.3,3.3l-3.3,2.6
	c0,0,4,2-0.6,3.3s-6,2-6,2l-3.3-3.3l-2-4.6l-6,0.6l-4-4.6h-5.3l-0.6-5.3l4-3.3l-8-2l-2.2-5.5l-4.7-0.6l-3.3-6.6l-4-4l-2,0.6
	l-1.3,1.3L467.3,449.1L467.3,449.1z"/>
<g>
	<text transform="matrix(1 0 0 1 481.2806 433.3564)" class="st1 st2 st3">Kishoreganj</text>
</g>
<path id="mymenshingh" inkscape:connector-curvature="0" class="st0" d="M396.9,441.2l-6-2.6l-5.3-11.2l2.7-2.6v-6.6l-6.6-9.9
	l1.3-4.6l4.7-1.3l-9.9-5.3l-4-4l-5.3-9.2l0.6-4l4-4.6v-3.3l-6-8.6l0.6-11.2l-6-0.6l-2-5.3l6.6-1.3l6,1.3l6-7.2v-6.6l3.3-2l4.7,1.3
	l4.7-5.9l-4.7-3.3v-4l4,1.3l4-0.6l-5.3-2.6l-2.7-5.9l2.7-4l-3.3-3.3l4.7-6.6l6.6,2.6l2.7-5.3l-5.3-2l-2.7-3.3v-3.3v-13.2L391,270
	l3.3-0.6l3.3,2.6h6l2,4l14,2.6l6.6-2.6l8-3.3l8.7,1.3l3.3-2l5.3,2.6l4.7-4l3.3,2l-1.3,3.3l-3.3,9.2l-0.6,5.3l-3.3,2.6l5.3,5.9
	l-0.6,4l-4.7,0.6l-2.7,4l-1.3,5.3l-2.7,0.6l-2.7-7.2l-2,2.6l-4-1.3l-2,1.3l5.3,4l1.3,5.3l-1.3,4h1.3l3.3,6.6h4.7l-0.6,7.2l3.3,2.6
	l-2,2.6h4.7l4.7,4l6.6,1.3l2.7-2l6,2l-1.3,4l-3.3-0.6l1.3,4.6l2.7,1.3l1.3,1.3l-3.3,4l-0.6,6.6l5.3,4.6l4.7,2.6l1.3,8.6l4-2.6
	l0.6,2.6l5.3,3.3l1.3,2.6l-4,6.6l-4.7,4.6l-4.7-2l-2.7-4.6l-4,7.9l-2.7-5.3l-4,7.2l-5.3,0.6l-4.7-4h-6l-2,5.3l6,4.6l6.6,4l-0.6,8.6
	l-3.3,2.6l-0.6,5.9l3.3,7.2l2,4l-4.7-1.3l-6,2.6H444l-5.3-4l0.6-4l-9.3-3.3l-0.6-2.6l-6.6-0.6l-2.7,10.5l-2.7-1.3l-3.3,1.3l-4-4.6
	l-2,4L396.9,441.2L396.9,441.2z"/>
<g>
	<text transform="matrix(1 0 0 1 392.2493 372.1396)" class="st1 st2 st3">Mymensingh</text>
</g>
<path id="sherpur" inkscape:connector-curvature="0" class="st0" d="M357,332.5l-0.6-4.6l-10.6-2.6l-9.3-3.3l1.3-4l-3.3-4l-3.3,0.6
	l-0.6-4l-3.3-4.6l-2-5.3l4.7,0.6v-3.3l4-2.6l0.6-3.3l-4.7-4l-1.3-4.6l3.3-4l0.6-5.3l-5.3,0.6l-2-4l5.3-4l1.3-9.2l2.7,3.3l2.7-2.6
	v-9.9l4.7,4l6.6,4l3.3,2l8.7,3.3l7.3,2l9.9,1.3l7.3,3.3h4.7l2,3.3v5.9l0.6,7.2l-1.3,4.6l8,4l-2.7,4.6l-6.6-1.3l-4.7,6.6l4,3.3
	l-2.7,4l2,5.3l4.7,2.6l-2.7,1.3l-4-1.3l0.6,3.3l3.3,2.6l-3.3,6.6l-8.7-0.6l-5.3-2.6l-7.3-3.3L357,332.5L357,332.5z"/>
<g>
	<text transform="matrix(1 0 0 1 344.3489 294.3212)" class="st1 st2 st3">Sherpur</text>
</g>
<path id="gazipur" inkscape:connector-curvature="0" class="st0" d="M365.6,489.3l10.6-9.2l-1.3-5.3h2.7v-4l4,4l4-0.6L385,463l2-7.2
	l9.3-4l-1.3-5.9l6-2.6l-2-2l4-1.3l4.7-0.6l2-4l4,4.6l4-0.6l2.7,2l2-11.2l6.6-0.6l2,2.6l8,3.3v3.3l5.3,5.3h6l1.3-2h5.3l7.3,4.6l4,2
	l-4,2.6l0.6,5.9l2.7,5.3l-2,4.6l-0.6,4l4,4l-7.3,1.3l-2.7-2.6l-2,2l2.7,1.3l1.3,12.5l-3.3,7.9l-3.3,0.6l2,3.3l-4,6.6l-5.3,4
	l-3.3-2.6l-6.6-7.9l-0.6,3.3l-4-0.6l-5.3,11.2l-3.3-2.6l-2.7,2l-5.3,1.3l-4-4l-5.3,1.3v-13.2h-9.3l-5.3-2l4.7-5.3l-3.3-5.3l-2-0.6
	l-4,7.2l-2-4l-5.3,2.6l-4.7,2.6L365.6,489.3L365.6,489.3z"/>
<g>
	<text transform="matrix(1 0 0 1 408.7181 478.745)" class="st1 st2 st3">Gazipur</text>
</g>
<path id="shariatpur" inkscape:connector-curvature="0" class="st0" d="M432.1,663.2l-5.3,0.7l-3.3,6.2l2.7,5.4l7.3-0.7l5.3,6.2
	l2.7-3.9l-1.3-7l-2.7-4.7L432.1,663.2z M420.9,674.5l-9.4,2.8l-5.6,3.7l-1.9,4.7l-6.4-4.8l-4.9-6.4l2.8-5.6l3.7-5.6l-5.6-5.6
	l-4.7-8.4l-6.6-4.7l-2.8-12.1l8.5-6.5l6.6-12.1l5.6-8.4l9.4,0.9l8.5,6.5l3.7,6.5h7.5h6.6l2.8,6.5l1,6.5l2.8,10.3l-3.7,8.4l-5.5,4.2
	l3.6,5.6l-12.2,3.2L420.9,674.5L420.9,674.5z"/>
<g>
	<text transform="matrix(1 0 0 1 389.2142 642.8466)" class="st1 st2 st3">Shariatpur</text>
</g>
<path id="madaripur" inkscape:connector-curvature="0" sodipodi:nodetypes="cccccccccccccccccccccccccccccccccccccccccccc" class="st0" d="
	M367,594.7l8.7,0.6l5.3,4.6l6,2.6l13.3,4l-2.7,4.6l-9.3,15.1l-8.7,5.9l2,11.9l8,5.9l4,9.2l6.6,4.6l-7.3,9.9l5.3,4.6l2,4l-3.3,2.6
	h-7.3l-8-2l0.6-8.6l0.6-7.9l-3.3-1.3l-2,3.3h-8.7l-5.3-3.3v-2.6l3.3-1.3l-6-4l-5.3,4.6l-6.6-5.3h-4l-4,5.3l-6-4l4-9.9l8,0.6l-1.3-4
	l6-3.3l2-8.6l-3.3-5.9l3.3-6.6l9.3,4l3.3-13.9l-2.7-5.3l3.3-2.6L367,594.7L367,594.7z"/>
<g>
	<text transform="matrix(1 0 0 1 350.3314 652.4189)" class="st1 st2 st6">Madaripur</text>
</g>
<path id="dhaka" inkscape:connector-curvature="0" sodipodi:nodetypes="cccccccccccccccccccccccccccccccccccccccccccccccccccccccccccccccccc" class="st0" d="
	M349.7,561.1l3.3-4v-6.6l11.3-1.3l4-2.6l14.6,3.3l-3.3-11.9l6.6-5.9l-11.3-3.3l-3.3-0.6l-6.6-12.5l-5.3-2.6l-2-8.6l-7.3-4.6l5.3-4
	l-11.3-1.3l0.6-3.3v-4l5.3,4l6-4.6l8,4l6-2.6l4,6.6l5.3-2.6l5.3-1.3l2,3.3l3.3-9.9l6,9.2l-5.3,4.6l4.7,1.3l9.9,1.3l0.6,12.5l5.3-1.3
	l3.3,3.3h4.7l3.3-2.6h3.3l0.6,5.3v4.6l-1.3,4l6,17.1l2.7,2.6l-2.7,1.3l-11.3,5.3l4.7,7.9l-2,7.2l-6-5.3l-2,3.3l-2,8.6l-4.7-1.3
	l2.7-7.9l-6-3.3l-3.3-4l-9.9-2l-4,5.9l-0.6,3.3l-0.6,9.2l-3.3,4l-4.7-2.6l-0.6,5.3l-2,3.3l-6.6-3.3l-0.6-5.9l-2-6.6l-5.3-3.3
	L349.7,561.1L349.7,561.1z"/>
<g>
	<text transform="matrix(1 0 0 1 391.0267 533.413)" class="st1 st2 st3">Dhaka</text>
</g>
<path id="manikganj" inkscape:connector-curvature="0" sodipodi:nodetypes="ccccccccccccccccccccccccccccccccccccccccccccc" class="st0" d="
	M306.5,488l-10.6,3.3l-6.6,0.6l0.6,6.6l6,7.2l8,7.2l0.6,4l2.7,3.3l-0.6,6.6l7.3,9.9l8,5.3l8,2l3.3,4h-7.3l5.3,5.3l3.3-2l3.3,6.6
	l12,3.3l4-3.3v-7.2l8.7-1.3l6-2.6l15.3,2.6l-4-11.2l6.6-7.2l-13.3-2.7l-4.7-5.9l-3.3-7.2l-4.7-2.6l-3.3-8.6l-6.6-3.3l5.3-4.6
	l-12.6-0.6l-1.3-5.3l-3.3-1.3l-6.6,6.6l-2-1.3l-4.7,5.3l-2-3.3l-2.7,5.9l-4-1.3l-3.3-2.6l-2,2.6l-2.7-4L306.5,488L306.5,488z"/>
<g>
	<text transform="matrix(1 0 0 1 320.7806 530.0712)" class="st1 st2 st3">Manikganj</text>
</g>
<path id="tangail" inkscape:connector-curvature="0" sodipodi:nodetypes="ccccccccccccccccccccccccccccccccccccccccccccccccccccccccccccccccccccccccccccccccccccccccc" class="st0" d="
	M307.1,487.3l5.3-8.6l-0.6-7.9l-2.7-5.9l-4-1.3V461l2-2l-2-2.6l1.3-7.9l0.6-11.9l-9.3-9.9l4.7-5.9l-9.3-8.6l6-6.6l1.3-7.9l-4.7-4
	l4.7-3.3l2,1.3l3.3-5.3l6,2l0.6-3.3l2.7-4.6l2-3.3l1.3-3.3l2.7-2l3.3-4.6l3.3,0.6v-2.6l-4.7-4l-0.6-3.3l0.6-3.3l2,2.6l6.6-4l0.6-4
	l4,2l5.3,7.2l8-11.9l6.6-2.6l4,2l0.6,5.9h6v11.2l5.3,7.9v3.3l-3.3,4.6l-0.6,4l4.7,10.5l14,8.6l-3.3,1.3l-2,4.6l6,10.5l0.6,4.6
	l-2,3.3l4.7,11.9l4.7,2l3.3,1.3l1.3,2l-5.3,2.6v5.9l-4,1.3l-3.3,2.6l-2.7,7.2l0.6,9.9l-4.5,0.8l-2.7-2.6l-0.6,3.3h-2l0.6,4.6
	l-7.3,7.2l-5.3,3.3h-2l-6-4l-4,4h-2l-4-2.6v4.6l-3.3,3.3l-1.3-5.3l-2.7-1.3l-6,6.6l-4,1.3l-3.3,3.3l-2-4l-2.7,4.6h-4l-4-3.3l-1.3,2
	l-2.7-4L307.1,487.3L307.1,487.3z"/>
<g>
	<text transform="matrix(1 0 0 1 332.6048 431.3232)" class="st1 st2 st3">Tangail</text>
</g>
<path id="jamalpur" inkscape:connector-curvature="0" sodipodi:nodetypes="cccccccccccccccccccccccccccccccccccccccccccccccccccccccccccccccccccccccccccccccccccccccccccccccccccc" class="st0" d="
	M283.9,285.7l9.3-9.9l-0.6-5.9l4.7-5.3l4.7,0.6l4-5.3l-0.6-6.6l-3.3-5.9v-11.2l6.6-4.6l-3.3-2v-4.6l7.3,5.3l-2,10.5l4,4l-0.6,5.3
	l4.7,3.3h4.7l3.3-4.6l6,1.3l4-0.6v9.9l-1.3,1.3l-4-2.6l-2,9.2l-4,4l2,4.6l5.3-0.6l-0.6,3.3l-2.7,3.3l-0.6,5.3l6,4.6l-0.6,4l-4.7,2.6
	l0.6,2.6h-3.3v3.3l3.3,6.6l0.6,4l4-0.6l3.3,4l-1.3,4l4.7,2l15.3,4l1.3,4.6l8.7-7.2l12.6,5.9l-0.6,7.9l-6,6.6l-4.7-0.6h-10.6l-6,1.3
	l-9.9,11.9l-3.3-4.6l-1.3-2l-4.7-2v4l-5.3,3.3l-2.7-2l-2,4l2,4l4,2.6l-1.3,2.6l-2-0.6l-2.7,5.9h-3.3v4.6l-4,1.3v7.2l-3.3,1.3
	l-5.3-0.6v-5.9l-4-3.3l5.3-0.6l2-13.9l-5.3-5.9l4-0.6l0.6-4.6l-6-4l-2.7-0.6l-1.3,2.6l-4-4.6h2l1.3-3.3l-0.6-3.3l-4.7,0.6l-5.3-5.9
	l-0.6-5.3l3.3-0.6l-0.6-5.9l-2.7-3.3l0.6-3.3l-2.7-2.6l2.7-2.6v-5.9h-4.8l4-4.6l-3.3-2l2-4.6L283.9,285.7L283.9,285.7z"/>
<g>
	<text transform="matrix(1 0 0 1 293.1653 324.3837)" class="st1 st2 st3">Jamalpur</text>
</g>
<path id="bagerhat" inkscape:connector-curvature="0" class="st0" d="M301.6,686.6l7.5-2.8l-1,8.4l7.5,2.8l-4.7,4.7l1,4.7l6.6,4.7
	l8.5-2.8l5.6,6.5l1,13.1l-6.6,2.8l-3.7,1.9l-1,6.5h9.4l1.9,1.9v10.3l3.7,9.3l-2.8,4.7l3.7,12.1l-7.5-3.7l-5.6-2.8l-1.9,1.9l10.3,7.4
	v2.8h-2.8l-4.7,5.6v12.1l-5.6,9.3l-1.9,5.6l-1,11.2l5.6,8.4l1.9,10.3l-7.5,10.3l2.8,6.5l-1,12.1l3.7,10.3v5.6h-3.7v5.6l-13.2,8.4
	l-4.7-3.7l-11.3-0.9l-6.6,1.9l12.2,9.3l-2.8,5.6h-10.3l-7.5-1.9l4.7,9.3l-6.6,1.9l-7.5-2.8l2.8-6.5l-5.6-8.4V898l-1-7.4l1.9-14.9
	l-1.9-8.4l4.7-13.1l1-15.8l-3.7-14l11.3-9.3l6.6-4.7l1.9-14.9l-7.5-14.9l-2.8-2.8v-6.5l-4.7-9.3l-1.9-12.1l8.5-14l3.7-11.2h5.8
	l6.6-7.4v-6.5l-3.7-2.8v-5.5l10.3,0.9l2.8-7.4L301.6,686.6L301.6,686.6z"/>
<g>
	<text transform="matrix(1 0 0 1 284.1595 786.2275)" class="st1 st2 st3">Bagerhat</text>
</g>
<path id="gopalganj" inkscape:connector-curvature="0" class="st0" d="M309.1,684.3l0.5-2.8l-6.6-3.7l-3.3-8.4l-9.4-9.3l6.6,0.5
	l3.7-9.3l1-5.1l-4.7-1.9l-5.6,4.2l-1-0.9l1.4-4.2V641h2.8l8.5-5.6l1-4.2l-4.7-2.8l1-3.3l8.9,0.5l8.9-7.4l4.2,0.5l3.3,2.8l2.8-2.4
	l3.3,0.5l1,5.1l4.2-2.8l5.2-0.5l-2.8-5.1l2.8,0.5l3.7,5.6h2.4l1.4,3.7h1.9l1.9,7l-2.4,7.9l-6.1,3.3c0,0,1.9,4.2,0,4.2s-6.1,0-6.1,0
	l-2.8,10.3l5.6,3.3l2.4-4.2l3.3-1.9l6.1,3.7l2.4,2.4l5.2-4.7l6.1,3.3l-2.4,1.9l-0.5,4.7l6.1,1.9l-2.4,0.9v6h-5.2l-1.9,4.2l-5.6,2.4
	v4.2l-1.9,0.5v2.4l-3.7,2.8l-1.9,7.4l-1.9,2.8l-0.5,1.9l-4.7,0.9h-6.6l-1,5.1h-1.4l-5.2-3.3l-7.5,0.5l-6.6-3.7l-1-3.3l4.2-3.7
	l-7.1-4.7L309.1,684.3L309.1,684.3z"/>
<g>
	<text transform="matrix(1 0 0 1 307.1829 675.0263)" class="st1 st2 st3">Gopalganj</text>
</g>
<path id="faridpur" inkscape:connector-curvature="0" class="st0" d="M255.5,567.4l4.2,0.9l0.5,3.3l2.8,1.4l4.2-2.4l-4.7-2.8
	l1.9-2.4l7.1,2.8l1-2.8l2.4,0.5l1.4,5.6l3.7,0.5l7.5-7.4l1.4,7.9l6.6,0.9l1.4-3.7l1.9,3.3l4.2,0.5l1.9-3.3l-5.6-2.8v-10.7l4.7,1.9
	l1-3.3h6.6l0.5-3.3h1.4l3.7,0.9l1.4,3.7l13.6,2.8l4.7,5.6h3.7l2.4,5.6l14.5,2.4l8.5,6l4.2,7.4l0.5,8.8h-3.7l-0.5,7l-3.7,3.3l5.2,3.3
	l-2.4,6l-2.8,8.8l-3.3-1.4l-5.2-3.3l-2.4,6.5l-2.4-0.5l-0.5-3.3h-2.8l-3.3-5.1l-4.2-0.5l3.3,4.2l-3.7,0.5l-5.2,3.3l-0.5-5.1h-4.2
	l-2.8,2.4l-2.4-3.7l-4.2-0.5l-8,7.9l-10.8,0.5l-1,2.8l4.2,2.4l-0.5,2.4l-1.4,2.4l-6.1,5.1h-4.7l-2.4-2.8h-7.1l-2.4-4.2l4.7-5.1
	l-6.1-1.4l-1.4-5.1V613l-3.3-2.4l2.8-2.8l7.5,5.6l-2.8-5.1l-5.2-7.9l0.5-6.5h-1.4l-2.4-4.2l-3.7-3.3l-11.3-0.5l-0.5-1.9l2.8-2.4h3.3
	l0.5-1.9l-5.2-4.7L255.5,567.4L255.5,567.4z"/>
<g>
	<text transform="matrix(1 0 0 1 294.806 598.9697)" class="st1 st2 st3">Faridpur</text>
</g>
<path id="khulna" inkscape:connector-curvature="0" class="st0" d="M224.1,907.6l-1.3,11.9l7.3,4.6l2-7.2L224.1,907.6L224.1,907.6z
	 M230.4,734l-2.3,1l-1,4.9l-3.3-1.7l-1.3-3.6l-3.6,5.9l2.7,2.9l4.3,0.3l1.7,4l-4,5.3l-3.3-5.6l-4.3,4l-0.3,14.2l6.3,12.5l-6.3,3.3
	l-0.6,12.2l6.3,4.9l-3.6,2.3l-0.3,3.6l7,11.2l-3,15.8l-9.3,16.8l11-0.3l-4.3,4.6l11.6,24.7l2.7,6.6l4.3,1.3l0.3,4.3l-7,1.3l-5.3,8.9
	l3,2.6l2,5.9h3l1,5.3l2,6.6l8.3,0.6l5-7.6l2.7-1.7l2.7-4.9l-1.3-2.9l-1.7-4l-6.3-4l5-2.6l9-9.2l0.6-7.2l0.3-8.2h2.7l4.7-17.1
	l0.3-13.5l-3-12.5l9-8.9l2-4.3l3-0.6l4-6.6v-8.2l-6-17.4l-3.3-1.7v-7.9l-4.7-9.9l-1.3-11.2l2.7-6.3l5.3-5.3l3.3-11.6l2.7-2.3
	l2.3,1.7l5-4.9l2.3-4.6l-1-5.3l-2-2v-4.3l7-0.3l4.3-3.6l2.7-13.9l-15.3-5.3l-6.6,5.9l-7.6-4.6l-3.3,4.3l-3.3,2l-7.6-1l-3-2
	l-5.3-10.2l-5,2l1.7,5.3l-5,5.9l-8.3,4l-1,2.6l2.7,2.9l-0.6,12.8l-7.6-3.6l0.6-3.3l-3-1.3l-0.3,2.3l-6,5.3l-4.3-0.6l4.7,7.9l6.6,2.9
	l5,8.6L230.4,734L230.4,734z"/>
<g>
	<text transform="matrix(1 0 0 1 232.679 802.204)" class="st1 st2 st3">Khulna</text>
</g>
<path id="satkhira" inkscape:connector-curvature="0" class="st0" d="M182.2,879.8l-6,2.6l1.3,5.3l4,5.9l-3.3,11.2l0.6,4l5.3,1.3
	l6,8.6l5.3,0.6l2-4l-0.6-4l-2.7-3.3l-4.7-0.6l-4.7-4l0.6-11.2L182.2,879.8L182.2,879.8z M170.8,686.9l4.7,5.9l-3.3,4l-4-2.6
	l-5.3,0.6l-2.7-2.6l-6,3.3l1.3,5.3l4,4.6l2-3.3l2.7,1.3l-0.6,3.3l2.7,1.3l-0.6,4l-4,4l2.7,2.6l-2.7,0.6l-0.6,5.9l-4-2l1.3,5.9
	l5.3,7.2l-6,11.2l6.6,4.6l-1.3,4l-1.3,5.3l6,4.6l-1.3,5.9l4,6.6l0.6,7.2l2.7,2l-6,2l0.6,4l2.7,2l-2.7,11.2l6.6,0.6l1.3,5.3l-5.3-1.3
	v3.3l4,4.6l4,0.6v5.9l4.7,4l0.6,8.6l6-1.3l-4.7,6.6h-6l-0.6,5.3l2,6.6l6,10.5l-2,1.3l-0.6,15.8l4.7,5.9l0.6,8.6l0.6,4.6l8,4l6-2.6
	l4,7.9l-1.3,3.3l4,4l-2.7,5.9l-6,6.6l8,3.3l8-2l-1.3-3.3h4.7l0.6-4l-3.3-2l2.7-4v-13.2l-2.7-1.3l5.7-4.6l4.3-12.5l4-4l-2-5.9
	l-5.3-9.9l-5.3-10.5l-2-4.6l4.7-4.6h-11.3l6.6-9.2l3.3-7.2l2.7-16.5l-6.6-10.5v-3.3l4-3.3l-6.6-4.6l0.6-12.5l6-3.3l-6-11.2l0.6-15.1
	l4-4.6l3.3,5.9l4-5.3l-1.3-3.3l-4-0.6l-2.7-2.6l2.7-5.3l1.3,2.6l3.3,1.3l1.3-4.6l3.3-2l-0.6-3.3l-6-9.9l-6.6-3.3l-3.3-5.9l-1.3-2
	l-5.3,4l-4.7,0.6l-4-4l-2,1.3l-2.7-5.9l4-1.3l-6-5.9l5.3,1.3l-2.7-7.9l-4-2.6l-0.6,4.6h-10.6L170.8,686.9L170.8,686.9z"/>
<g>
	<text transform="matrix(1 0 0 1 176.179 768.5576)" class="st1 st2 st3">Satkhira</text>
</g>
<path id="narail" inkscape:connector-curvature="0" class="st0" d="M247.3,634.8l-3.3-4.6l5.3-0.6l5.3-5.3l2-2l4,5.9l4.7-2l3.3-4.6
	h7.3l2,5.3h5.3l0.6,1.3l-4.7,5.3l2,4h7.3l3.3,4v2.6l-2,3.3l2,0.6l4.7-3.3l5.3,0.6l-0.6,4.6l-2,4.6l-2.7,5.3h-3.3l-5.3-1.3l8.7,7.2
	l2.7,4l2.7,6.6l7.3,4.6v3.3l-2,0.6l-6,1.3l-15.3-5.9l-5.3,5.9l-8.7-4.6l-2.7,4h-2l-7.3-8.6l2.7-4l-2-4l-6.6-0.6l-3.3-3.3l1.3-5.3
	l-2.7-0.6l-6,5.9l1.3-5.3l-0.6-4l-4-1.3l7.3-1.3l-1.3-5.9l2.7-2.6L247.3,634.8L247.3,634.8z"/>
<g>
	<text transform="matrix(1 0 0 1 256.9407 658.206)" class="st1 st2 st3">Narail</text>
</g>
<path id="jessore" inkscape:connector-curvature="0" sodipodi:nodetypes="ccccccccccccccccccccccccccccccccccccccccccccccccccccccsccccccccccccccccccccccccccccccccccccccccccccccccccccccccccccc" class="st0" d="
	M156.9,634.8l5.3-9.2l-5.3-4.6h4l6.6,3.3h7.3l-8.7-6.6l3.3-2.6l9.3,0.6l-4.7-5.3l2-3.3l1.3,2.6l8,2.6l-3.3,2.6l2,5.3l6,0.6l2.7,7.9
	l8-1.3l8.7-2l-2.7-5.3l0.6-2.6l3.3,2.6l4-3.3l-1.3-4l2.7-1.3l8.7,5.9l3.3-0.6l0.6,3.3l4,4l3.3,0.6l2-2.6l3.3,4.6l6,2l-2,3.3l3.3,2
	l-2,2l0.6,7.9l-2,2.6l1.3,5.9l-6,0.6v2l3.3,1.3l0.6,2.6l-2,0.6l0.6,4.6l6-4h2l-0.6,6.6l4,1.3v1.3h6l1.3,2l-1.3,4.6l4,6.6
	c0,0,3.3,4.6,0.6,4.6c-2.7,0-4,0-4,0l-4.7-1.3l-2-2l-3.3-7.9l-2-2l-4.7,3.3l1.3,4.6l-4,5.9l-8.7,4l-0.6,3.3l2.7,3.3l-0.6,8.6
	l-0.6,2.6l-7.3-3.3v-3.3l-2.7-0.6l-0.6,2l-6,5.3l-4-0.6l-6,3.3h-4l0,0l-4.7-3.3l-0.6,0.6l-2.7-2l-0.6-3.3l4-0.6l-4.7-5.9l4,0.6
	l0.6-2l-2.7-4.6l-5.3-3.3l-0.6,4h-10.4l-4.3-3.3l-3.3-2l0,0l2.7,6.3l-2.7,2.6l-9.9-1.3l-2.7-2.9l-3.3,2h-2.7l2-4l-8-3.3l1.3-11.9
	l4-1.3l-2-3.3v-3.3l-2.7-2l5.3-8.6l6.6-2.6l-0.6-5.3l6.6-4.6l2.7,2l2-4l-2.7-1.3l-0.6-3.3l-6,4.6l-3.3-2L156.9,634.8L156.9,634.8z"
	/>
<g>
	<text transform="matrix(1 0 0 1 191.1126 662.5693)" class="st1 st2 st3">Jessore</text>
</g>
<path id="magura" inkscape:connector-curvature="0" class="st0" d="M217.4,612.5l-3.3-2v-3.3l4.7-7.9l3.3,0.6l5.3-6.6v-7.9l-0.6-6.6
	l2-5.3h4.7l1.3-2l-3.3-0.6v-4.6h2v-2.6l-2.7-2.6l0.6-2.6l3.3,1.3l1.3-2.6l-0.6-4l0.6-2l8.7,0.6l1.3,3.3l6.6,5.3l2,6.6l2.7,3.3v4.6
	l2.7,3.3l2.7,1.3v2.6h-3.3l-2.7,2l0.6,2h9.9l5.3,3.3l1.3,4.6h2v7.2l4.7,7.2l1.3,4l-6-4l-2.7,2.6l3.3,1.3v8.6h-8l-3.3,5.9l-3.3,1.3
	l-4.7-5.9l-2.7,1.3l-4,5.3l-2.7,1.3h-1.3l-3.3-4l-2,0.6l-4-4.6h-0.6l-1.3,1.3h-3.3l-3.3-2.6l-0.6-4l-4,0.6L217.4,612.5L217.4,612.5z
	"/>
<g>
	<text transform="matrix(1 0 0 1 231.1868 601.7509)" class="st1 st2 st3">Magura</text>
</g>
<path id="jhenaidah" inkscape:connector-curvature="0" sodipodi:nodetypes="ccccccccccccccccccccccccccccccccccccccccccccccccccccccccccccccccccccccccccccccccccccccccccccccccccccccc" class="st0" d="
	M129.7,609.8l8,2l4-2.6l2.7,3.3l5.3,0.6l0.6-7.2l4.7,0.6l8.7-5.3l-0.6-3.3l-5.3-3.3l2.7-1.3l1.3-9.2l-2-3.3l-3.3-2l4-2l8,3.3
	l0.6-3.3l-2.7-3.3l-0.6-2h4l5.3-9.2l-0.6-10.5l4.7-2l2-4.6h3.3v-2.6l-3.3-4l0.6-2.6l4,2v3.3l4,1.3l0.6,4h2.7l2.7-4l4.7,2l3.3-4.6h6
	l2-4l8,5.6l5.3,1l0.6,2.6l9.3,7.9l0.6,4l-1.3,2h-2l-1.3,2.6l2,2l0.6,2.6l-2,0.6v4l2.7,1.3l-0.6,1.3h-3.3l-3.3,5.3l0.6,7.2l-0.6,7.2
	l-2,3.3l-2.7,2.6l-3.3-0.6l-4,7.9l-0.6,4.6l2.7,0.6l-2.7,2v3.3l-3.3,3.3l-2.7-2.6l-1.3,2l2,5.3l-4.7,2l-11.3,2l-3.3-7.9h-5.3
	l-2.7-5.9l4-2.6l-6.6-2.6l-2.7-2l-2,2l4,5.3h-6.6l-5.3,2.6l4,4l4,2l-5.3,0.6l-8.7-2.6l-2,0.6l4,2.6l-2,4.6l-2,3.3l-0.6,3.3h-11.3
	L140,633v4.6l-6.6-0.6l-1.3-3.3l-5.3-0.6l-3.3-2v-3.3l-4-2.6v-3.3l1.3-2.6l5.3-1.3l-0.6-3.3L129.7,609.8L129.7,609.8z"/>
<g>
	<text transform="matrix(1 0 0 1 174.265 589.4579)" class="st1 st2 st3">Jhenaidah</text>
</g>
<path id="chuadanga" inkscape:connector-curvature="0" sodipodi:nodetypes="ccccccccccccccccccccccccccccccccccccccccccccccccccccccccccccc" class="st0" d="
	M108.4,567l11.3-8.6l3.3,0.6l2.7-3.3l5.6-1.2l4.6-5.5l0.5-12.4l5.3-0.7l-1.3-5.8l4-3.3l3.3,2.6l1.4-6l3.3,3.3l7.6,0.6l-4.3,4l5.3,2
	l1.4,3l3.9,4.9l1.3-3.3l3.3-3.3l2.7,3.3l0.7,15l-0.1,8.8l-2,7.2l-1.7,2.3l-4.3,1v2l2.7,2l-0.6,3.3l-7.3-1.3l-4,1.3l3.1,0.7l2.2,4.5
	l-0.6,9.2l-3.3,1.3l3.9,2.2l1.4,3l-7.2,5.6l-6.2,0.2l-0.6,6.1h-4.7l-3.8-3l-4.2,1.7h-6l-2-2v-7.9l2-5.9l4,1.3l-0.5-4.4l1.6-3.9
	l-1.7-1.8l-3.3-0.5l2.9,2.8l-4.9,3.7l-2.7-2.6l0.6-2.6l-2.3-2.1l-5-2.5l-8.6-6.6l2-4.6L108.4,567L108.4,567z"/>
<g>
	<text transform="matrix(1 0 0 1 117.1263 570.665)" class="st1 st2 st3">Chuadanga</text>
</g>
<path id="meherpur" inkscape:connector-curvature="0" sodipodi:nodetypes="cccccccccccccccccccccccccccccccccccccccccccccccccccc" class="st0" d="
	M126.3,496.5l8,8.6l0.6-6.6l4,4v4l2,2.6l4-4l4.7,7.2l-6,4l4,3.3l4-1.3l1.3,2.6l-4.7,2v1.3l-0.6,4l-3.3-2l-2.7,4l0.6,5.9l-6,0.6
	l0.2,12.5L131,555l-5.1,0.8l-3.5,2.6l-2.7-0.6L111,565l-1.3,2l-9.6,0.5l1-7.1l-4.7-1.3l-1.3-2.6l3.3-2l1.3-4.6l-3.3-1.3l0.6-7.2
	l3.3-3.3l-4.7-6.6l3.3,1.3l4-4v-1.3l-2-2l0.6-7.2l-1.3-1.3l4-2l3.3,1.3v4l2.3-2.9l4-0.2l7-7.4l4.3-0.5l1.5-4l-1.2-5.5L126.3,496.5
	L126.3,496.5z"/>
<g>
	<text transform="matrix(1 0 0 1 105.6146 534.706)" class="st1 st2 st6">Meherpur</text>
</g>
<path id="rajbari" inkscape:connector-curvature="0" sodipodi:nodetypes="ccccccccccccccccccccccccccccccccccccccccccccccccccccccccccccccccccc" class="st0" d="
	M228,526.8v-8.6l-3.3-2.6l4-2l9.3,0.6l5.3,0.6l3.3,4v4.6l1.3,4.6l9.9,5.9l-2.7-7.2l5.3-0.6l1.3,3.3l3.3,2l9.3-5.9l3.3,2l-0.6,3.3
	l3.3,4v-5.3l14.6-0.6l7.3,1.3l4.7,5.9l0.6,7.2l-6-4.6l-4.7-5.9h-15.9l-0.6,2.6h13.3l6.6,4.6l8.7,6.6l3.3,2.6l2.7,1.3l-3.3,1.3
	l-0.6,3.3h-6.7l-0.6,3.3l-4.7-1.3v9.2l5.3,3.3l-1.3,3.3h-4.7l-1.3-3.3l-1.3,3.3l-6.6-0.6l-1.3-7.9l-8,7.2h-3.3l-1.3-5.9h-2.7
	l-1.3,2.6l-6.6-3.3l-1.3,2.6l4,2.6l-4,2l-2.7-0.6v-3.3l-5.3-0.6l-2.7-7.2l-6.6-4.6l-0.6-4l-9.3-0.6l-1.3,2l-8-7.2l-1.3-4l-2-4
	l4.7-4.6L228,526.8L228,526.8z"/>
<g>
	<text transform="matrix(1 0 0 1 254.0267 545.9872)" class="st1 st2 st3">Rajbari</text>
</g>
<path id="kushtia" inkscape:connector-curvature="0" sodipodi:nodetypes="ccccccccccccccccccccccccccccccccccccccccccccccccccccccccccccccccccccccccccccccccccccc" class="st0" d="
	M116.3,460.3h7.3l6.6,5.9l9.3,5.3l7.3,0.6l7.3,1.3l2.7-4.6l5.3,3.3h8.7l4,7.2l-1.3,5.9l2,5.9l2.7,0.6l3.3,0.6v4l6,2.6l2,5.3l2.7-3.3
	l3.3,2l4,4.6l9.3-0.6l-6.6-5.9l8-2l7.3,5.3l-5.3,2l0.6,4l6,4.6l4,2.6l4-0.6l2.7,1.3l-0.6,5.9l-0.6,9.2l-4.7,5.3l1.3,3.3h-4.7l-8-5.3
	l-2-0.6l-1.3,4h-6l-3.3,4.6l-4-1.3l-5.3,4.6l-0.6-5.9h-4l0.6-4l-4.7-1.3l-0.6,2.6l3.3,4.6l-4.7,1.3l-0.4,4.4l-4.9,2.1v-8.6l-0.6-5.9
	l-2.7-3.3l-2.7,2l-3.3,4.6l-3.3-7.9l-5.3-1.3l3.3-4l-6-1.3l-4.7-3.3l2.7-2.6v-2.6l-4,0.6l-2.7-2l4.7-2.6l-2-5.3l-2.7-3.3l-4.7,2.6
	l-2-6.6l-2-2.6h-2v5.3l-7.3-7.9h4l2.7-1.3l-4-4l-3.3,0.6l-2,1.3l-0.6-4l4.7-1.3l-6-3.3l4-2l-8-5.9L116.3,460.3L116.3,460.3z"/>
<g>
	<text transform="matrix(1 0 0 1 155.6927 513.6533)" class="st1 st2 st3">Kushtia</text>
</g>
<path id="pabna" inkscape:connector-curvature="0" class="st0" d="M170.8,472.8v-4.6l2.7-4.6l3.3,3.3l13.3-2.6l6.6-5.3l1.3-5.3
	l4,1.3l6-3.3l4-11.9l4,2l0.6-5.3l5.3-5.3l14,3.3l4.7,2v6.6l2,4l4.7-2.6l4,1.3l-2.7,2v5.3l2.7,2h6l2.7-3.3l2.7,4.6l-4,3.3h3.3v4
	l-4.1,1.9l1.3,4.6l6,0.6l8.7,7.2l6-0.6l8.7,7.2l4.7,6.6l-6.6,1.3v4l-2.7,0.6l0.6,5.9l3.3,4l5.3-1.3l2.7,7.9h-2.7l-5.3-5.9l2,7.9
	l8,1.3l6,4l-6,2l-3.3,2l-8-0.6l-8-3.3l-9.3,2.6l-6,2.6l-15.9-9.9l-2.7-6.6l-8-8.6h-3.3l2.7,6.6l-3.3,4l-7.3-1.3l-4.7-6.6l-6.7-7.2
	l-2.7-1.3h-9.3l-4-2.6h-7.3l-4-0.6l-5.3,4.6v-3.3l-5.3-2l-2.7-5.3l1.3-8.6L170.8,472.8L170.8,472.8z"/>
<g>
	<text transform="matrix(1 0 0 1 223.9388 481.4384)" class="st1 st2 st3">Pabna</text>
</g>
<path id="sirajganj" inkscape:connector-curvature="0" class="st0" d="M220.7,430v-9.9l-3.3-2.6v-2.6l-4.7-4l18-21.7l-1.3-2.6h11.9
	l4.7,4h4.7l6-3.3l5.3,2.6l1.3-4.6l2.7,5.3l4.7,1.3v-3.3h3.3l3.3-2.6l-5.3-3.3l2.7-2.6l-4.7-4l-4,0.6l-1.3-0.6l3.3-3.3l-3.3-2l2-7.2
	v-4.6l3.3,3.3l4-1.3l4,4l8.7-9.2l-1.4-4l1.3-6.6l8,0.6l2.7,3.3l2,2l1.3-2.6h2l3.3,3.3l2,0.6l0.6,4l-4,0.6l-0.6,2l4,3.3v9.9l-1.3,5.3
	h-4l3.3,4l0.6,4.6l-3.3,2l-0.6,4l-2.7-0.6l-3.3,4l3.3,4.6v5.3l-4.7,3.3l-2,3.3l9.3,9.9l-4,4l0.6,2.6l4.7,3.3l3.3,5.3l-1.3,19.1
	l2,2.6l-2,2v2.6l2,0.6l2.7,2.6v2l2,2l-0.6,7.9l-4.7,9.2l-8.7,3.3h-4.7l-5.3-6.6l-8-5.9h-6l-8.5-7.4l-6.6-1.3l-0.6-3.3l3.3-1.3
	l0.6-4.6l-2.7-1.3l2-1.3V455l-2.7-3.3l-2,1.3l-6,1.3l-2-1.3v-4.5l2.7-1.3c0,0,0-4-2.7-4s-3.3,0-3.3,0l-2,3.3h-1.3l-1.3-4v-5.3l-6-4
	l-5.3-1.3L220.7,430L220.7,430z"/>
<g>
	<text transform="matrix(1 0 0 1 244.2376 425.5458)" class="st1 st2 st3">Sirajganj</text>
</g>
<path id="natore" inkscape:connector-curvature="0" class="st0" d="M147.6,471.5v-3.3l6.6-0.6l-1.3-3.3l-8.7-1.3l2.7-2.6l-2.7-1.3
	l4-2l-2.7-4l10.6-4l-3.3-5.3v-3.9l-6.6,0.6l-2.7-6.6l8.7-5.9l-1.3-21.1l6.6-4.6l-4.7-4.6h-4l6-4l6.6,1.3l2.7-5.3l-0.6-2.6h4.7
	l-0.6,3.3l4,3.3l5.3,0.6l4.7,0.6l6-4l0.6-7.2h-2.7V378l5.3-6.6l4.7,7.9l2.7-6.6l2.7,1.3l4-4l2,2.6l-4,4.6l8,5.9l0.6-2.6l-2.7-3.3
	l3.3-3.3l6,1.3l4,3.3l4,3.3l2,4.6l2,2l-11.3,15.1l-6.6,7.9l4,2l1.3,4l3.3,2l0.6,12.5l-5.3,5.3v3.3l-3.3-0.6l-6,11.9l-4.7,2.6h-4
	l-2,4.6l-6,4.6l-12,2.6l-2.7-2.6l-2-0.6l-2.7,4.6v4.6l-8-0.6l-6.6-2l-2.7,3.3L147.6,471.5L147.6,471.5z"/>
<g>
	<text transform="matrix(1 0 0 1 171.8353 424.1357)" class="st1 st2 st3">Natore</text>
</g>
<path id="bogra" inkscape:connector-curvature="0" class="st0" d="M164.9,353.6l-0.6-13.9l-2.7-2l5.3-4.6h4l2,4.6l0.6-4.6h2v4
	l4.7-5.9l3.3,3.3l8-6.6l-6.6-6.6l3.3,1.3l0.6-9.9l4,2l0.6,4l7.3,0.6v2.6h5.3l-0.6-4l-3.3-2v-4l3.3,0.6l4-10.5l4.7,2.6l-2-4h4.7
	l-3.3-4.6l6.6-4l0.6-4.6l-2.7-0.6l2.7-2.6l7.3,1.3l4.7,2.6l1.3,5.9l6,1.3l1.3-3.3l6,3.3l2-4l5.3,5.3l8,1.3l3.3,3.3h2.7l2-4.6
	l11.3-1.3l2,3.3l2,0.6l-2,5.3h2.7l1.3,4.6l-2.7,4l2.7,2l-1.3,3.3l2.7,4l0.6,4.6l-3.3,0.6v5.9l5.3,5.9h4.7l2,3.3l-1.3,2h-9.2l-1.3,2
	v4h-1.3v4.6l-6.6,9.2l-4.7-4.6l-3.3,2l-2.7-2.6v3.3l-2.7,2.6l-0.6,5.3l2.7,1.3l-1.3,3.3l0.6,1.3l4-0.6l4,3.3l-2.7,3.3l4.7,2.6
	l-2.7,3.3h-4l-0.6,2.6l-4-1.3l-2.7-4l-0.6,3.3h-4l-2-2.6l-5.3,2.6l-4.7,0.6l-5.3-3.3l-13.3,0.6v-3.3l-3.3-4.6h-2l-4-4l-5.3-0.6
	l-2.7,2l1.3,5.3l-0.6,2l-7.3-5.9v-2.6l2.7-2l-1.3-3.3l-4,3.3l-2-2l-3.3,7.2l-4.7-9.2l3.3-4l-0.6-9.9l-3.3,3.3l-6.6-0.6l0.6-3.3
	l-6-9.9l-4.7,5.3l-2-2.6L164.9,353.6L164.9,353.6z"/>
<g>
	<text transform="matrix(1 0 0 1 217.4564 340.4853)" class="st1 st2 st3">Bogra</text>
</g>
<path id="nawabganj" inkscape:connector-curvature="0" class="st0" d="M85.8,356.9l-4-3.3l-4.7-1.3l0.6-2.6l9.3,2l-2-4h-6l-6-2.6
	l3.3-4l-6-1.3l-2.7,2.6l-5.3-2.6l1.3-4.6l5.3,2l1.3-2.6l7.3,0.6l2-2.6l5.3-8.6l-6.6-6.5l-2,5.9l-4,0.6l1.3-6.6l-4-4.6l-4-0.6l-2,4.6
	l-8-0.6l-1.3,5.3h-2l-0.6,2.6h4.7v3.3l-2.7,4l-1.3-4l0,0l-3.3,3.3l-1.3-3.3l-4-2.6l-2,4l2-6.6l-6.6-4.7l0.6-4l-4.7-0.6l-0.6,2h-5.3
	l-5.3,3.3l-0.6,3.3l3.3,3.3l1.3,9.2l-12,7.8l1.3,5.3l-4-0.6l-2,2l-0.6,5.3l-0.6,4.6l-0.6,3.3l-3.3-0.6l-3.3,2l2,2l3.3,2.6l-0.6,2.6
	l7.3,4.6l-0.6,4l4,4l-2.1,5.9l2.7,5.3l3.3,4h4.7l4,4l2.7,3.3l4.7-0.6l16.6,5.3h6.6v-3.3h-0.6l-3.3-5.3v-9.2l-3.3-4V382l8-4l5.3-0.6
	l0,0l7.3-4.6l-0.6-5.3h14l1.3-1.3l-2.7-2l-2.7,1.3l-4.7-2.6L85.8,356.9L85.8,356.9z"/>
<g>
	<text transform="matrix(1 0 0 1 19.722 363.538)" class="st1 st2 st3">Nawabganj</text>
</g>
<path id="naogaon" inkscape:connector-curvature="0" sodipodi:nodetypes="ccccccccccccccccccccccccccccccccccccccccc" class="st0" d="
	M165.5,333.8v-4.6l6.6-0.6l-1.3-11.9l2.7-0.6l-0.6-13.9l-4-6.6h-1.3l-2.7,3.3l-3.3,0.6l-3.3-5.9V291h2.7l2-10.5h-7.3l4-1.3l-4-5.3
	l2.7-3.3l-5.3-0.6h-2.7l-8.7-5.3l-2,4.6l-4.7,3.3h-1.3l-3.3-4l-3.3,2l-8-4.6l-4.7-1.3l-1.3,2.6l-12.6-0.6l-3.3,6.6h-3.3v-4l-2-2
	l-2,2.6l-2.7-3.3h-4l-3.3-2.6l-1.3,2.6l-4.7,2l0,0l-0.6,5.3l5.3,2.6v2l-4.7,2v9.2l1.3,2l-3.3-0.6l-0.6,5.9l3.3,2.6l-2.7,3.3l-3.3,2
	v4l-3.3,0.6v2.6h4.7l4,4l0.6,7.3h2v-2.6l0.6-2.6h2.7l4.7,4.6v2.6l-4.7,7.9l-3.3,1.3l-5.3,0.6l-0.6,2l-6-1.3l-2,4l4.7,2.6l2.7-1.3h8
	l-2.7,4l3.3,1.3l6.6,0.6l2,4l-3.3,0.6l-3.3-1.3h-2.7l-0.6,2l4.7,1.3l4,2l0.6,2l3.3,2l7.3,2v4.6l3.3,1.3l4-5.3l3.3,4.6l-0.6,7.2
	l2.7,2.6l0.6-1.3h3.3l4-2l9.3-6.6h2.7l0.6,2.6l4.7-0.6l0,0l3.3,4l1.3-1.3h4.7l4,4.6l0.6-1.3l4-0.6l2,2.6v6.6l3.3,2.6l3.3,0.6
	l7.3,0.6v4l1.3,1.3h2.7l0.6-2v2.6h4l1.3,4l2.7-3.3l2,0.6l4.7-4v-6.6l-2-1.3v-4.6l5.3-7.9l2-3.3l-0.6-5.9l1.3-5.3l-3.3,2.6l-7.3,0.6
	l0.6-5.9l-4.7-7.9h-1.3l-5.3,5.3l-2-0.6l-6,5.3l-0.6-14.5l-2.7-1.3L165.5,333.8L165.5,333.8z"/>
<g>
	<text transform="matrix(1 0 0 1 108.8763 333.2392)" class="st1 st2 st3">Naogaon</text>
</g>
<path id="joypurhat" inkscape:connector-curvature="0" sodipodi:nodetypes="cccccccccccccccccccccccccccccccccccccccccccccccccccccccccccccccc" class="st0" d="
	M172.2,328.6l-0.6-11.9l1.3-1.3l0.6-14.5l-4-4h-3.3l-1.3,2.6h-2.7l-2.7-5.3v-3.3l2-0.6l0.6-9.9l-4-0.6l2-1.3l-2.7-5.3l3.3-3.3
	l-0.6-4.6l1.3-9.2l8-2.6l2.7,0.6l6,4.6l7.3-1.3l3.3,4.6l9.3-1.3l7.3,2.6l-2.7,5.3l3.3,5.3l3.3,2.6l4.7,6.6l-0.6,2l6.1,4.1v2.6
	l-4,3.3l-2.7,1.3l2.7,4l-4,1.3l1.3,2.6l-4-2l-3.3,9.2h-2.7v5.3l2,2l-0.6,2.6l-3.3-0.6v-2h-7.3l-0.6-4.6l-4.7-2l-0.6,9.2h-2l0.6,2.6
	l4,2.6v2l-6,4l-2,1.3l-3.3-2.6l-3.3,4v-2.6h-3.3v2.6l-1.3-2h-4.7v-4L172.2,328.6L172.2,328.6z"/>
<g>
	<text transform="matrix(1 0 0 1 165.9486 291.2333)" class="st1 st2 st3">Joypurhat</text>
</g>
<path id="gaibandha" inkscape:connector-curvature="0" sodipodi:nodetypes="cccccccccccccccccccccccccccccccccccccccccccccccccccccccccccccccccccccccccccccccccc" class="st0" d="
	M206.1,262l11.3,4l5.3-2.6l1.3-4.6l-5.3-7.2l15.3,0.6l-6-5.9l4.7-0.6l-3.3-5.3l9.3-14.5l3.3-4l3.3,1.3l5.3-7.2l-4.7-2.6l0.6-5.9
	l-6-4.6l2-3.3l5.3-2l5.3,1.3l0.6,5.3l5.3-2.6l-3.3-4.6l8-4.6l5.3,7.2l4.7,3.3l2.7,5.9l2-4h4l5.3,4.6v2.6l3.3,3.3l-6.6,3.3l9.9,2
	l-2,2v5.9l1.3,1.3l-2,0.6v3.3l5.3,0.6l2.7-2.6v3.3l2,1.3v10.5l3.3,7.2l0.6,4.6l-4.7,6.6l-3.3-0.6l-4.7,4l-0.6,5.9l-4.7,6.6l-4,4.6
	v3.3l2,3.3l2.7,0.6l-3.3,2l-1.3,4l-1.3-2.6l-7.3-0.6l-6,2l-1.3,3.3h-3.3l-1.3-2.6l-9.9-2l-2.7-3.3l-2-0.6l-2,2.6l-3.3-2l-2-0.6
	l-1.3,2.6l-5.3-0.6l-2-6.6h-2.7l-2-2l-7.3-0.6l-2.7,3.3l-4-3.3v-2l-5.3-7.2h-2l-2.7-3.3l-1.3-3.3L206.1,262L206.1,262z"/>
<g>
	<text transform="matrix(1 0 0 1 241.4505 249.2607)" class="st1 st2 st3">Gaibandha</text>
</g>
<path id="kurigram" inkscape:connector-curvature="0" sodipodi:nodetypes="ccccccccccccccccccccccccccccccccccccccccccccccccccccccccccccccccccccccccccccccccccccccccccccccccccccccccccccc" class="st0" d="
	M260.6,182.3v-4.6l-6-5.3l6-0.6l-4-4h-4.7l-2-5.9l4.7-4v4.6l3.3,2.6l6-5.3l0.6-8.6l8.7-7.2l-0.6-2.6l-6-0.6v-4.6l-2.7,2l-6.6-9.2
	H252l2-11.9h9.3l1.3,2.6l-0.6,3.3l4,4l1.3-2.6l3.3-1.3v-3.3l-3.3-0.6l-0.6-5.9l7.3-5.3h6v-3.3l-2-1.3l-0.6-5.3l-2,0.6l-1.3,2.6
	l-1.3,2l-2.7-1.3l2.7-4.6l-1.3-2.6L272,92v-3.3h2.7l4-4.6l1.3-3.3l-0.6-4l2-2h6l4,3.3l-2.7,2.6l-0.9,3.4l-0.6,1.3l2,4l2.7-2h7.3
	l2,5.9l6.6,11.2l-2.7,1.3v4l4,1.3l3.3,9.8h6.6l-6.6,5.9l6.6,2l4.7,2v2l-3.3,3.3l-6,5.3l0.6,7.2l-3.3,4.6l2.7,4.6l2.7,4.6l-4,4v4
	l3.3,0.6l-1.3,5.3l6,4.6v17.1l-3.3,6.6l-0.6,10.5l-1.3,5.9l-2,2l-0.6,7.2l-3.3-2l-4.7-2.6v4l2.7,2l-6,4.6l-2.7-0.6v-2.6l-1.3,1.3
	l-5.3-0.6v-3.3l2.7-1.3l-2.7-0.6v-3.3l2-5.3l-8-2l4.7-2l-2.7-4v-2.6l-6-5.3h-4.7l-1.3,3.3l-2-5.3l-8-4l-2.7-7.2l-3.3-3.3
	L260.6,182.3L260.6,182.3z"/>
<g>
	<text transform="matrix(1 0 0 1 269.4818 170.4931)" class="st1 st2 st3">Kurigram</text>
</g>
<path id="rangpur" inkscape:connector-curvature="0" sodipodi:nodetypes="cccccccccccccccccccccccccccccccccccccccccccccccccccccccccccccccccc" class="st0" d="
	M218.1,251.5v-5.2l-8.7-5.9l2-3.3l-5.3-1.3v-2.6l-6.6-0.6l-5.3-4.6l3.3-0.6l-8.7-4.6l-5.3-24.4l-10.6-2.6l-4.7-10.5l-8-4.6
	l-2.7-10.5l6.6-6.6l-2-6.6l7.3-2l11.3,2l2-5.3l6.6,5.3l-0.6-7.9l6.6-6.6l2.7,5.3l8-11.9l9.9,6.6h4.7v4.6l7.3,2.6l2.7,5.9l10.6,6.6
	l1.3-2.6l8,4l2,2l-0.6,2l6,1.3l2,2.6l-6,2.6l5.3,2l2,2.6v4.6l-2,1.3v3.3l4,2l0.6,2l-2.7,2l-5.3,4l2,3.3l-3.3,2l-2-3.3l-4-1.3l-0.6,2
	l-5.3-0.6l-2.7,3.3l6.6,5.9l-0.6,4.6l4,2.6l-4.7,5.9l-4.7,0.6l-4.7,5.3l-6.6,12.5v1.3l2,3.3l-3.3,1.3l7.3,5.3L218.1,251.5
	L218.1,251.5z"/>
<g>
	<text transform="matrix(1 0 0 1 192.4661 196.2392)" class="st1 st2 st3">Rangpur</text>
</g>
<path id="dinajpur" inkscape:connector-curvature="0" sodipodi:nodetypes="cccccccccccccccccccccccccccccccccccccccccccsccccccccccccccccccccccccccccccccccccccccccccccccccccc" class="st0" d="
	M109.7,111.9l-3.3,3.3l-1.3,5.3l-4.7,1.3l-4-5.9l-1.3,4.6h-4.7l-2,7.2l3.3,2v2l-4-0.6l-6,13.2l2,3.3l-1.3,2l-5.3,0.6l-0.6-4l-2,1.3
	l-7.3-1.3l1.3,6.6l-3.3-1.3l-0.6,5.9l3.3,2l-2,4.6l0.6,4.6l6.6,5.3v5.3l2.7,2l-0.6,5.9l-2.7,1.3v5.3l4,2.6h6v5.3l4.7,3.3l2,4.6
	l8,0.6l4.7-1.3l1.3,3.3l6,0.6v2.6l9.3,1.3l2.7-2.6l3.3-2c0,0,8,3.3,6,0.6s-2-7.2-2-7.2l4,4l4-4v6.6l3.3,1.3l2.7,5.9l-2.7,6.6l-3.3,2
	l4,2l0.6,5.3l8.7,8.6l2-3.3l2,2.6v2.6l16.6,1.3l2,2.6l-0.6,4.6l7.3,4l6.6-1.3l3.3,5.3l9.3-1.3l19.9,4.6l5.3-2.6v-4.6l-5.3-5.9
	l-0.6-5.9l-7.3-5.9l1.3-2.6l-2-1.3h-3.3l-0.6-4h-6l-4-4.6l2-1.3l-6.6-4l-4.7-18.5l-2.7-6.6l-9.9-2L169,185l-9.3-5.9l-1.3-9.2l-7.3-2
	l-2.7-2.6l-4-0.6l2-7.2h-6.6l-0.6-15.8l-5.3-9.2l-6-1.3l-2-5.3v-5.9l-11.3-2L109.7,111.9L109.7,111.9z"/>
<g>
	<text transform="matrix(1 0 0 1 108.8763 191.2997)" class="st1 st2 st3">Dinajpur</text>
</g>
<path id="lalmonirhat" inkscape:connector-curvature="0" sodipodi:nodetypes="ccccccccccccccccccccccccccccccccccccccccccccccccccccccccccccccccccscccccccccccccccc" class="st0" d="
	M174.8,65.1l-2-5.3l-5.3,4l-2.7-4l4-3.3l-2-3.3l-3.3-0.6l-2,2l-6.6-3.3l-1.3-5.9l6.6-9.9l6-2v4l2,1.3l6,2l4,4l8.7-0.6l2,4.6l-4,0.6
	l3.3,4l-3.3,4h8l2.7,4.6l-0.6,2h-4l-4-4v5.9l3.3,4l5.3,5.9l0.6,4l-2,2l6,11.9l10.6,2l5.3,5.3l0.6,4l-2.7,1.3l0.6,1.3l4.7,0.6
	l5.3,2.6l4.7,5.3l8.7,2l4-7.2l2.7,0.6l0.6,3.3l3.3,1.3l2.7,2.6l2.7-2l-1.3,12.5l5.3,0.6l7.3,7.9l1.3-0.6v4h6l0.6,2l-6,7.9l-3.3,0.6
	l0.6,7.9l-7.3,5.3l-2-0.6l-0.6-5.9l-2,0.6l-1.3,3.3l-5.3-0.6l-4-1.3l-0.6,1.3l-13.3-7.9c0,0,3.3-4,0-4.6c-3.3-0.6-6.6-2.6-6.6-2.6
	v-4.6l-4,0.6l-6-4.6l-6.6-2.6l-4-4.6l-8.5-2.8l-4.1-6.4l-3.3-15.1l2-9.9v-4l-10.6-6.6l0.6-13.2l5.3-2l-3.3-4.6L174.8,65.1z"/>
<g>
	<text transform="matrix(1 0 0 1 196.8392 126.2001)" class="st1 st2 st3">Lalmonirhat </text>
</g>
<path id="thakurgaon" inkscape:connector-curvature="0" sodipodi:nodetypes="ccccccccccccccccccccccccccccccccccccccccccccccccccccccccccccccccccccc" class="st0" d="
	M22,160.6l-3.3-5.9l-4-5.3l2.7-5.9l-6.6-1.3l2-10.5l4.7-3.3l-0.6-4l2.7-5.3l8-5.3l2.7-7.2l-6-3.3l3.3-5.9l1.3-5.9l7.3-2.6v-6.6
	l9.9,1.3l7.3-2l9.9,6.6l2-5.3l6.8-1.4l5.8,2.1l5.3-0.6l13.3,3.3l5.3,5.9l4.7,2l6.6,7.9l-4.7,6.6l1.3,4.6l-3.3,3.3l-1.3,5.3h-4.7
	l-3.3-5.3l-2,4h-4l-2,7.2l2.7,2.6l-3.3,0.6l-4,6.6l-1.3,4l-2,4l2.7,3.3l-4,0.6h-2.7V146l-8.7,0.6v5.3h-3.3l-0.6,6.6l4,2l-2.7,2.6
	v5.9l3.3,2l4,3.3l-0.6,4.6l-4.7,0.6l-4-4l-3.3-2v-2.6l-4.7-4.6h-4l-1.3-4.6l-7.3-4l0.6-3.3l-0.6-2l-6,2l-4,3.3l-3.3-4L22,160.6
	L22,160.6z"/>
<g>
	<text transform="matrix(1 0 0 1 32.347 130.5966)" class="st1 st2 st3">Thakurgaon</text>
</g>
<path id="panchagarh" inkscape:connector-curvature="0" sodipodi:nodetypes="ccccccccccccccccccccccccccccccccccccccccccccccccccccccccccccscccccccsccccccccccccccccccccccc" class="st7" d="
	M57.2,34.8l-1.3-4.6l-1.3-3.3l3.3-4.6l2.7-5.9l2.7-7.9l5.3-7.9l1.3,8.6l0.6,4.6l5.3,5.3l5.3-1.3l1.3,4.6l5.3,1.3l0.6,4l5.3,2
	l0.6,2.6l5.3,1.3l3.3-4l2,5.3l2.7,3.3l4,2.6l1.3,2.6l3.3-1.3l2,2l-2,4.6l2,2l2.7,2v1.3l5.3-0.6v2.6l1.3,2.6h-8.7l0.6,5.9l-6,1.3
	l-0.6,2.6l5.3-0.6l4.7-2l4.7-4l3.3,2.6l-0.6,5.9l2.7,4.6l3.3,4.6l-1.3,4.6v6.6v5.9l-2,5.3l1.3,6.6l-3.3,4.6l-4.7,6.6l-5.1-1.3
	l-7.3-0.6l-2.7-5.3l-3.3-2.6l4-7.2l-2.7-5.3l-3.3-4l-5.3-2l-2.7-2.6l-2-4l-3.3,1.3c0,0-0.9-0.6-2.7-1.3c-1.8-0.6-4.7-1.3-4.7-1.3
	l-3.3-1.3l-3.3,2.6l-5.3-1.3l-4.7-2l-4,2.6l-0.6,3.3c0,0-2.1-0.3-4.7-1.3c-2.5-1-5.3-2.6-5.3-2.6l-1.3-2l4.7-2.6l2.7-3.3l-2-4v-9.2
	l7.3-0.6l2.7-2.6l2.7-4l6-2l1.3-4.6l3.3,5.3l3.3-2l2.7-4.6L84.6,44l-2.7-4v-4.6l-4.7-4l-6.1,1.4l-3.3-5.3l-3.3,2.6l-4-0.6L57.2,34.8
	L57.2,34.8z"/>
<g>
	<text transform="matrix(1 0 0 1 69.1126 77.0712)" class="st1 st2 st3">Panchagarh</text>
</g>
</svg>
